<?xml version="1.0" encoding="UTF-8" standalone="no"?>
<!-- Created with Inkscape (http://www.inkscape.org/) -->

<svg
   width="3in"
   height="3in"
   viewBox="0 0 76.200001 76.200002"
   version="1.1"
   id="svg5"
   inkscape:version="1.1.1 (3bf5ae0d25, 2021-09-20)"
   sodipodi:docname="GitLab.svg"
   inkscape:export-filename="C:\Users\aaron\Documents\Aaron\Inkscape\Platform One App\finals\Jira.png"
   inkscape:export-xdpi="600"
   inkscape:export-ydpi="600"
   xmlns:inkscape="http://www.inkscape.org/namespaces/inkscape"
   xmlns:sodipodi="http://sodipodi.sourceforge.net/DTD/sodipodi-0.dtd"
   xmlns="http://www.w3.org/2000/svg"
   xmlns:svg="http://www.w3.org/2000/svg">
  <sodipodi:namedview
     id="namedview7"
     pagecolor="#505050"
     bordercolor="#eeeeee"
     borderopacity="1"
     inkscape:pageshadow="0"
     inkscape:pageopacity="0"
     inkscape:pagecheckerboard="0"
     inkscape:document-units="mm"
     showgrid="false"
     units="in"
     width="3in"
     inkscape:zoom="1.8116734"
     inkscape:cx="143.78971"
     inkscape:cy="114.53499"
     inkscape:window-width="1920"
     inkscape:window-height="1191"
     inkscape:window-x="2645"
     inkscape:window-y="1791"
     inkscape:window-maximized="1"
     inkscape:current-layer="layer1" />
  <defs
     id="defs2" />
  <g
     inkscape:label="Layer 1"
     inkscape:groupmode="layer"
     id="layer1">
    <g
       id="g1092">
      <rect
         style="fill:#380d76;fill-opacity:1;stroke:#000000;stroke-width:0.894;stroke-miterlimit:4;stroke-dasharray:none;stroke-opacity:1"
         id="rect13049"
         width="73.038864"
         height="73.038864"
         x="1.5805664"
         y="1.5805658"
         ry="14.259517"
         rx="14.259517" />
      <g
         id="g1000"
         transform="matrix(0.26458333,0,0,0.26458333,5.5694796,6.3235421)">
        <path
           fill="#ffffff"
           fill-opacity="0"
           d="M 0,0 H 245.9 V 240.2 H 0 Z"
           pointer-events="none"
           id="path2" />
        <path
           fill="#e24329"
           d="M 123,230.8 167.2,94.6 H 78.7 l 44.2,136.2 z"
           id="path4" />
        <path
           fill="#fc6d26"
           d="M 123,230.8 78.6,94.6 h -62 z"
           id="path6" />
        <path
           fill="#fca326"
           d="M 16.7,94.6 3.2,135.9 A 8.9,8.9 0 0 0 6.6,146 l 116.3,84.4 z"
           id="path8" />
        <path
           fill="#e24329"
           d="m 16.7,94.6 h 62 L 52,12.8 c -1.5,-4.2 -7.5,-4.2 -8.6,0 z"
           id="path10" />
        <path
           fill="#fc6d26"
           d="M 123,230.8 167.2,94.6 h 62 L 122.9,230.8 Z"
           id="path12" />
        <path
           fill="#fca326"
           d="m 229.2,94.6 13.5,41.3 c 1.1,3.7 0,7.8 -3.4,10.1 l -116.4,84.8 z"
           id="path14" />
        <path
           fill="#e24329"
           d="m 229.2,94.6 h -62 L 194,12.8 c 1.5,-4.2 7.5,-4.2 8.6,0 l 26.7,81.8 z"
           id="path16" />
      </g>
    </g>
  </g>
</svg>
