<?xml version="1.0" encoding="UTF-8" standalone="no"?>
<!-- Created with Inkscape (http://www.inkscape.org/) -->

<svg
   width="3in"
   height="3in"
   viewBox="0 0 76.200001 76.200002"
   version="1.1"
   id="svg5"
   inkscape:version="1.1.1 (3bf5ae0d25, 2021-09-20)"
   sodipodi:docname="Iron Bank Image Grey.svg"
   inkscape:export-filename="C:\Users\aaron\Documents\Aaron\Inkscape\Platform One App\finals\Iron Bank Image Grey.png"
   inkscape:export-xdpi="600"
   inkscape:export-ydpi="600"
   xmlns:inkscape="http://www.inkscape.org/namespaces/inkscape"
   xmlns:sodipodi="http://sodipodi.sourceforge.net/DTD/sodipodi-0.dtd"
   xmlns="http://www.w3.org/2000/svg"
   xmlns:svg="http://www.w3.org/2000/svg">
  <sodipodi:namedview
     id="namedview7"
     pagecolor="#505050"
     bordercolor="#eeeeee"
     borderopacity="1"
     inkscape:pageshadow="0"
     inkscape:pageopacity="0"
     inkscape:pagecheckerboard="0"
     inkscape:document-units="mm"
     showgrid="false"
     units="in"
     width="3in"
     inkscape:zoom="0.64052325"
     inkscape:cx="381.71916"
     inkscape:cy="197.49478"
     inkscape:window-width="1920"
     inkscape:window-height="1191"
     inkscape:window-x="2645"
     inkscape:window-y="1791"
     inkscape:window-maximized="1"
     inkscape:current-layer="layer1" />
  <defs
     id="defs2">
    <clipPath
       clipPathUnits="userSpaceOnUse"
       id="clipPath1225">
      <path
         style="fill:#000000;stroke-width:0.264583"
         d="M 175.87059,94.974238 C 139.62897,90.582329 111.31597,62.14709 107.13164,25.938515 c -0.81804,-7.0788 -0.42368,-17.2327068 0.94031,-24.210997 6.09378,-31.176204 30.67645,-55.757141 61.89781,-61.893456 9.27562,-1.82305 21.18009,-1.822241 30.42708,0.0021 31.13953,6.143421 55.47704,30.33 61.76216,61.3791288 1.0631,5.2518365 1.47326,9.6299662 1.47326,15.7257992 0,6.095833 -0.41016,10.473962 -1.47326,15.725799 -5.82616,28.78183 -27.3803,51.988204 -55.67674,59.944632 -3.33825,0.938652 -8.4532,1.926209 -12.31842,2.378347 -4.24388,0.496436 -14.13762,0.487998 -18.29325,-0.01561 z m 1.7218,-8.099234 c 0.1202,-1.040443 -0.79728,-1.485334 -1.53722,-0.745401 -0.73993,0.739934 -0.29504,1.657411 0.7454,1.537211 0.54756,-0.06326 0.72856,-0.244255 0.79182,-0.79181 z m 16.9426,0.06317 c 0.11781,-0.83461 -0.62239,-1.426115 -1.31845,-1.053598 -0.48431,0.2592 -0.67377,1.298594 -0.30408,1.66828 0.10369,0.103696 0.49065,0.153305 0.8599,0.110244 0.48258,-0.05628 0.69702,-0.260122 0.76263,-0.724926 z m -33.61398,-3.507325 c 0.74645,-0.746448 0.0185,-1.991849 -0.97919,-1.675201 -0.29058,0.09223 -0.60379,0.405434 -0.69601,0.696015 -0.31665,0.997673 0.92875,1.725634 1.6752,0.979186 z m 50.04891,-0.1925 c 0.34585,-0.646229 0.11077,-1.274522 -0.55605,-1.486162 -0.66775,-0.211937 -1.28578,0.307403 -1.28578,1.080468 0,0.968188 1.37831,1.271784 1.84183,0.405694 z m -16.8376,-3.851029 c 10.00342,-1.569778 18.32372,-4.790855 26.42941,-10.231742 12.03778,-8.080282 21.35181,-20.975211 25.30477,-35.033537 6.14434,-21.851717 0.10791,-45.339127 -15.79523,-61.45833 -20.75132,-21.03325 -53.22992,-24.850365 -78.35776,-9.209151 -5.27439,3.283128 -11.70989,9.01799 -15.69909,13.989926 -5.64445,7.034951 -9.78319,15.3363884 -11.93095,23.9309205 -2.34381,9.3790825 -2.60304,18.5104645 -0.78365,27.6041925 3.43761,17.181949 13.07269,31.374051 27.88452,41.072832 7.63616,5.000151 18.43644,8.760203 27.91354,9.717929 3.27405,0.330864 11.88276,0.111538 15.03444,-0.38304 z m -16.22506,-0.80287 c -8.78309,-1.087596 -17.91829,-4.262009 -25.12487,-8.730695 -28.07028,-17.40595 -37.74969,-52.941208 -22.3591,-82.085227 2.88546,-5.46399 6.16732,-9.848995 10.9529,-14.634581 5.31282,-5.31282 10.07721,-8.737187 16.55503,-11.898783 8.39441,-4.097028 16.06071,-5.975408 25.53229,-6.255872 10.9218,-0.323408 20.69743,1.904511 30.31739,6.909496 14.30496,7.442454 25.23788,20.267047 30.24618,35.4795541 4.3458,13.2001979 4.29638,26.2623409 -0.14994,39.6241849 -6.78706,20.396123 -24.81482,36.353003 -45.98063,40.698748 -6.21754,1.276577 -14.06228,1.627103 -19.98925,0.893175 z m 13.72438,-15.621958 c 15.35459,-2.254742 28.26645,-11.53691 35.1264,-25.251923 1.44669,-2.892343 3.3748,-8.254384 3.69452,-10.274414 0.1509,-0.953381 0.32688,-1.215913 1.04444,-1.55809 0.83785,-0.399542 1.44359,-1.2733 1.44359,-2.082319 0,-0.637027 -1.23873,-1.695315 -1.98437,-1.695315 -0.8824,0 -1.98438,1.102313 -1.98438,1.984981 0,0.402696 0.29021,0.955069 0.70253,1.337202 l 0.70253,0.651081 -0.7016,2.67709 c -2.25683,8.61137 -7.3206,16.836842 -13.93262,22.631868 -17.63682,15.457564 -43.5387,15.447516 -61.16831,-0.02373 -2.4036,-2.109332 -5.50832,-5.631487 -7.33447,-8.320609 -1.02992,-1.516626 -1.05757,-1.610979 -0.68277,-2.329579 0.52546,-1.007465 0.4984,-1.259367 -0.22571,-2.101191 -1.18078,-1.37273 -3.34916,-0.64176 -3.34916,1.129022 0,0.890992 1.11926,1.943036 2.06718,1.943036 0.6426,0 0.93253,0.248936 1.77188,1.521354 5.96605,9.044268 16.55081,16.335193 27.51406,18.952057 5.20551,1.242523 12.13787,1.566966 17.29626,0.809482 z m -29.86397,-22.07664 c 0,-0.145521 -0.0525,-0.264581 -0.11667,-0.264581 -0.0642,0 -0.19026,0.11906 -0.2802,0.264581 -0.0899,0.145523 -0.0374,0.264586 0.11668,0.264586 0.1541,0 0.28019,-0.119063 0.28019,-0.264586 z M 141.03947,9.7797707 c 0.5477,-0.547693 0.64755,-0.8418885 0.51635,-1.5213544 -0.0895,-0.463296 -0.41565,-1.0523641 -0.72486,-1.3090419 -0.55653,-0.4619678 -0.55759,-0.48337 -0.10499,-2.1166667 3.02152,-10.9037122 9.78946,-20.1723127 19.32191,-26.4610697 12.77824,-8.430067 29.10187,-9.814107 43.39167,-3.679071 7.03831,3.021756 13.82737,8.283874 18.22344,14.124776 1.47427,1.9588087 1.51799,2.062311 1.11437,2.6385603 -0.92115,1.3151194 -0.0109,3.1278647 1.57064,3.1278647 2.31033,0 2.32388,-3.6648683 0.014,-3.7962578 -0.54721,-0.031125 -1.01704,-0.4582795 -2.08134,-1.8922842 -6.04914,-8.150426 -15.60661,-14.465141 -25.80498,-17.049594 -6.24026,-1.581396 -14.34111,-1.754886 -20.57123,-0.440558 -14.21015,2.997825 -25.88543,11.950036 -32.29348,24.7615506 -1.34604,2.6911246 -3.52718,8.6197228 -3.53527,9.6092909 -0.002,0.291637 -0.35949,0.625094 -0.9204,0.8594593 -1.11434,0.4656005 -1.55672,1.2148397 -1.32912,2.2510832 0.34486,1.570143 2.05969,2.04688 3.21325,0.8933127 z m 17.28862,-10.02101202 c 0,-0.0641721 -0.11906,-0.19026187 -0.26458,-0.28019904 -0.14552,-0.0899372 -0.26459,-0.0374332 -0.26459,0.11667596 0,0.1541092 0.11907,0.28019904 0.26459,0.28019904 0.14552,0 0.26458,-0.0525039 0.26458,-0.11667596 z M 146.13537,75.322594 c 0.30098,-0.562385 -0.29092,-1.628407 -0.90415,-1.628407 -0.20178,0 -0.54656,0.256532 -0.76617,0.570074 -0.51869,0.740542 -0.11939,1.546592 0.76617,1.546592 0.3541,0 0.76021,-0.21931 0.90415,-0.488259 z m 79.79376,-0.408945 c 0,-0.454258 -0.19478,-0.884082 -0.47959,-1.058334 -0.3904,-0.238844 -0.57423,-0.178122 -0.98835,0.326462 -0.68638,0.836308 -0.27265,1.697873 0.75814,1.578787 0.58743,-0.06786 0.7098,-0.213881 0.7098,-0.846915 z M 133.18059,64.316041 c 0.54697,-0.659064 0.23383,-1.591728 -0.56543,-1.684065 -0.95823,-0.110702 -1.41391,0.691364 -0.85011,1.496304 0.46383,0.662207 0.96645,0.728876 1.41554,0.187761 z m 105.30417,0 c 0.54697,-0.659064 0.23382,-1.591728 -0.56543,-1.684065 -0.95823,-0.110702 -1.41391,0.691364 -0.85011,1.496304 0.46383,0.662207 0.96645,0.728876 1.41554,0.187761 z M 123.65713,50.29127 c 0.70285,-0.846884 -0.32947,-2.147824 -1.24623,-1.570498 -0.91607,0.576903 -0.58971,1.954665 0.46302,1.954665 0.25541,0 0.60785,-0.172876 0.78321,-0.384167 z m 124.61875,0 c 0.70285,-0.846884 -0.32947,-2.147824 -1.24622,-1.570498 -0.91608,0.576903 -0.58972,1.954665 0.46302,1.954665 0.2554,0 0.60784,-0.172876 0.7832,-0.384167 z M 117.52934,34.482934 c 0.74163,-0.741627 0.0202,-1.992384 -0.96828,-1.678662 -0.66682,0.21164 -0.9019,0.839933 -0.55605,1.486162 0.30786,0.575233 1.04811,0.668716 1.52433,0.1925 z m 136.83225,-0.1925 c 0.34585,-0.646229 0.11077,-1.274522 -0.55605,-1.486162 -0.66776,-0.211934 -1.28578,0.307406 -1.28578,1.080471 0,0.968187 1.37831,1.271783 1.84183,0.405691 z m -138.618,-16.977563 c 0.38976,-0.728268 -0.60609,-1.688666 -1.3424,-1.294606 -0.64371,0.344503 -0.69081,1.464103 -0.0761,1.808136 0.55865,0.312634 1.07668,0.12509 1.41846,-0.51353 z M 256.35622,16.94106 c 0,-0.640527 -0.12482,-0.811369 -0.64664,-0.885023 -0.84579,-0.119386 -1.42639,0.621868 -1.04511,1.334304 0.18644,0.348353 0.49565,0.482653 0.98194,0.426471 0.59406,-0.06863 0.70981,-0.211434 0.70981,-0.875752 z M 117.57017,0.816039 c 0.17451,-0.21026969 0.27839,-0.65675406 0.23083,-0.99218753 -0.11152,-0.7867465 -1.23198,-0.99446827 -1.72527,-0.31984952 -0.44417,0.60743573 -0.43506,0.77329773 0.0702,1.2785752 0.51824,0.51824465 1.01226,0.52984925 1.42422,0.0334619 z M 254.22065,0.7825771 c 0.49189,-0.49188426 0.49611,-0.52724846 0.14189,-1.18911955 -0.47443,-0.88647845 -1.84278,-0.48063417 -1.84278,0.54656038 0,0.50282739 0.50392,1.05833327 0.96006,1.05833327 0.17878,0 0.51216,-0.1870974 0.74083,-0.4157741 z M 123.65713,-15.060813 c 0.70285,-0.846887 -0.32947,-2.147827 -1.24623,-1.570498 -0.91607,0.5769 -0.58971,1.954662 0.46302,1.954662 0.25541,0 0.60785,-0.172873 0.78321,-0.384164 z m 124.61875,0 c 0.70285,-0.846887 -0.32947,-2.147827 -1.24622,-1.570498 -0.91608,0.5769 -0.58972,1.954662 0.46302,1.954662 0.2554,0 0.60784,-0.172873 0.7832,-0.384164 z M 133.40619,-29.669139 c 0.0639,-0.658644 -0.0376,-0.874993 -0.47572,-1.014045 -0.69656,-0.221081 -1.3253,0.275098 -1.3253,1.045877 0,0.775419 0.24032,0.977984 1.04844,0.883742 0.53969,-0.06294 0.68728,-0.242496 0.75258,-0.915574 z m 105.22294,0.07237 c 0,-0.952264 -0.69734,-1.474057 -1.30073,-0.973285 -0.43001,0.356872 -0.56687,1.369899 -0.23052,1.706247 0.10369,0.103696 0.49065,0.153305 0.8599,0.110244 0.54588,-0.06366 0.67135,-0.22125 0.67135,-0.843206 z m -92.74854,-10.597607 c 0.54697,-0.659064 0.23383,-1.591728 -0.56543,-1.684065 -0.95823,-0.110702 -1.41391,0.691364 -0.85011,1.496306 0.46383,0.662207 0.96645,0.728874 1.41554,0.187759 z m 80.02096,-0.187759 c 0.5638,-0.804942 0.10812,-1.607008 -0.85011,-1.496306 -0.88284,0.101994 -1.14787,1.188429 -0.41978,1.720826 0.64042,0.468286 0.80501,0.439185 1.26989,-0.22452 z m -64.93817,-7.751593 c 0.70285,-0.846887 -0.32947,-2.147827 -1.24623,-1.570498 -0.63106,0.397412 -0.70845,1.009975 -0.19275,1.525672 0.53134,0.531344 1.0225,0.546645 1.43898,0.04483 z m 49.87882,-0.04483 c 0.5157,-0.515697 0.43831,-1.12826 -0.19275,-1.525672 -0.91676,-0.577329 -1.94908,0.723611 -1.24623,1.570497 0.41648,0.50182 0.90764,0.486519 1.43898,-0.04483 z m -33.24981,-4.814327 c -0.0633,-0.547552 -0.24426,-0.728551 -0.79182,-0.79181 -1.04044,-0.120201 -1.48533,0.797279 -0.7454,1.53721 0.73994,0.739934 1.65742,0.295045 1.53722,-0.7454 z m 16.98072,0.486238 c 0.35532,-0.663929 -0.25824,-1.401937 -1.07026,-1.287319 -0.80486,0.113609 -1.05179,1.221766 -0.38146,1.711923 0.52914,0.386913 1.10802,0.217601 1.45172,-0.424604 z"
         id="path1227" />
    </clipPath>
    <clipPath
       clipPathUnits="userSpaceOnUse"
       id="clipPath17313">
      <path
         style="fill:#000000;stroke-width:0.264583"
         d="m 81.946241,147.02087 c 0.830024,-0.21618 2.4638,-0.87307 3.630639,-1.45976 1.166839,-0.58666 24.83125,-13.16312 52.58763,-27.94769 27.75635,-14.78456 56.53503,-30.111816 63.95262,-34.060566 12.58033,-6.697133 13.61639,-7.302265 15.41926,-9.006025 1.50791,-1.42503 2.1641,-2.297348 2.98545,-3.96875 2.11855,-4.311158 1.97885,3.201972 1.47286,-79.2119083 -0.37222,-60.6287597 -0.51615,-73.8156597 -0.82304,-75.4075807 -0.67572,-3.505261 -2.96072,-7.181318 -5.79295,-9.319681 -2.13759,-1.613905 -131.333741,-61.419579 -133.956582,-62.009309 -2.326111,-0.523 -4.422458,-0.53808 -6.694647,-0.0482 -1.131834,0.24405 -10.493639,4.30104 -27.384361,11.86717 -14.115521,6.32298 -43.8216202,19.62012 -66.013539,29.54917 -22.19193,9.92907 -41.063342,18.423782 -41.936461,18.877146 -2.07925,1.079632 -5.3158,4.317762 -6.4168,6.419903 -1.79593,3.429002 -1.769041,3.116021 -1.691431,19.689921 0.0385,8.22193 0.295352,41.797549 0.570781,74.6124998 0.48828,58.1747812 0.514141,59.7151302 1.03606,61.7309902 0.2944,1.13709 0.920409,2.803959 1.391129,3.704159 1.14272,2.185302 4.059402,5.043371 6.57225,6.440165 2.409042,1.339112 126.494731,66.515746 129.584429,68.064906 1.206897,0.60509 2.873772,1.26494 3.704193,1.46629 2.0329,0.49289 5.942859,0.50146 7.80251,0.0172 z"
         id="path17315" />
    </clipPath>
    <filter
       style="color-interpolation-filters:sRGB;"
       inkscape:label="Fade to Black or White"
       id="filter18446"
       x="0.11548015"
       y="0.01736604"
       width="0.80177844"
       height="0.95961225">
      <feColorMatrix
         values="0.39521 0 0 0 0.60479 0 0.39521 0 0 0.60479 0 0 0.39521 0 0.60479 0 0 0 1 0"
         id="feColorMatrix18444" />
    </filter>
  </defs>
  <g
     inkscape:label="Layer 1"
     inkscape:groupmode="layer"
     id="layer1">
    <path
       style="fill:#000000;stroke-width:0.264583"
       id="path15605"
       d="" />
    <g
       id="g18442"
       style="filter:url(#filter18446)">
      <rect
         style="fill:#9a817e;fill-opacity:1;stroke:#000000;stroke-width:0.894;stroke-miterlimit:4;stroke-dasharray:none;stroke-opacity:1"
         id="rect13049"
         width="73.038864"
         height="73.038864"
         x="1.5805664"
         y="1.5805658"
         ry="14.259517"
         rx="14.259517" />
      <g
         id="g15455"
         transform="matrix(0.22651281,0,0,0.22651281,20.707358,39.050888)"
         clip-path="url(#clipPath17313)">
        <path
           style="fill:#fdfdfd;stroke-width:0.264583"
           d="M -110.66202,-3.304595 V -161.26085 H 70.842145 252.34631 V -3.304595 154.65166 H 70.842145 -110.66202 Z"
           id="path15469" />
        <path
           style="fill:#e7e7e7;stroke-width:0.264583"
           d="m 75.832898,148.02803 c -0.820346,-0.126 -2.130033,-0.44699 -2.910416,-0.71332 -1.607995,-0.54882 -131.956457,-68.982295 -133.823749,-70.258023 -2.99947,-2.04923 -5.23617,-5.14766 -6.315562,-8.74875 -0.798073,-2.66256 -0.694182,3.57649 -1.396174,-83.843696 -0.398873,-49.672133 -0.459698,-67.017368 -0.239276,-68.232922 0.783363,-4.319984 3.245797,-8.046858 6.897656,-10.43954 1.598919,-1.047607 131.571374,-59.460299 135.178018,-60.752199 2.30872,-0.82698 6.266394,-0.94488 8.758478,-0.26092 1.276377,0.35031 25.113707,11.25144 65.219787,29.82589 34.76451,16.10058 64.22022,29.765038 65.45715,30.365459 3.22985,1.56781 6.21416,4.540184 7.65297,7.622321 0.56856,1.217991 1.16864,2.928906 1.3335,3.802031 0.29739,1.575017 1.03931,94.717942 1.05912,132.963686 0.01,18.364126 0.0399,17.989693 -1.75913,21.685277 -1.19309,2.450896 -3.66779,5.015082 -6.30208,6.52997 -1.01865,0.58579 -30.54615,16.350213 -65.61667,35.032056 -42.69997,22.74601 -64.463824,34.20102 -65.88125,34.67539 -2.403893,0.80454 -5.127202,1.08286 -7.312372,0.74729 z m 0.03575,-18.57793 c -2.64e-4,-0.47295 -0.119708,-8.12271 -0.265313,-16.99948 -0.1456,-8.87677 -0.558263,-36.856463 -0.917027,-62.177088 C 74.327544,24.952906 73.954076,-0.51292854 73.856379,-6.3172124 l -0.177636,-10.5532426 -5.188612,-2.497148 c -8.006191,-3.85318 -85.427816,-41.795522 -104.142777,-51.03769 -9.167812,-4.527418 -16.742431,-8.158996 -16.832484,-8.070176 -0.25966,0.256112 0.993441,141.855375 1.257707,142.11964 0.357328,0.357328 126.386097,66.609359 126.765922,66.639549 0.20224,0.0161 0.330504,-0.30779 0.330152,-0.83362 z m -21.84107,-24.79347 c -1.742181,-0.70567 -9.937554,-5.50897 -10.784409,-6.320717 -0.554593,-0.531601 -1.439701,-1.83743 -1.966904,-2.901847 l -0.958551,-1.9353 -0.201433,-6.663658 c -0.389223,-12.876009 -1.634945,-96.3686061 -1.452356,-97.34181 0.101582,-0.541419 0.488196,-1.345091 0.859142,-1.785937 0.554069,-0.658474 0.873159,-0.80154 1.787729,-0.80154 0.918998,0 1.983859,0.482873 6.101955,2.767002 2.743772,1.521852 5.338458,3.0994302 5.765972,3.5057296 0.95009,0.9029436 1.929487,2.5306709 2.63429,4.3780976 0.511558,1.3408952 0.557863,3.11046561 1.372544,52.4522978 0.46372,28.085522 0.765046,51.593152 0.669613,52.239192 -0.29645,2.00682 -2.067676,3.12135 -3.827592,2.40849 z M 23.61402,87.830155 C 20.849125,86.296088 18.133809,84.600151 17.579986,84.061407 16.252516,82.77007 15.056914,80.29224 14.739599,78.174829 14.598857,77.23568 14.117995,53.714332 13.671013,25.905173 12.780555,-29.495245 12.73591,-25.94918 14.337089,-26.998314 c 1.192532,-0.781378 2.386443,-0.374128 7.798569,2.660127 5.470121,3.066769 6.34722,3.812063 7.616159,6.471647 0.494384,1.036188 0.763352,2.162154 0.9188,3.84632 0.393157,4.2596036 1.802508,101.263519 1.489173,102.497964 -0.156359,0.616001 -0.571934,1.331609 -0.942655,1.623216 -1.279113,1.00615 -2.184115,0.735857 -7.603115,-2.270805 z M -1.9249041,73.682622 c -4.0204601,-2.181545 -5.1533848,-2.92912 -6.3823082,-4.211431 -2.4274037,-2.532862 -2.6384457,-3.354115 -2.8936107,-11.260159 -0.394615,-12.226788 -1.652026,-96.297076 -1.455888,-97.340333 0.113387,-0.603099 0.52107,-1.359046 0.980948,-1.818923 1.250773,-1.250776 2.1770367,-0.986102 8.0377004,2.296713 6.0334683,3.379613 6.9290643,4.249854 8.1945241,7.96254 0.4054607,1.189564 0.5272563,5.910284 1.2082647,46.831252 1.0479193,62.968356 1.068496,58.320383 -0.2640991,59.652978 -1.0651199,1.06512 -2.1246756,0.763667 -7.4255312,-2.112637 z M -23.230755,61.794128 c -1.571921,-0.636717 -9.900594,-5.472814 -10.658472,-6.188911 -1.157086,-1.093296 -2.106033,-2.730103 -2.712508,-4.678712 -0.457944,-1.471377 -0.54564,-4.994124 -1.308852,-52.5764672 -0.449913,-28.0496838 -0.74627,-51.3828738 -0.658574,-51.8515328 0.0877,-0.468659 0.462949,-1.2128 0.833895,-1.653646 0.554069,-0.658473 0.87316,-0.801539 1.787729,-0.801539 0.919065,0 1.98438,0.483164 6.106665,2.769616 2.746365,1.523288 5.397572,3.160398 5.891567,3.638021 1.480169,1.431105 2.752267,4.330769 3.018515,6.880503 0.293815,2.813738 1.754494,100.494087 1.526085,102.054174 -0.293746,2.006349 -2.065451,3.121636 -3.82605,2.408494 z M 81.599553,-24.096379 c 2.305352,-1.103504 16.395456,-7.703604 31.311337,-14.66689 50.35199,-23.506155 89.95537,-42.195002 89.97905,-42.46112 0.013,-0.145521 -28.0526,-13.262494 -62.36787,-29.148831 -60.473116,-27.99616 -62.416025,-28.87373 -63.191405,-28.54227 -2.046528,0.87485 -126.287209,56.592045 -126.856023,56.890077 l -0.646893,0.338942 0.77751,0.402053 c 0.427632,0.221131 9.290481,4.388284 19.69522,9.260346 20.6476098,9.668327 100.009679,46.940312 103.848958,48.772129 1.309687,0.624882 2.578645,1.141952 2.819908,1.14904 0.24126,0.0071 2.324854,-0.889976 4.630208,-1.993476 z m -5.367951,-27.119206 c -1.411476,-0.177678 -4.138139,-1.462968 -21.007795,-9.902629 -10.662187,-5.334148 -19.816223,-9.970167 -20.342299,-10.302264 -1.366515,-0.862643 -1.730462,-1.398995 -1.730462,-2.550192 0,-1.204648 0.91613,-2.305476 2.520889,-3.029122 0.571428,-0.257678 1.03896,-0.568823 1.03896,-0.691433 0,-0.122611 -2.052637,-1.25059 -4.561414,-2.50662 -5.281887,-2.6444 -6.98695,-3.741455 -8.752403,-5.631379 -7.231187,-7.741013 -0.01286,-17.235306 16.002881,-21.048626 6.585828,-1.56808 15.703359,-2.02153 22.181769,-1.10319 6.840289,0.96964 10.631996,2.24657 17.944751,6.04323 l 4.58329,2.379565 1.899002,-0.818255 c 2.573009,-1.10867 4.389598,-1.44642 6.916057,-1.28588 l 2.126692,0.13514 19.97492,10.019134 c 10.9862,5.510522 20.34979,10.347839 20.80797,10.749593 0.45818,0.401751 0.90858,1.031401 1.0009,1.399222 0.23144,0.922118 -0.51224,2.37975 -1.52915,2.997184 -1.76859,1.073838 -52.822954,24.629622 -53.915456,24.875856 -1.813152,0.408662 -3.40106,0.491969 -5.159102,0.270666 z m 5.834377,-14.789902 c 6.505284,-1.663771 8.119023,-5.146786 4.783386,-10.324221 -0.509283,-0.790491 -0.92597,-1.693101 -0.92597,-2.005807 0,-0.905994 0.955937,-1.8782 2.295599,-2.334667 1.575268,-0.53675 5.367232,-0.554144 7.115233,-0.03264 1.804771,0.538437 3.343267,1.841577 3.237579,2.742295 -0.111654,0.951569 -1.442169,1.775854 -3.432355,2.126417 -1.723056,0.303511 -2.2494,0.591415 -1.954262,1.068959 0.534744,0.865235 4.572312,-0.11647 5.887296,-1.431454 1.761505,-1.761509 0.837081,-3.844243 -2.360197,-5.31752 -1.538094,-0.708739 -1.895292,-0.765389 -4.835768,-0.766932 -2.782716,-0.0016 -3.347823,0.07643 -4.573776,0.630405 -2.874896,1.299098 -3.180916,2.950077 -1.215228,6.556182 1.098492,2.015209 1.209664,2.375712 1.096343,3.55509 -0.20457,2.128999 -1.936721,3.516426 -5.430207,4.34952 -2.548306,0.607695 -8.60174,0.418094 -11.177831,-0.350102 -9.538965,-2.844544 -8.918948,-8.974421 1.022416,-10.108259 2.377818,-0.271195 2.683491,-0.378947 2.683491,-0.945951 0,-0.529246 -3.089412,-0.512424 -5.164722,0.02813 -5.795769,1.509606 -8.08178,4.680138 -5.828969,8.084365 1.306303,1.973956 5.467805,4.035915 9.510077,4.712094 2.623426,0.438838 7.072437,0.325597 9.267865,-0.2359 z m -3.401073,-2.407023 c 1.892067,-0.343469 3.566607,-1.262673 4.093191,-2.246873 0.699334,-1.307071 0.440156,-2.684987 -1.029949,-5.475666 -0.748551,-1.420969 -1.360559,-2.849719 -1.360014,-3.175 0.003,-1.814759 2.42442,-3.562898 5.963881,-4.305676 3.01194,-0.632074 8.423568,-0.43108 11.100755,0.412295 3.40012,1.071118 5.56363,2.475934 6.34322,4.118798 1.31482,2.770767 -1.57225,5.136981 -7.2339,5.928842 -2.204673,0.308356 -2.416612,0.394358 -2.416612,0.980657 0,0.359137 0.293235,0.397756 2.050521,0.270039 6.991731,-0.508149 11.010811,-4.496301 8.442391,-8.377439 -1.41528,-2.13863 -5.527482,-4.107985 -10.039771,-4.808088 -3.095405,-0.480269 -7.610215,-0.185579 -10.075055,0.657619 -3.765648,1.28819 -5.300617,2.806645 -5.271759,5.215033 0.01117,0.931042 0.33864,1.834801 1.410131,3.891545 1.239753,2.379726 1.368105,2.774749 1.149384,3.537386 -0.880025,3.068463 -9.85552,2.999002 -12.100255,-0.09364 -0.494398,-0.681148 -0.497007,-0.743167 -0.05932,-1.411163 0.591494,-0.902734 1.814562,-1.400495 4.047021,-1.647047 1.551168,-0.171307 1.793584,-0.2696 1.793584,-0.727247 0,-1.330656 -5.290259,-0.334992 -6.620613,1.246042 -0.836197,0.993765 -0.879398,2.498905 -0.100161,3.489547 0.729324,0.927182 2.832188,1.974525 4.842709,2.411937 2.036381,0.443037 3.100594,0.465725 5.070618,0.108103 z M 60.19415,-88.794288 c 5.056032,-2.344436 9.284266,-4.346869 9.396077,-4.449855 0.347734,-0.320286 -8.254815,-4.487971 -10.52204,-5.097624 -3.047021,-0.819338 -9.640097,-0.813017 -12.676275,0.01214 -5.179152,1.407584 -7.647059,3.329123 -7.611216,5.92617 0.02564,1.858608 0.849366,2.552266 6.334988,5.334743 2.726169,1.382797 5.165696,2.519315 5.421175,2.525599 0.255476,0.0063 4.601257,-1.906752 9.657291,-4.251185 z"
           id="path15467" />
        <path
           style="fill:#dcdcdc;stroke-width:0.264583"
           d="m 74.41402,147.5518 c -1.018646,-0.26508 -3.042708,-1.08505 -4.497917,-1.82215 C 68.460895,144.99254 38.578462,129.31198 3.5106958,110.88397 -34.809577,90.746745 -60.831488,76.921765 -61.709095,76.233838 c -2.887925,-2.263749 -5.052542,-5.914311 -5.68992,-9.595885 -0.524563,-3.029921 -1.709198,-147.690485 -1.232263,-150.476262 0.507656,-2.965209 2.097649,-5.955884 4.364151,-8.208687 1.043618,-1.037307 2.603207,-2.256007 3.479065,-2.71862 3.134497,-1.655586 133.616143,-59.922504 135.054241,-60.308824 1.953985,-0.5249 5.827448,-0.51331 7.809814,0.0234 1.228752,0.33266 125.951387,57.866621 131.508857,60.664407 0.73496,0.369999 2.26997,1.620248 3.45382,2.813087 2.26346,2.280643 3.70991,4.749499 4.35819,7.438761 0.4045,1.677911 0.44228,5.167691 0.91657,84.66666925 0.41103,68.89460775 0.45125,65.65248275 -0.85691,69.08266275 -1.13479,2.975581 -3.85611,6.09472 -6.7474,7.733787 -1.9734,1.118714 -126.203516,67.272626 -128.558265,68.458696 -3.089019,1.55591 -4.611386,1.99276 -7.37121,2.11524 -1.870604,0.083 -2.987286,-0.0116 -4.365625,-0.37045 z m 1.541428,-22.20275 c -0.12891,-5.97683 -1.246251,-83.638316 -1.70633,-118.599478 -0.215217,-16.3542165 -0.396393,-23.508365 -0.600786,-23.723151 -0.160954,-0.16914 -3.38827,-1.790412 -7.171812,-3.602826 -7.230155,-3.463433 -58.2167518,-28.430441 -96.222898,-47.118227 -12.322281,-6.058918 -22.53189,-11.016215 -22.688021,-11.016215 -0.381458,0 -0.379304,0.636852 0.260067,76.8614604 0.326805,38.9611486 0.647184,65.4525746 0.793356,65.6009286 0.355851,0.361162 126.796835,66.800858 127.151229,66.812898 0.214768,0.007 0.266449,-1.44812 0.185195,-5.21539 z M 52.674398,103.38864 C 43.735334,98.589908 43.14629,98.153486 41.732586,95.281849 40.879522,93.549029 40.86537,93.458827 40.658405,88.43617 40.316367,80.135463 38.974004,-9.986433 39.180498,-10.785805 c 0.29293,-1.133997 1.0966,-1.779207 2.216163,-1.779207 0.742407,0 2.047978,0.590479 5.357812,2.423205 2.406917,1.3327646 4.818772,2.7152073 5.359675,3.0720958 1.121061,0.7396718 2.382684,2.5741922 3.175006,4.6167518 0.528357,1.3620724 0.563604,2.69140522 1.397225,52.6951084 0.470355,28.213784 0.75807,51.728631 0.63937,52.255211 -0.256135,1.13626 -1.081709,1.88347 -2.081,1.88347 -0.397158,0 -1.553816,-0.44649 -2.570351,-0.99219 z M 28.755742,89.975395 C 27.628609,89.576876 19.411683,84.991189 18.325283,84.154381 17.223886,83.306024 15.905795,81.009655 15.431649,79.113116 15.102017,77.794623 14.894791,69.074332 14.208739,27.651656 13.754426,0.22097803 13.427967,-22.962598 13.483278,-23.867401 c 0.134313,-2.197145 0.889453,-3.093003 2.457826,-2.915838 1.317929,0.148873 10.185826,5.025774 11.480969,6.313956 0.493699,0.491048 1.322567,1.781238 1.841931,2.867091 1.144797,2.393477 0.901333,-4.870188 1.904302,56.814 0.725151,44.597935 0.754377,48.553818 0.365871,49.524791 -0.52093,1.301933 -1.440392,1.711884 -2.778435,1.238796 z M 2.447354,75.444353 c -2.02227923,-0.943626 -8.6229375,-4.635876 -9.5838936,-5.361001 -1.217496,-0.918707 -2.4551983,-2.832256 -3.0332604,-4.689576 -0.46641,-1.498578 -0.548285,-4.580731 -1.279861,-48.180414 -0.918781,-54.75646 -0.92924,-56.253202 -0.400272,-57.276118 0.690256,-1.334802 1.8621694,-1.422707 4.0522288,-0.303954 3.0439122,1.554927 8.09104293,4.461785 8.98389,5.174205 0.5042667,0.402363 1.2663805,1.282605 1.6935846,1.956094 1.6833533,2.653803 1.5262993,-0.848098 2.468417,55.039492 0.4744164,28.143026 0.768432,51.586547 0.6533727,52.096714 -0.4263523,1.89039 -1.6621363,2.427425 -3.5542061,1.544558 z M -24.583934,60.526136 c -6.100763,-3.275052 -8.230074,-4.535948 -9.095248,-5.385858 -1.046676,-1.028211 -2.275232,-3.302371 -2.658343,-4.920814 -0.211997,-0.895583 -0.523848,-17.352616 -1.589082,-83.858984 -0.170503,-10.645095 -0.231598,-19.667109 -0.135771,-20.048919 0.274587,-1.094036 1.092121,-1.739074 2.204143,-1.739074 0.754885,0 2.12757,0.633656 5.874959,2.711979 2.689455,1.491589 5.271434,3.092053 5.737733,3.55659 1.302822,1.2979 2.504416,3.982956 2.783009,6.218846 0.328959,2.640098 1.802681,101.365075 1.531118,102.569781 -0.257207,1.14101 -1.081448,1.888641 -2.082168,1.888641 -0.397158,0 -1.553816,-0.446485 -2.57035,-0.992188 z M 82.327112,-24.22217 c 2.751474,-1.31752 18.229598,-8.571411 34.395838,-16.119756 52.11927,-24.335561 86.59406,-40.611247 86.59628,-40.882463 0.002,-0.277993 -124.606636,-58.076041 -125.208261,-58.076041 -0.53489,0 -128.275897,57.295176 -128.369924,57.577262 -0.0455,0.136495 7.389495,3.745227 16.52221,8.019404 25.6232447,11.99187 98.487205,46.215868 104.711182,49.182551 3.055937,1.456627 5.734843,2.658787 5.953125,2.671469 0.218281,0.01267 2.648079,-1.054907 5.39955,-2.372426 z m -6.943653,-27.238078 c -1.746499,-0.37035 -40.498834,-19.954304 -41.384543,-20.914172 -1.324782,-1.435706 -0.683519,-3.221887 1.5664,-4.363075 0.557307,-0.282673 1.169397,-0.624813 1.360196,-0.760309 0.247105,-0.175482 -1.087834,-0.975321 -4.640231,-2.780221 -5.439777,-2.763843 -7.103292,-3.858805 -8.902197,-5.859619 -1.922679,-2.138484 -2.415773,-3.406963 -2.40982,-6.199245 0.0045,-2.097718 0.09508,-2.554521 0.760934,-3.836459 0.428273,-0.824529 1.581732,-2.257891 2.661457,-3.307292 7.631478,-7.41715 25.601459,-10.77396 41.0494,-7.66806 4.408649,0.88639 7.041933,1.87303 13.126702,4.91831 2.876462,1.4396 5.419468,2.617459 5.651124,2.617459 0.231656,0 1.274588,-0.385355 2.317625,-0.856349 1.819603,-0.82165 2.034154,-0.85649 5.296051,-0.8599 l 3.399618,-0.004 19.883715,10.011537 c 20.4058,10.274411 21.61663,10.970154 21.59413,12.408014 -0.0124,0.792057 -0.5,1.628569 -1.31354,2.253433 -0.66634,0.511802 -50.592399,23.796773 -53.040747,24.737629 -1.517619,0.583192 -5.241481,0.829728 -6.976274,0.461862 z m 7.497228,-14.560143 c 3.417847,-1.068935 5.00548,-2.286386 5.691232,-4.364236 0.565007,-1.711989 0.178102,-3.087716 -1.869874,-6.64873 -0.849431,-1.476986 -0.556432,-2.381552 1.030923,-3.182724 2.865691,-1.446379 7.871774,-0.920773 10.030531,1.053137 1.405099,1.284785 0.226544,2.641791 -2.775606,3.195873 -1.629654,0.300774 -1.788457,0.387433 -1.788457,0.975966 0,0.620935 0.06104,0.643033 1.580391,0.572106 1.923569,-0.0898 4.136578,-1.03963 4.807328,-2.063324 0.263682,-0.402428 0.479425,-1.198607 0.479425,-1.769287 0,-3.705254 -8.988977,-5.830554 -13.546399,-3.202829 -2.197875,1.267254 -2.46444,3.319423 -0.791059,6.090058 1.196787,1.981541 1.549773,3.260211 1.224851,4.436975 -1.212953,4.392957 -12.665294,5.474057 -19.567305,1.847151 -2.404134,-1.263335 -3.42369,-2.409872 -3.42369,-3.850092 0,-2.233713 2.865954,-3.95025 7.594939,-4.54892 2.667434,-0.337686 3.30426,-0.664475 2.7041,-1.387624 -0.309113,-0.372456 -0.707176,-0.419097 -2.498191,-0.292703 -3.812484,0.269052 -7.450343,1.867837 -8.785992,3.861311 -0.939824,1.402702 -0.839528,3.323558 0.25754,4.932452 1.483733,2.17595 5.661232,4.188535 10.120313,4.875639 2.608265,0.401913 7.396929,0.135356 9.525,-0.530199 z m -1.892377,-2.876626 c 2.674919,-1.304793 3.011495,-3.702487 0.995405,-7.091032 -1.430004,-2.403483 -1.621139,-3.585435 -0.779444,-4.820018 2.121127,-3.111241 11.251181,-4.107032 17.211042,-1.877163 7.987437,2.988484 7.087397,8.007593 -1.665136,9.285674 -2.329194,0.340119 -3.070318,0.714473 -2.801475,1.415068 0.426932,1.112568 7.086148,-0.291187 9.427598,-1.987328 2.34883,-1.70148 2.83254,-4.172614 1.26637,-6.469465 -2.88571,-4.231997 -13.118141,-6.394172 -19.988759,-4.223745 -3.843425,1.214136 -5.609683,2.930036 -5.609683,5.449745 0,1.184479 0.18261,1.635054 2.076847,5.12444 1.057381,1.947809 0.706816,2.965397 -1.322327,3.83831 -1.198628,0.515636 -1.720947,0.580054 -3.913163,0.482621 -1.865207,-0.0829 -2.888012,-0.269867 -3.892928,-0.711615 -1.579481,-0.69432 -2.560789,-1.627172 -2.429397,-2.309434 0.139319,-0.723427 1.696379,-1.64083 3.084206,-1.81718 2.57329,-0.326988 2.989376,-0.439166 3.146367,-0.848275 0.699177,-1.822029 -5.54422,-0.941398 -7.189666,1.014103 -1.345584,1.599136 -0.73809,3.517125 1.536139,4.849913 1.849554,1.083911 3.712091,1.465199 6.787256,1.389457 2.292347,-0.05647 3.002401,-0.177829 4.060748,-0.694076 z M 60.220103,-88.644809 c 5.186021,-2.40774 9.534343,-4.482923 9.662933,-4.611513 0.302514,-0.302514 -7.596145,-4.265462 -9.951755,-4.993037 -6.307828,-1.948291 -15.342065,-0.790445 -19.690762,2.523604 -2.219259,1.691246 -2.163686,4.804257 0.113056,6.33312 1.163529,0.781325 9.68434,5.107638 10.078088,5.116997 0.197623,0.0047 4.602419,-1.961431 9.78844,-4.369171 z"
           id="path15465" />
        <path
           style="fill:#afafaf;stroke-width:0.264583"
           d="M 74.071943,147.2555 C 72.583373,146.85188 57.102883,138.83095 6.3386101,112.16071 -29.853455,93.146339 -59.822333,77.34444 -60.258895,77.045381 c -4.683229,-3.208163 -6.932883,-7.357652 -7.198739,-13.278099 -0.253484,-5.644885 -1.277442,-144.752644 -1.079296,-146.62551 0.472302,-4.464175 2.959235,-8.507148 6.787803,-11.034843 1.793515,-1.184108 133.820611,-60.431749 135.898564,-60.984979 3.062692,-0.81539 6.929395,-0.54825 9.879004,0.68253 2.249511,0.93865 126.849939,58.713139 128.945009,59.78898 4.39105,2.254838 7.50128,6.464142 8.28292,11.20988 0.30083,1.826438 0.44632,15.659672 0.79298,75.3941482 l 0.42455,73.1572938 -0.53541,2.067441 c -0.94136,3.634865 -2.94428,6.659293 -5.78647,8.737587 -1.6865,1.233226 -130.650011,69.90702 -132.849987,70.74337 -2.457209,0.93414 -6.513304,1.08897 -9.23009,0.35232 z M 143.16451,97.309293 206.6465,63.514843 206.47595,44.326479 c -0.0938,-10.5536 -0.30176,-42.4650843 -0.46215,-70.914408 -0.16039,-28.449324 -0.36798,-51.798743 -0.46133,-51.887598 -0.16616,-0.158176 -26.34975,12.654392 -87.68868,42.909184 -16.84846,8.31033 -32.341636,15.92519 -34.429286,16.921912 l -3.795728,1.812224 -0.161838,48.369537 c -0.08901,26.603246 -0.232235,59.888833 -0.318275,73.96797 -0.126878,20.76165 -0.09217,25.59844 0.183716,25.59844 0.187082,0 28.907041,-15.20751 63.822131,-33.794447 z M 76.038551,117.14697 C 75.938925,109.61627 75.50372,79.463689 75.071433,50.14124 74.639146,20.818791 74.284618,-6.2197108 74.283591,-9.9443166 c -0.0017,-6.1216384 -0.04633,-6.8098594 -0.464884,-7.1660784 -0.254661,-0.216736 -2.84427,-1.531131 -5.754687,-2.920876 -5.332637,-2.546374 -70.2009559,-34.31312 -102.744653,-50.315213 -9.651851,-4.745919 -17.737288,-8.628947 -17.967634,-8.628947 -0.379399,0 -0.402656,1.562341 -0.247145,16.602605 0.09442,9.131433 0.365303,41.189012 0.601967,71.2390647 0.321747,40.8529803 0.508434,54.7199523 0.740016,54.9674143 0.414792,0.443238 126.92223,66.959547 127.399453,66.985317 0.31949,0.0172 0.347406,-1.96511 0.192527,-13.672 z m 6.778678,-141.382293 c 3.090839,-1.470961 17.942681,-8.426003 33.004081,-15.455649 39.65295,-18.507308 87.63249,-41.086113 87.92162,-41.375236 0.15555,-0.155562 -0.2346,-0.490889 -1.03997,-0.893821 -0.70892,-0.354671 -29.0195,-13.479912 -62.91238,-29.167201 -55.056368,-25.48278 -61.696537,-28.49338 -62.309372,-28.25057 -0.377267,0.14948 -28.90375,12.92318 -63.392187,28.38602 -34.488438,15.462838 -63.233086,28.34207 -63.876997,28.62052 -0.997627,0.431408 -1.114999,0.5588 -0.79375,0.861499 0.207349,0.195376 6.68731,3.301458 14.399914,6.902403 12.839615,5.994699 107.267638,50.319825 111.25729,52.224891 0.945886,0.451662 1.810298,0.821299 1.920918,0.821412 0.110617,1.14e-4 2.729992,-1.203306 5.820833,-2.674268 z M 75.266124,-51.649025 C 74.21708,-51.807331 35.139866,-71.502631 34.2635,-72.314751 c -1.071499,-0.99295 -1.016247,-2.384386 0.134699,-3.392126 0.474268,-0.415255 1.367237,-0.981453 1.984375,-1.258215 0.61714,-0.276765 1.122071,-0.576323 1.122071,-0.665689 0,-0.08937 -1.756172,-1.037048 -3.902604,-2.105959 -5.513649,-2.745767 -7.248736,-3.808132 -9.198663,-5.632191 -5.487008,-5.13283 -4.37638,-11.389548 2.87723,-16.208869 8.832387,-5.86827 24.649398,-8.11294 38.137579,-5.41231 4.160395,0.833 6.97815,1.88596 13.145936,4.91247 l 5.737604,2.815419 1.863971,-0.833449 c 2.587043,-1.15676 5.056883,-1.53304 7.458855,-1.13637 1.658215,0.27385 4.197583,1.469264 21.497397,10.119931 12.04022,6.020641 19.94919,10.125599 20.47697,10.628066 1.14301,1.088216 1.18104,2.319224 0.10275,3.326496 -0.78905,0.737084 -51.977576,24.663181 -54.190017,25.329026 -1.139997,0.34309 -4.518088,0.440177 -6.245529,0.179496 z m 4.787984,-13.577668 c 3.155477,-0.395664 5.701181,-1.412799 7.220652,-2.885012 2.247309,-2.177418 2.313844,-4.607211 0.216881,-7.920392 -1.467413,-2.318494 -1.386086,-3.10056 0.416129,-4.001667 1.152469,-0.576236 1.663811,-0.660173 3.96875,-0.651481 2.190408,0.0083 2.886601,0.11706 4.044608,0.632074 1.733635,0.771019 2.547631,1.700842 2.14598,2.451333 -0.346347,0.647155 -1.70058,1.231757 -3.351699,1.446884 -1.434539,0.186907 -1.912848,0.479806 -1.912848,1.171361 0,0.842073 0.882042,1.090499 2.700851,0.760685 2.754842,-0.499547 4.226412,-1.487625 4.705988,-3.159816 0.69348,-2.418 -2.134653,-4.711224 -6.586577,-5.340808 -3.762571,-0.532098 -7.3835,0.482018 -8.715195,2.440869 -0.905367,1.331751 -0.693881,2.812714 0.748347,5.24034 2.251766,3.790286 1.266785,5.898947 -3.436747,7.357436 -2.311707,0.716822 -8.205954,0.648795 -11.1125,-0.128251 -2.466615,-0.659432 -5.570855,-2.368836 -6.438352,-3.545391 -0.674722,-0.915101 -0.675217,-2.146736 -0.0013,-3.06297 1.121627,-1.524762 4.997156,-2.950292 8.052218,-2.961839 1.942158,-0.0073 2.817104,-1.59808 1.114079,-2.025512 -1.775505,-0.445624 -7.052295,0.802799 -9.121455,2.158021 -2.48031,1.624507 -3.29202,4.325972 -1.975057,6.5732 1.542653,2.63234 6.060038,4.850466 11.061261,5.431301 2.792278,0.324292 3.800986,0.327456 6.255914,0.01963 z m 0.78353,-3.417163 c 1.683914,-0.739847 2.483802,-1.777746 2.642438,-3.428699 0.104357,-1.086056 -0.04131,-1.535885 -1.232712,-3.806542 -1.899909,-3.621 -1.794158,-4.737232 0.579374,-6.115418 3.246107,-1.884841 9.565979,-2.226482 14.606032,-0.789572 2.039601,0.581486 4.94804,2.273546 5.6224,3.270978 1.80954,2.676467 -0.47407,4.906023 -5.987552,5.845826 -2.785533,0.474811 -3.676316,0.919726 -3.381197,1.688796 0.274354,0.714954 0.924263,0.771628 3.709548,0.323477 3.237431,-0.520904 6.164431,-1.871433 7.401771,-3.415213 1.15484,-1.440855 1.2907,-3.44275 0.34337,-5.059259 -1.94466,-3.318309 -7.597887,-5.507909 -14.322924,-5.547533 -3.925003,-0.02312 -5.873871,0.372571 -8.575566,1.741186 -2.244108,1.136812 -3.249477,2.389468 -3.402933,4.239946 -0.106077,1.279157 0.0016,1.628079 1.234786,3.99951 1.857793,3.57269 1.77673,4.329949 -0.568409,5.30981 -1.465705,0.612412 -5.107231,0.542345 -6.912242,-0.132996 -4.050295,-1.515409 -3.619731,-3.241535 0.999762,-4.008041 2.255184,-0.374202 2.941656,-0.867208 2.294051,-1.647528 -0.459957,-0.554212 -2.897647,-0.556935 -4.755179,-0.0053 -0.781452,0.232066 -1.819124,0.804045 -2.363126,1.302586 -0.868785,0.796184 -0.969893,1.026647 -0.969893,2.210773 0,1.504096 0.556538,2.286966 2.394439,3.368223 2.610736,1.53592 7.898188,1.861302 10.643762,0.654997 z M 60.631565,-88.632723 c 5.323895,-2.473854 9.68017,-4.590333 9.680612,-4.703286 0.0013,-0.356071 -9.582026,-4.935019 -11.24399,-5.372367 -2.51129,-0.660848 -8.256307,-0.792737 -11.105986,-0.254961 -8.004471,1.510565 -11.780615,5.689595 -8.259747,9.141005 0.867037,0.849932 10.389346,5.850163 10.941892,5.745666 0.169074,-0.03198 4.663323,-2.082202 9.987219,-4.556057 z"
           id="path15463" />
        <path
           style="fill:#8c8c8c;stroke-width:0.264583"
           d="m 74.943187,147.23274 c -0.582084,-0.13964 -1.594115,-0.45188 -2.248959,-0.69389 -1.011915,-0.37399 -128.360573,-67.137695 -131.762498,-69.077716 -4.034722,-2.300888 -6.537579,-5.550561 -7.662469,-9.948831 -0.514567,-2.011942 -0.544274,-3.847576 -1.057582,-65.349225 -0.699571,-83.81873 -0.701963,-85.105203 -0.161869,-87.067239 1.140624,-4.143637 3.962514,-7.663278 7.691295,-9.593089 3.115344,-1.612325 133.190333,-59.78546 134.420008,-60.11634 3.09754,-0.8335 7.025433,-0.5379 10.018276,0.75393 2.12095,0.91549 127.058451,58.826939 128.876301,59.737174 4.03534,2.020578 7.18835,6.381594 7.94874,10.99411 0.28628,1.736648 0.44357,16.713177 0.78968,75.1935725 0.39642,66.9816115 0.39711,73.1761745 0.008,74.8516805 -0.96991,4.180885 -3.33536,7.578082 -6.77733,9.733357 C 212.936,77.95817 84.464422,146.20775 83.144836,146.71046 c -1.792401,0.68286 -6.328502,0.9717 -8.202083,0.52228 z M 142.82379,97.876676 C 177.48759,79.423372 206.09,64.129962 206.38472,63.891319 l 0.53583,-0.433896 -0.30496,-55.1429887 c -0.41325,-74.7257013 -0.5544,-87.2898653 -0.98059,-87.2898653 -0.35134,0 -40.70946,19.765696 -89.6814,43.922153 -15.71625,7.752376 -30.385763,14.960994 -32.598918,16.019148 -3.249755,1.553776 -4.048389,2.043001 -4.151103,2.542873 -0.06995,0.340424 -0.200583,33.823247 -0.290301,74.406273 -0.162414,73.467994 -0.160851,73.786734 0.361154,73.650214 0.28835,-0.0754 28.885558,-15.23524 63.549358,-33.688554 z M 76.45441,125.67978 C 76.412458,122.76937 76.143982,104.07655 75.857798,84.140199 75.571614,64.203845 75.159603,35.986031 74.942218,21.433947 74.724834,6.8818637 74.546825,-7.6507706 74.546642,-10.860796 c -2.4e-4,-4.261628 -0.08957,-5.95311 -0.33106,-6.268922 -0.181901,-0.237881 -3.783541,-2.090017 -8.003645,-4.115858 -7.827563,-3.757586 -58.3178362,-28.485678 -97.325841,-47.666255 -14.28337,-7.023259 -21.74413,-10.558836 -21.91681,-10.386156 -0.172683,0.172683 -0.073,22.721476 0.292825,66.239577 0.305046,36.287778 0.553312,68.389955 0.551706,71.338178 -0.0026,4.842362 0.04324,5.399924 0.474716,5.769367 0.96911,0.829778 127.202405,67.031805 127.712987,66.978035 0.512506,-0.054 0.526764,-0.22233 0.45289,-5.34739 z m 5.899409,-149.376842 c 2.763631,-1.320441 18.121661,-8.515113 34.128951,-15.988158 62.87577,-29.353728 87.57708,-41.064046 87.57708,-41.518275 0,-0.323662 -16.25552,-7.96821 -62.57396,-29.426895 -34.41567,-15.9443 -62.783313,-29.05094 -63.039199,-29.12586 -0.723236,-0.21177 -129.612566,57.625012 -129.517499,58.118658 0.04502,0.233773 6.35113,3.331287 15.552153,7.639104 25.31664,11.852973 105.168749,49.357051 108.74205,51.072795 1.81901,0.873408 3.48692,1.597334 3.706466,1.608724 0.219543,0.01138 2.660324,-1.059653 5.423958,-2.380093 z m -7.675216,-28.397291 c -1.677029,-0.531805 -39.952784,-19.947129 -40.486239,-20.536591 -0.66384,-0.733534 -0.607902,-1.979401 0.123843,-2.758306 0.332158,-0.353565 1.244971,-0.946369 2.028471,-1.317339 0.783502,-0.370972 1.424551,-0.794351 1.424551,-0.940845 0,-0.146495 -1.815703,-1.17402 -4.034896,-2.283391 -7.623773,-3.811114 -9.927503,-5.525654 -11.588448,-8.624639 -0.781056,-1.457288 -0.893554,-1.91206 -0.902685,-3.649134 -0.0086,-1.638194 0.114896,-2.23824 0.707954,-3.439583 2.6103,-5.287599 10.374127,-9.523059 20.868134,-11.384359 4.101897,-0.72754 12.805085,-1.00282 17.189784,-0.54372 6.909718,0.72349 10.503384,1.83108 18.297834,5.63949 l 6.00955,2.936302 1.795658,-0.827254 c 2.51156,-1.157068 5.066125,-1.558298 7.511495,-1.179798 1.741865,0.26962 3.753085,1.217371 21.518431,10.140164 10.77834,5.41351 19.9244,10.146594 20.32458,10.517963 0.9519,0.883356 0.97866,2.105083 0.0661,3.017639 -0.68345,0.683459 -50.177476,23.877535 -53.313492,24.983975 -1.97944,0.698379 -5.733296,0.822548 -7.540625,0.249426 z m 6.260579,-12.967129 c 4.240083,-0.815806 6.606199,-2.168322 7.726595,-4.416666 1.101162,-2.209742 0.86074,-3.834876 -1.017513,-6.877886 -0.532,-0.861907 -0.929288,-1.821509 -0.882991,-2.132757 0.130524,-0.877533 1.274953,-1.547151 3.210962,-1.878777 4.563279,-0.781656 10.044035,1.836992 6.941407,3.316534 -0.501602,0.239197 -1.521513,0.515758 -2.266469,0.614579 -1.53666,0.203846 -2.113195,0.641443 -2.113195,1.603947 0,0.491598 0.200766,0.741323 0.76817,0.955495 0.726141,0.274087 0.746654,0.322784 0.374933,0.890103 -0.517826,0.790303 -0.226724,1.638687 0.63663,1.855375 0.895138,0.224663 4.41783,-0.321146 6.353129,-0.984361 4.34795,-1.490017 6.39749,-4.727387 4.93885,-7.801234 -1.01676,-2.14266 -4.50263,-4.317532 -8.706087,-5.431828 -2.900725,-0.768953 -8.741452,-0.853987 -11.244791,-0.163713 -4.89104,1.348663 -7.14375,3.355676 -7.14375,6.364597 0,1.095843 0.382481,2.019879 2.287944,5.527426 0.678725,1.249387 0.383913,2.104361 -0.965028,2.798636 -1.05709,0.544065 -1.487739,0.602925 -3.839776,0.524809 -2.246799,-0.07462 -2.875814,-0.198882 -4.141531,-0.818139 -0.820809,-0.401585 -1.559718,-0.905637 -1.642022,-1.120122 -0.404972,-1.055333 0.594508,-1.62184 3.508766,-1.98878 1.897586,-0.23893 2.67498,-0.639855 2.67498,-1.379567 0,-0.59744 -0.598178,-1.228066 -1.314006,-1.385287 -0.767929,-0.168666 -0.777882,-0.190682 -0.368646,-0.815258 0.385302,-0.588047 0.384228,-0.69741 -0.01281,-1.303366 -0.367011,-0.560131 -0.636836,-0.661459 -1.761376,-0.661459 -2.162032,0 -5.268926,0.757328 -7.39108,1.801625 -1.602552,0.788609 -2.149832,1.224074 -2.844271,2.263172 -1.515202,2.26722 -1.110139,4.695071 1.12744,6.757601 3.532084,3.255762 11.257481,5.010486 17.105535,3.885301 z m -0.469186,-3.06677 c 3.574352,-1.395926 4.265687,-4.081026 2.034403,-7.901512 -1.408499,-2.411685 -1.616678,-3.58908 -0.81452,-4.606694 1.029563,-1.3061 3.798493,-2.335663 7.143933,-2.656309 1.553442,-0.148891 1.264528,0.110723 -0.663927,0.596591 -1.538346,0.38758 -3.233471,1.580774 -3.728863,2.624735 -0.634347,1.336786 -0.35887,2.885718 0.888129,4.993738 1.316858,2.226115 1.538208,3.168092 1.030171,4.383993 -0.602678,1.442416 -4.065508,3.11813 -6.370928,3.082988 -0.746728,-0.01138 -0.708083,-0.05291 0.481602,-0.51753 z m -10.157018,-0.233614 c -2.121736,-0.685974 -3.702862,-1.545693 -4.828645,-2.625521 -1.918851,-1.840524 -1.066255,-3.885914 2.118812,-5.083056 0.835565,-0.314055 2.174052,-0.624121 2.974417,-0.689033 l 1.455208,-0.118023 -1.375434,0.551942 c -2.49157,0.999829 -3.506163,2.409447 -3.139808,4.362281 0.236848,1.262515 1.032383,2.086552 3.060034,3.169663 1.923621,1.027544 1.866505,1.120743 -0.264584,0.431747 z m 27.806044,-6.352035 c 1.751105,-0.933066 2.431818,-1.856843 2.464678,-3.344733 0.0347,-1.56928 -0.975296,-2.768809 -3.31797,-3.940802 -2.090941,-1.046056 -2.0805,-1.149262 0.05287,-0.522634 3.48661,1.024112 6.06729,3.034334 6.06729,4.726117 0,1.649519 -2.5213,3.318765 -5.625132,3.724156 l -1.12174,0.146511 z m -37.25849,-13.786485 c 5.271606,-2.451979 9.618163,-4.619361 9.659012,-4.816401 0.105936,-0.510969 -9.380477,-5.120521 -11.715941,-5.692905 -2.847115,-0.69778 -9.88083,-0.618852 -12.658182,0.142039 -7.071529,1.93734 -9.929627,5.88573 -6.640994,9.174364 1.106652,1.106651 10.633215,5.986687 11.301939,5.789483 0.258186,-0.07614 4.782561,-2.144599 10.054166,-4.59658 z"
           id="path15461" />
        <path
           style="fill:#7e7e7e;stroke-width:0.264583"
           d="m 76.323568,147.20343 c -0.987041,-0.1233 -2.415791,-0.43627 -3.175,-0.69546 -1.529657,-0.52223 -131.934539,-68.977541 -133.656159,-70.162047 -2.774772,-1.909095 -5.017222,-5.074906 -5.955217,-8.407365 l -0.578316,-2.054609 -0.634833,-73.8187525 c -0.429266,-49.9154545 -0.550143,-74.3559015 -0.37329,-75.4775865 0.684553,-4.341829 3.211229,-8.084236 7.085753,-10.495127 1.23997,-0.771562 132.045592,-59.405603 134.450033,-60.267663 2.287889,-0.82027 5.778974,-0.92566 8.244194,-0.24888 1.293657,0.35516 24.849247,11.12725 65.219787,29.82537 34.75712,16.09818 64.20625,29.764113 65.44254,30.368736 3.16765,1.549175 5.62872,3.996581 7.09182,7.05244 0.59221,1.236927 1.19959,2.903802 1.34966,3.704166 0.17608,0.93889 0.43394,27.56201 0.72673,75.0353388 0.42516,68.9341202 0.42574,73.6939222 0.009,75.3822942 -0.90048,3.648951 -2.68526,6.551227 -5.23589,8.514152 -1.44384,1.111163 -128.608569,69.021393 -132.25122,70.626593 -1.084832,0.47805 -2.632644,0.94049 -3.439584,1.02765 -0.806939,0.0871 -1.705287,0.19367 -1.996329,0.23672 -0.291041,0.043 -1.336746,-0.0228 -2.323785,-0.14597 z M 143.20899,97.929638 c 34.92318,-18.590372 63.60195,-33.903956 63.73059,-34.030186 0.13544,-0.132913 0.0499,-30.218944 -0.20323,-71.4813727 -0.35309,-57.5582643 -0.503,-71.3177863 -0.78012,-71.5949003 -0.28099,-0.281001 -0.98595,-0.02511 -3.89784,1.414904 -1.95514,0.96687 -16.59213,8.158237 -32.52666,15.980813 -15.93453,7.822576 -42.00922,20.653823 -57.94375,28.513882 -15.934533,7.860057 -29.770873,14.652385 -30.747427,15.094059 -1.314997,0.594747 -1.809477,0.962986 -1.906346,1.419659 -0.157838,0.744091 -0.606349,147.838384 -0.452324,148.343974 0.06106,0.2004 0.351848,0.30779 0.669197,0.24712 0.308671,-0.059 29.13473,-15.31758 64.05791,-33.907952 z M 76.726595,131.0376 c 0.06613,-0.1819 -0.08747,-14.08245 -0.341326,-30.89011 C 76.131412,83.339835 75.663057,50.240459 75.34448,26.593323 75.025901,2.9461864 74.718682,-16.649576 74.661773,-16.952814 c -0.0786,-0.418804 -1.138486,-1.047904 -4.408945,-2.616944 -5.907222,-2.834058 -77.1880408,-37.747447 -102.317824,-50.115334 -11.269189,-5.546249 -20.643093,-10.084089 -20.830897,-10.084089 -0.187804,0 -0.400796,0.267891 -0.473313,0.595313 -0.211125,0.95323 1.046109,143.026571 1.267729,143.259497 0.467974,0.491844 127.625588,67.231841 128.140835,67.256051 0.311854,0.0146 0.621109,-0.12218 0.687237,-0.30408 z M 81.59084,-23.043153 c 2.310143,-1.106312 16.523232,-7.762719 31.58464,-14.792018 40.09337,-18.711951 91.11022,-42.717399 91.40219,-43.00835 0.16118,-0.160597 0.11308,-0.390994 -0.13229,-0.633638 -0.30213,-0.298815 -118.844181,-55.349151 -124.90469,-58.005121 l -1.487916,-0.65207 -64.525625,28.89612 c -35.489097,15.892867 -64.67562,29.082658 -64.858945,29.31065 -0.268033,0.333343 -0.268033,0.473413 0,0.715158 0.183325,0.165341 7.417536,3.60952 16.076025,7.653727 16.225224,7.578476 98.920215,46.395752 107.156249,50.299462 2.546615,1.207046 4.823683,2.202035 5.060154,2.211089 0.236469,0.009 2.320062,-0.888698 4.630208,-1.995009 z m -5.540322,-28.967044 c -1.25994,-0.186367 -5.1313,-2.033582 -21.381614,-10.20222 -12.588462,-6.327916 -20.03054,-10.212928 -20.355769,-10.626389 -0.281961,-0.358455 -0.512656,-0.857748 -0.512656,-1.109541 0,-0.795232 1.079478,-1.871337 2.616274,-2.608101 0.816623,-0.391502 1.484767,-0.887572 1.484767,-1.102379 0,-0.240657 -1.982282,-1.406083 -5.164624,-3.036395 -5.951043,-3.048715 -7.084422,-3.785558 -8.931677,-5.80675 -3.302183,-3.613113 -3.226194,-7.96857 0.206941,-11.861388 3.070847,-3.48202 9.594146,-6.59777 16.972904,-8.10685 8.287901,-1.69501 18.772555,-1.54641 26.44357,0.37478 3.581667,0.89703 5.234381,1.56642 11.017636,4.46248 2.799821,1.40205 5.386035,2.549185 5.747144,2.549185 0.361109,0 1.31708,-0.292113 2.124385,-0.649142 2.072068,-0.916363 4.327829,-1.299873 6.697027,-1.138553 l 2.036694,0.13866 19.93712,10.018791 c 19.0657,9.580877 21.20559,10.768812 21.20559,11.772019 0,0.935392 -0.92736,1.857936 -2.72525,2.711111 -9.19624,4.36399 -51.057548,23.701654 -51.778918,23.919062 -1.399173,0.42168 -3.917358,0.556361 -5.639544,0.30162 z m 6.54893,-13.085139 c 4.775004,-1.303126 7.454878,-4.225875 6.923222,-7.550666 -0.180364,-1.127935 -1.172027,-3.284937 -2.066322,-4.494538 -1.191995,-1.61226 0.05555,-2.742081 3.367696,-3.049913 2.892425,-0.268822 6.741017,0.959964 6.741017,2.152285 0,0.518189 -1.217289,1.093557 -2.781609,1.314767 -0.725689,0.102619 -1.587323,0.355013 -1.914745,0.560875 -0.770392,0.484373 -0.812712,1.809342 -0.07256,2.271577 0.416795,0.260295 0.492413,0.516218 0.373062,1.262603 -0.117435,0.734398 -0.03112,1.043442 0.400534,1.434084 0.466889,0.422529 0.813427,0.473371 2.287982,0.335674 4.927775,-0.460161 8.849425,-2.334361 10.012325,-4.785003 0.23445,-0.494048 0.42626,-1.541576 0.42626,-2.327839 0,-4.295513 -5.97875,-7.807523 -14.155211,-8.314981 -6.059649,-0.376084 -11.762959,1.62142 -13.295312,4.656492 -0.979408,1.939878 -0.822555,3.271057 0.739354,6.27474 0.734068,1.411674 1.299615,2.799784 1.256771,3.08469 -0.04284,0.284906 -0.404768,0.761153 -0.804278,1.058325 -1.008814,0.750395 -4.80827,0.93952 -6.864696,0.341699 -1.431047,-0.416015 -2.859964,-1.299393 -2.859964,-1.76807 0,-0.531884 1.345975,-1.060905 3.328144,-1.30809 1.609243,-0.200678 2.203312,-0.391588 2.558835,-0.822309 0.654521,-0.792956 0.575811,-1.433536 -0.256592,-2.088306 -0.525892,-0.413665 -0.728475,-0.821232 -0.752534,-1.513967 -0.04359,-1.255178 -0.654865,-1.663668 -2.481027,-1.657964 -3.497342,0.01093 -8.019804,1.640086 -9.692555,3.491622 -1.163698,1.288076 -1.435521,1.997255 -1.435521,3.745251 0,3.775049 4.661131,6.959942 11.857027,8.101759 2.110753,0.334928 7.28852,0.10613 9.160693,-0.404797 z m -0.351888,-3.649908 c 1.183611,-0.834494 1.823752,-2.136323 1.823752,-3.708887 0,-0.933183 -0.297514,-1.76924 -1.322917,-3.717597 -0.727604,-1.382512 -1.322917,-2.800988 -1.322917,-3.152167 0,-1.373328 2.042925,-2.793836 4.630209,-3.219529 l 1.058333,-0.174131 -1.033457,0.614291 c -1.42294,0.845799 -2.061366,1.803459 -2.206041,3.309126 -0.109132,1.135753 0.01762,1.54546 1.131359,3.657142 1.455671,2.759988 1.614757,4.001289 0.645088,5.033455 -0.674322,0.717783 -2.34075,1.585489 -3.564032,1.855782 l -0.79375,0.175387 z m -14.580415,-0.976842 c -2.979155,-1.619848 -3.752403,-3.469251 -2.050521,-4.904293 0.889611,-0.750131 1.936954,-1.267238 3.217704,-1.588685 0.703538,-0.176578 0.684752,-0.133509 -0.371536,0.851786 -1.864138,1.73885 -1.754547,4.042563 0.273484,5.749039 1.075547,0.905015 0.729475,0.870103 -1.069131,-0.107847 z m 31.83238,-5.540846 c 1.811955,-1.590919 1.859085,-3.702188 0.122643,-5.493743 -0.460897,-0.475525 -0.750364,-0.864589 -0.643261,-0.864589 0.508776,0 2.373493,1.159147 3.209333,1.994987 1.90306,1.903061 0.73209,3.850106 -3.015755,5.014455 -0.541399,0.168199 -0.490353,0.06657 0.32704,-0.65111 z M 60.918251,-88.322356 c 6.777133,-3.157696 9.814822,-4.701897 9.876184,-5.02053 0.06956,-0.361204 -0.954264,-0.969862 -4.760481,-2.830076 -6.380157,-3.118175 -7.883467,-3.51967 -13.183476,-3.52095 -3.56258,-7.94e-4 -4.434157,0.08782 -6.63812,0.675404 -3.958183,1.05527 -6.784986,2.769868 -7.7988,4.730367 -0.773917,1.496589 -0.419018,3.326484 0.901202,4.646705 1.011873,1.01187 10.270967,5.899346 11.154469,5.887961 0.363802,-0.0047 5.065863,-2.060684 10.449022,-4.568881 z"
           id="path15459" />
        <path
           style="fill:#747474;stroke-width:0.264583"
           d="m 74.996087,146.83584 c -1.053155,-0.20942 -2.863355,-0.89675 -4.365625,-1.65759 C 65.457573,142.5584 -57.668,77.83938 -59.348131,76.857067 c -2.197513,-1.284806 -3.678004,-2.721557 -5.118195,-4.966973 -1.480368,-2.308053 -1.975631,-3.836186 -2.289582,-7.064479 -0.142447,-1.464714 -0.504415,-34.899799 -0.81085,-74.898239 -0.431607,-56.336643 -0.484249,-72.597443 -0.23897,-73.818752 0.847223,-4.218519 3.84846,-8.277982 7.546833,-10.207816 3.799937,-1.98283 133.407918,-59.849608 134.805207,-60.187208 2.965942,-0.71661 6.902431,-0.37775 9.623477,0.82842 2.671239,1.18409 127.799831,59.180726 129.122541,59.847807 2.03589,1.026779 4.86873,4.050255 6.02705,6.432659 0.53065,1.091406 1.10262,2.579687 1.27106,3.307291 0.36263,1.566535 1.36302,146.724235 1.02983,149.429039 -0.57576,4.673854 -3.31001,8.794673 -7.37396,11.113421 -3.14161,1.79248 -129.421955,68.943133 -130.589225,69.441923 -2.562061,1.09482 -5.537636,1.34276 -8.660998,0.72168 z M 143.31102,98.105289 c 34.98294,-18.635314 63.7078,-34.065486 63.83305,-34.289271 0.3355,-0.599495 -0.51951,-141.89517 -0.86566,-143.056032 -0.15187,-0.509323 -0.61211,-1.3017 -1.02275,-1.760837 -0.59444,-0.664641 -13.5196,-6.753563 -63.41288,-29.873219 -34.46644,-15.97113 -63.023448,-29.08692 -63.46001,-29.14619 -0.617683,-0.0839 -15.083398,6.2969 -65.215042,28.76604 -41.824875,18.746029 -64.680406,29.122953 -65.160011,29.584108 -0.406294,0.390668 -0.951968,1.186556 -1.212604,1.76864 -0.455409,1.017061 -0.455626,3.317978 -0.0056,59.002085 0.257572,31.869063 0.562981,64.075471 0.678691,71.569794 l 0.210381,13.626042 64.029166,33.65771 c 35.216044,18.511751 64.326825,33.670811 64.690627,33.686821 0.363802,0.0161 0.899583,0.13642 1.190625,0.26755 0.291042,0.13112 0.886354,0.20256 1.322917,0.15877 0.436562,-0.0438 29.41615,-15.3267 64.39908,-33.962011 z M 75.075478,-52.346245 c -1.491083,-0.404008 -39.603296,-19.591309 -40.415104,-20.346673 -1.275982,-1.187265 -0.393525,-2.802726 2.116667,-3.874849 2.197725,-0.938663 1.900595,-1.288664 -3.307291,-3.895797 -8.320667,-4.165431 -10.632901,-6.133468 -11.708025,-9.965174 -0.610473,-2.175717 -0.217781,-4.045138 1.371553,-6.529279 2.421276,-3.784483 8.89327,-7.335593 16.646284,-9.133643 7.877889,-1.827 19.092029,-1.86896 26.671812,-0.0998 3.814723,0.89038 6.517389,1.95063 12.120383,4.7548 2.876462,1.439602 5.397193,2.617459 5.601623,2.617459 0.20443,0 1.210175,-0.356807 2.234988,-0.792906 1.024816,-0.436093 2.733924,-0.921283 3.798017,-1.078183 3.698021,-0.54528 3.619431,-0.57738 25.039215,10.22817 10.57586,5.335159 19.55626,10.005439 19.95644,10.378398 0.40779,0.380051 0.7276,0.960483 0.7276,1.320536 0,0.365575 -0.31356,0.924854 -0.7276,1.297773 -0.83706,0.753936 -51.616173,24.41451 -53.769659,25.054027 -1.66507,0.494471 -4.659087,0.525145 -6.356903,0.06512 z m 5.55625,-0.291361 c 2.148377,-0.469585 53.872792,-24.453049 54.570312,-25.303045 0.25466,-0.310329 0.46302,-0.716449 0.46302,-0.902488 0,-0.186039 -0.20836,-0.577035 -0.46302,-0.868881 -0.25466,-0.291846 -9.41366,-5.02063 -20.35334,-10.508412 l -19.890319,-9.977778 -2.249805,-0.14037 c -2.580724,-0.161 -3.986636,0.11927 -6.60074,1.315884 l -1.799934,0.82392 -6.269858,-3.069674 c -6.485159,-3.17508 -7.380959,-3.5294 -11.164649,-4.41602 -4.710295,-1.10374 -7.613578,-1.41078 -13.361458,-1.41302 -6.141844,-0.002 -9.193236,0.34734 -14.552083,1.66795 -6.637899,1.6358 -11.281527,3.96738 -14.324428,7.192352 -1.774672,1.88086 -2.515373,3.37506 -2.678118,5.40253 -0.162875,2.029082 0.342797,3.632835 1.716813,5.444919 1.534832,2.024171 3.549179,3.365272 9.728739,6.477159 3.764968,1.895951 5.686311,3.003502 5.687497,3.278537 0.0011,0.259945 -0.793922,0.793199 -2.12494,1.425257 -1.1697,0.55545 -2.251388,1.242838 -2.403748,1.527527 -0.741349,1.385223 -1.080378,1.18419 19.809563,11.746429 13.019685,6.582929 20.275473,10.109108 21.233413,10.319047 1.955342,0.428529 2.987183,0.42405 5.027083,-0.02183 z m -10.31875,-28.937539 c 0,-0.668861 3.169769,-2.427369 4.37542,-2.427369 0.610299,0 0.45099,0.826577 -0.191701,0.994645 -0.318328,0.08325 -1.241063,0.48731 -2.050521,0.897919 -1.506283,0.764088 -2.133198,0.921261 -2.133198,0.534805 z m -25.161956,-4.020026 c -5.636467,-2.856164 -7.085113,-3.995891 -7.624355,-5.998475 -0.875509,-3.251396 2.728592,-6.535513 8.85222,-8.066294 3.32428,-0.831 9.841444,-0.83234 12.890791,-0.0027 2.756355,0.749967 12.469293,5.620845 12.574698,6.306005 0.06351,0.412843 -1.701871,1.320319 -10.609736,5.453833 -5.877256,2.727219 -10.733572,4.953378 -10.791812,4.947015 -0.05824,-0.0063 -2.439553,-1.194102 -5.291806,-2.639423 z m 15.663103,-2.544784 c 8.74061,-4.067503 10.02802,-4.741323 10.02802,-5.24859 0,-0.493638 -0.766125,-0.953809 -5.047078,-3.031511 -6.456473,-3.133561 -8.306374,-3.578744 -14.002922,-3.369837 -4.457919,0.163486 -6.4457,0.591381 -9.416282,2.026976 -4.738908,2.290173 -5.914748,5.748192 -2.866838,8.43107 1.133423,0.997677 10.155026,5.830165 10.920204,5.849488 0.196281,0.0049 4.869484,-2.090963 10.384896,-4.657596 z"
           id="path15457" />
      </g>
    </g>
  </g>
</svg>
