<?xml version="1.0" encoding="UTF-8" standalone="no"?>
<!-- Created with Inkscape (http://www.inkscape.org/) -->

<svg
   width="3in"
   height="3in"
   viewBox="0 0 76.200001 76.200002"
   version="1.1"
   id="svg5"
   inkscape:version="1.1.1 (3bf5ae0d25, 2021-09-20)"
   sodipodi:docname="Jira.svg"
   inkscape:export-filename="C:\Users\aaron\Documents\Aaron\Inkscape\Platform One App\finals\Jira.png"
   inkscape:export-xdpi="600"
   inkscape:export-ydpi="600"
   xmlns:inkscape="http://www.inkscape.org/namespaces/inkscape"
   xmlns:sodipodi="http://sodipodi.sourceforge.net/DTD/sodipodi-0.dtd"
   xmlns="http://www.w3.org/2000/svg"
   xmlns:svg="http://www.w3.org/2000/svg">
  <sodipodi:namedview
     id="namedview7"
     pagecolor="#505050"
     bordercolor="#eeeeee"
     borderopacity="1"
     inkscape:pageshadow="0"
     inkscape:pageopacity="0"
     inkscape:pagecheckerboard="0"
     inkscape:document-units="mm"
     showgrid="false"
     units="in"
     width="3in"
     inkscape:zoom="0.45291836"
     inkscape:cx="806.9887"
     inkscape:cy="-62.925248"
     inkscape:window-width="1920"
     inkscape:window-height="1191"
     inkscape:window-x="2645"
     inkscape:window-y="1791"
     inkscape:window-maximized="1"
     inkscape:current-layer="layer1" />
  <defs
     id="defs2" />
  <g
     inkscape:label="Layer 1"
     inkscape:groupmode="layer"
     id="layer1">
    <g
       id="g92147">
      <rect
         style="fill:#1a5182;fill-opacity:1;stroke:#000000;stroke-width:0.894;stroke-miterlimit:4;stroke-dasharray:none;stroke-opacity:1"
         id="rect13049"
         width="73.038864"
         height="73.038864"
         x="1.5805664"
         y="1.5805658"
         ry="14.259517"
         rx="14.259517" />
      <path
         style="fill:#ffffff;stroke-width:0.0943206"
         d="m 23.537437,68.085803 c -0.143468,-0.0946 -0.322507,-0.253488 -0.397862,-0.35308 -0.481922,-0.636923 0.431119,-5.820831 1.410748,-8.009696 0.06965,-0.155632 0.198125,-0.473961 0.2855,-0.707407 0.509732,-1.361894 1.595654,-3.400082 2.892208,-5.428438 0.548599,-0.858238 0.927115,-1.174015 1.407272,-1.174015 0.283443,0 0.75435,0.27112 1.025534,0.590441 0.347736,0.409465 0.580601,0.667124 1.554843,1.720418 0.479829,0.518765 1.016928,1.112392 1.193554,1.319173 0.176625,0.206777 0.484463,0.546332 0.684082,0.754563 0.401074,0.418382 1.456385,1.767713 1.64137,2.098677 0.23837,0.426481 0.143989,1.030995 -0.30654,1.963428 -0.233446,0.483141 -0.424445,0.923721 -0.424445,0.979069 0,0.05535 -0.03223,0.10063 -0.07158,0.10063 -0.03937,0 -0.170073,0.286499 -0.290445,0.636662 -0.120372,0.350168 -0.254133,0.721557 -0.29725,0.825309 -0.292278,0.703308 -0.755156,2.745192 -0.756061,3.335191 -0.0011,0.628299 -0.172387,1.033237 -0.544432,1.286048 l -0.347719,0.23628 -4.198957,-7.13e-4 c -3.904762,-7.13e-4 -4.217238,-0.01269 -4.459817,-0.172629 z m 20.050021,-0.02282 c -0.358081,-0.229367 -0.474742,-0.542564 -0.595071,-1.597611 -0.09169,-0.803948 -0.331483,-1.971845 -0.474132,-2.309257 -0.04387,-0.103753 -0.106102,-0.294752 -0.138307,-0.424442 -0.03219,-0.12969 -0.115897,-0.384358 -0.185983,-0.565925 -0.537473,-1.392395 -0.678168,-1.73128 -0.972934,-2.343448 -0.183488,-0.38106 -0.432951,-0.839222 -0.554367,-1.018136 -0.121416,-0.178918 -0.220755,-0.346072 -0.220755,-0.371457 0,-0.04612 -0.864106,-1.415735 -1.008391,-1.59831 -0.04196,-0.0531 -0.223168,-0.307771 -0.402674,-0.565925 -0.179502,-0.258158 -0.375785,-0.51182 -0.436177,-0.563696 -0.06039,-0.05188 -0.414414,-0.489098 -0.786708,-0.971608 -0.372299,-0.482507 -0.770239,-0.988238 -0.884312,-1.123843 -0.916919,-1.089994 -2.196696,-2.503491 -3.60718,-3.984082 -0.521085,-0.546991 -1.429448,-1.503858 -2.018584,-2.126375 -0.589135,-0.622517 -1.73323,-1.792297 -2.542436,-2.599511 -1.357257,-1.353916 -3.062916,-3.146094 -4.073976,-4.280623 -0.228566,-0.256477 -0.479241,-0.534849 -0.557055,-0.618606 -0.226477,-0.243768 -1.086248,-1.243312 -1.379024,-1.603214 -0.147704,-0.181567 -0.291554,-0.351345 -0.31967,-0.377283 -0.02813,-0.02594 -0.197476,-0.23816 -0.376362,-0.471604 -0.178886,-0.233444 -0.347807,-0.445665 -0.375382,-0.471604 -0.02756,-0.02594 -0.174982,-0.216937 -0.327573,-0.424443 -0.152595,-0.207506 -0.304986,-0.398505 -0.338653,-0.424443 -0.03365,-0.02594 -0.266881,-0.344271 -0.518255,-0.707406 -0.25137,-0.363135 -0.597459,-0.86142 -0.76908,-1.107301 -0.17162,-0.245881 -0.312037,-0.474933 -0.312037,-0.509002 0,-0.03407 -0.158894,-0.299783 -0.353094,-0.590472 -0.45885,-0.686829 -0.725842,-1.179872 -1.537572,-2.839386 -0.367935,-0.752208 -0.708495,-1.441352 -0.756806,-1.531432 -0.04831,-0.09008 -0.08927,-0.217413 -0.09103,-0.282963 -0.0018,-0.06555 -0.08521,-0.288958 -0.185441,-0.496464 -0.10023,-0.207505 -0.18368,-0.45435 -0.185442,-0.548545 -0.0018,-0.09419 -0.04875,-0.256379 -0.104429,-0.360411 -0.156074,-0.291632 -0.688132,-2.337941 -0.789763,-3.037467 -0.03648,-0.251105 -0.0871,-0.548215 -0.112476,-0.660245 -0.02538,-0.11203 -0.06734,-0.458357 -0.09326,-0.769615 -0.05951,-0.714757 0.157504,-1.107933 0.758179,-1.37364 0.407013,-0.180041 0.416773,-0.179976 1.011431,0.0068 0.330247,0.103743 0.685341,0.226737 0.789093,0.273319 0.103752,0.04658 0.464529,0.17714 0.801727,0.290127 0.337195,0.112987 0.686785,0.244467 0.776866,0.292176 0.09008,0.04771 0.238633,0.08656 0.330122,0.08632 0.09149,-1.89e-4 0.505895,0.103038 0.920908,0.229486 0.415009,0.126448 1.009231,0.3003 1.320488,0.386337 0.31126,0.08604 0.756927,0.213033 0.99037,0.282211 0.233443,0.06918 0.80101,0.216261 1.261258,0.326853 1.067107,0.256413 1.560116,0.569044 1.713206,1.086392 0.07531,0.254515 0.627265,1.579657 0.707161,1.697773 0.03508,0.05188 0.225037,0.391431 0.422103,0.754566 0.759088,1.39877 2.212147,3.513066 3.18255,4.630817 0.142659,0.164322 0.259384,0.329844 0.259384,0.367828 0,0.08103 0.825719,1.048895 1.367652,1.603083 0.207504,0.212201 0.780502,0.825019 1.273328,1.361819 0.492827,0.5368 1.706055,1.801299 2.696061,2.809997 l 1.800011,1.833999 h 0.438088 c 0.287836,0 0.527741,-0.06463 0.699487,-0.18845 0.279775,-0.201696 2.855222,-2.80846 2.855222,-2.88994 0,-0.02677 0.244055,-0.296694 0.542343,-0.599839 0.298291,-0.303145 0.889562,-0.92948 1.313932,-1.391856 0.424374,-0.462376 0.991703,-1.074127 1.26073,-1.359447 0.269028,-0.285321 0.728084,-0.815875 1.020123,-1.17901 0.292038,-0.363135 0.555344,-0.681467 0.585118,-0.707406 0.02977,-0.02594 0.239206,-0.301826 0.465395,-0.613085 0.226191,-0.311258 0.43941,-0.587147 0.473822,-0.613085 0.07693,-0.05799 0.927318,-1.338486 1.440696,-2.169377 0.428826,-0.694047 1.139539,-2.10546 1.51984,-3.018265 0.140488,-0.337196 0.305948,-0.677335 0.367692,-0.755863 0.181699,-0.231086 0.650487,-0.49845 1.00694,-0.574279 0.182322,-0.03879 0.564937,-0.134005 0.850255,-0.211597 0.285323,-0.07759 0.837098,-0.22715 1.226173,-0.332356 0.646273,-0.174751 1.176231,-0.325021 2.075055,-0.58838 0.181567,-0.0532 0.478678,-0.130054 0.660244,-0.170787 0.18157,-0.04073 0.903123,-0.277264 1.603454,-0.525628 0.700332,-0.248363 1.457619,-0.471465 1.682859,-0.495781 0.784623,-0.08471 1.33669,0.445321 1.333974,1.280716 -0.0021,0.660105 -0.313385,2.243768 -0.788402,4.011607 -0.176083,0.655317 -0.695447,2.060303 -1.039832,2.81296 -0.134966,0.294966 -0.245392,0.581465 -0.245392,0.636665 0,0.0552 -0.04244,0.100365 -0.09432,0.100365 -0.05188,0 -0.09441,0.05306 -0.09452,0.117901 -1.89e-4,0.12258 -0.582234,1.288221 -0.930148,1.862835 -0.109934,0.181568 -0.228381,0.393789 -0.263209,0.471604 -0.07841,0.175176 -0.71308,1.161629 -0.788898,1.22617 -0.03048,0.02594 -0.157681,0.216938 -0.282694,0.424444 -0.12501,0.207505 -0.271323,0.425137 -0.325142,0.483626 -0.05382,0.05849 -0.161518,0.201722 -0.239332,0.318295 -0.07781,0.116573 -0.560445,0.769049 -1.072512,1.449949 -0.852291,1.133298 -1.173294,1.530185 -1.814516,2.243475 -0.124054,0.138001 -0.225924,0.286556 -0.226377,0.330123 -3.57e-4,0.04357 -0.138392,0.227856 -0.306541,0.409534 -0.168148,0.181677 -0.624057,0.689074 -1.013131,1.12755 -1.02727,1.157706 -2.063434,2.241103 -4.244434,4.437912 -1.063468,1.071175 -1.995053,2.063331 -2.070194,2.204791 -0.103459,0.194772 -0.112764,0.318895 -0.03834,0.511388 0.0739,0.191117 1.610231,2.312459 2.369992,3.272452 0.04106,0.05188 0.177171,0.264098 0.302477,0.471603 0.125309,0.207508 0.252603,0.398507 0.28288,0.424445 0.04665,0.03996 0.684678,1.058866 0.992437,1.584874 0.09597,0.164024 0.624653,1.098817 1.104075,1.952153 0.240947,0.428869 0.481986,0.923393 0.896489,1.839257 0.08217,0.181566 0.18563,0.403861 0.229903,0.493985 0.200777,0.408728 0.97559,2.72828 1.209599,3.621165 0.10701,0.408303 0.235667,1.104799 0.285907,1.547767 0.05024,0.442968 0.134392,1.032371 0.187003,1.309783 0.05261,0.277415 0.09566,0.914712 0.09566,1.41622 0,0.907604 -0.0014,0.913225 -0.311036,1.213296 l -0.311032,0.301464 -4.287102,-0.0014 c -4.156236,-0.0014 -4.2963,-0.0075 -4.588264,-0.194497 z M 37.474806,34.384276 c -0.103755,-0.05622 -0.350844,-0.277758 -0.549091,-0.492316 -0.198246,-0.214559 -0.540004,-0.581107 -0.759462,-0.814551 -0.974192,-1.036284 -2.22088,-2.906771 -2.991044,-4.487659 -0.433899,-0.890656 -0.481337,-1.048158 -0.441271,-1.465122 0.07826,-0.814478 0.624456,-1.144855 1.675443,-1.013423 0.492089,0.06154 7.235247,0.04097 7.734301,-0.0236 0.602034,-0.07788 1.320492,0.53346 1.320492,1.123625 0,0.365555 -0.653431,1.778183 -1.355855,2.931174 -0.291811,0.478986 -0.530561,0.892151 -0.530561,0.918143 0,0.04821 -1.091381,1.50699 -1.269578,1.696969 -0.05394,0.0575 -0.368705,0.409349 -0.699476,0.781876 -0.330771,0.372527 -0.721271,0.73931 -0.867781,0.815073 -0.310786,0.160713 -0.99479,0.176815 -1.266117,0.02981 z M 24.061995,19.316043 c -1.244699,-0.322041 -2.36179,-1.345213 -2.786713,-2.552427 -0.148933,-0.423116 -0.177498,-0.7109 -0.150224,-1.513438 0.02966,-0.873226 0.06685,-1.056532 0.312819,-1.54269 0.353165,-0.698021 0.869976,-1.287826 1.336854,-1.525676 0.199822,-0.101802 0.38454,-0.208494 0.410478,-0.237096 0.02595,-0.0286 0.259381,-0.133495 0.518765,-0.233096 0.628802,-0.241457 1.982084,-0.251266 2.623327,-0.01901 0.480153,0.173908 1.428632,0.741109 1.671076,0.999323 0.254169,0.270702 0.714841,1.083584 0.862156,1.521327 0.341572,1.014963 0.157731,2.418175 -0.438684,3.348387 -0.433011,0.675357 -0.823458,1.021065 -1.596164,1.41327 -0.609284,0.309256 -0.770035,0.348359 -1.570122,0.381928 -0.490239,0.02057 -1.027345,0.0022 -1.193568,-0.0408 z m 26.119941,-0.0094 C 49.25311,19.10995 48.009969,18.143604 47.623971,17.31823 c -0.464479,-0.993192 -0.60851,-2.071978 -0.375881,-2.815319 0.308102,-0.984496 1.108467,-2.176074 1.461644,-2.176074 0.0719,0 0.130724,-0.03458 0.130724,-0.07685 0,-0.08743 0.495778,-0.336279 1.127525,-0.565933 0.637536,-0.231759 1.997758,-0.204045 2.550984,0.05198 1.670282,0.772974 2.488735,1.925379 2.538344,3.574064 0.05145,1.709818 -0.7212,2.92089 -2.432577,3.812911 -0.452626,0.235921 -1.739183,0.33264 -2.442798,0.18364 z M 37.427643,15.726024 c -1.614516,-0.273237 -2.872587,-1.484195 -3.237459,-3.11622 -0.07539,-0.337197 -0.127017,-0.697974 -0.114736,-0.801727 0.208524,-1.761405 0.934013,-2.8856256 2.294342,-3.555322 0.611003,-0.3007974 0.673773,-0.3118292 1.774362,-0.3118292 0.705568,0 1.191464,0.040585 1.273332,0.1063571 0.0728,0.058497 0.237556,0.1387062 0.366106,0.1782436 0.369674,0.1136979 1.166667,0.7588729 1.484964,1.2020965 0.639618,0.89065 0.922933,2.35898 0.642616,3.330474 -0.333516,1.155865 -0.77417,1.79903 -1.601322,2.337235 -0.867096,0.564197 -1.91726,0.793997 -2.882205,0.630692 z"
         id="path20554" />
    </g>
  </g>
</svg>
