<?xml version="1.0" encoding="UTF-8" standalone="no"?>
<!-- Created with Inkscape (http://www.inkscape.org/) -->

<svg
   width="3in"
   height="3in"
   viewBox="0 0 76.200001 76.200002"
   version="1.1"
   id="svg5"
   inkscape:version="1.1.1 (3bf5ae0d25, 2021-09-20)"
   sodipodi:docname="Terminus.svg"
   xmlns:inkscape="http://www.inkscape.org/namespaces/inkscape"
   xmlns:sodipodi="http://sodipodi.sourceforge.net/DTD/sodipodi-0.dtd"
   xmlns="http://www.w3.org/2000/svg"
   xmlns:svg="http://www.w3.org/2000/svg">
  <sodipodi:namedview
     id="namedview7"
     pagecolor="#505050"
     bordercolor="#eeeeee"
     borderopacity="1"
     inkscape:pageshadow="0"
     inkscape:pageopacity="0"
     inkscape:pagecheckerboard="0"
     inkscape:document-units="mm"
     showgrid="false"
     units="in"
     width="3in"
     inkscape:zoom="1"
     inkscape:cx="130.5"
     inkscape:cy="87.5"
     inkscape:window-width="1920"
     inkscape:window-height="1191"
     inkscape:window-x="2645"
     inkscape:window-y="1791"
     inkscape:window-maximized="1"
     inkscape:current-layer="layer1" />
  <defs
     id="defs2">
    <clipPath
       clipPathUnits="userSpaceOnUse"
       id="clipPath1225">
      <path
         style="fill:#000000;stroke-width:0.264583"
         d="M 175.87059,94.974238 C 139.62897,90.582329 111.31597,62.14709 107.13164,25.938515 c -0.81804,-7.0788 -0.42368,-17.2327068 0.94031,-24.210997 6.09378,-31.176204 30.67645,-55.757141 61.89781,-61.893456 9.27562,-1.82305 21.18009,-1.822241 30.42708,0.0021 31.13953,6.143421 55.47704,30.33 61.76216,61.3791288 1.0631,5.2518365 1.47326,9.6299662 1.47326,15.7257992 0,6.095833 -0.41016,10.473962 -1.47326,15.725799 -5.82616,28.78183 -27.3803,51.988204 -55.67674,59.944632 -3.33825,0.938652 -8.4532,1.926209 -12.31842,2.378347 -4.24388,0.496436 -14.13762,0.487998 -18.29325,-0.01561 z m 1.7218,-8.099234 c 0.1202,-1.040443 -0.79728,-1.485334 -1.53722,-0.745401 -0.73993,0.739934 -0.29504,1.657411 0.7454,1.537211 0.54756,-0.06326 0.72856,-0.244255 0.79182,-0.79181 z m 16.9426,0.06317 c 0.11781,-0.83461 -0.62239,-1.426115 -1.31845,-1.053598 -0.48431,0.2592 -0.67377,1.298594 -0.30408,1.66828 0.10369,0.103696 0.49065,0.153305 0.8599,0.110244 0.48258,-0.05628 0.69702,-0.260122 0.76263,-0.724926 z m -33.61398,-3.507325 c 0.74645,-0.746448 0.0185,-1.991849 -0.97919,-1.675201 -0.29058,0.09223 -0.60379,0.405434 -0.69601,0.696015 -0.31665,0.997673 0.92875,1.725634 1.6752,0.979186 z m 50.04891,-0.1925 c 0.34585,-0.646229 0.11077,-1.274522 -0.55605,-1.486162 -0.66775,-0.211937 -1.28578,0.307403 -1.28578,1.080468 0,0.968188 1.37831,1.271784 1.84183,0.405694 z m -16.8376,-3.851029 c 10.00342,-1.569778 18.32372,-4.790855 26.42941,-10.231742 12.03778,-8.080282 21.35181,-20.975211 25.30477,-35.033537 6.14434,-21.851717 0.10791,-45.339127 -15.79523,-61.45833 -20.75132,-21.03325 -53.22992,-24.850365 -78.35776,-9.209151 -5.27439,3.283128 -11.70989,9.01799 -15.69909,13.989926 -5.64445,7.034951 -9.78319,15.3363884 -11.93095,23.9309205 -2.34381,9.3790825 -2.60304,18.5104645 -0.78365,27.6041925 3.43761,17.181949 13.07269,31.374051 27.88452,41.072832 7.63616,5.000151 18.43644,8.760203 27.91354,9.717929 3.27405,0.330864 11.88276,0.111538 15.03444,-0.38304 z m -16.22506,-0.80287 c -8.78309,-1.087596 -17.91829,-4.262009 -25.12487,-8.730695 -28.07028,-17.40595 -37.74969,-52.941208 -22.3591,-82.085227 2.88546,-5.46399 6.16732,-9.848995 10.9529,-14.634581 5.31282,-5.31282 10.07721,-8.737187 16.55503,-11.898783 8.39441,-4.097028 16.06071,-5.975408 25.53229,-6.255872 10.9218,-0.323408 20.69743,1.904511 30.31739,6.909496 14.30496,7.442454 25.23788,20.267047 30.24618,35.4795541 4.3458,13.2001979 4.29638,26.2623409 -0.14994,39.6241849 -6.78706,20.396123 -24.81482,36.353003 -45.98063,40.698748 -6.21754,1.276577 -14.06228,1.627103 -19.98925,0.893175 z m 13.72438,-15.621958 c 15.35459,-2.254742 28.26645,-11.53691 35.1264,-25.251923 1.44669,-2.892343 3.3748,-8.254384 3.69452,-10.274414 0.1509,-0.953381 0.32688,-1.215913 1.04444,-1.55809 0.83785,-0.399542 1.44359,-1.2733 1.44359,-2.082319 0,-0.637027 -1.23873,-1.695315 -1.98437,-1.695315 -0.8824,0 -1.98438,1.102313 -1.98438,1.984981 0,0.402696 0.29021,0.955069 0.70253,1.337202 l 0.70253,0.651081 -0.7016,2.67709 c -2.25683,8.61137 -7.3206,16.836842 -13.93262,22.631868 -17.63682,15.457564 -43.5387,15.447516 -61.16831,-0.02373 -2.4036,-2.109332 -5.50832,-5.631487 -7.33447,-8.320609 -1.02992,-1.516626 -1.05757,-1.610979 -0.68277,-2.329579 0.52546,-1.007465 0.4984,-1.259367 -0.22571,-2.101191 -1.18078,-1.37273 -3.34916,-0.64176 -3.34916,1.129022 0,0.890992 1.11926,1.943036 2.06718,1.943036 0.6426,0 0.93253,0.248936 1.77188,1.521354 5.96605,9.044268 16.55081,16.335193 27.51406,18.952057 5.20551,1.242523 12.13787,1.566966 17.29626,0.809482 z m -29.86397,-22.07664 c 0,-0.145521 -0.0525,-0.264581 -0.11667,-0.264581 -0.0642,0 -0.19026,0.11906 -0.2802,0.264581 -0.0899,0.145523 -0.0374,0.264586 0.11668,0.264586 0.1541,0 0.28019,-0.119063 0.28019,-0.264586 z M 141.03947,9.7797707 c 0.5477,-0.547693 0.64755,-0.8418885 0.51635,-1.5213544 -0.0895,-0.463296 -0.41565,-1.0523641 -0.72486,-1.3090419 -0.55653,-0.4619678 -0.55759,-0.48337 -0.10499,-2.1166667 3.02152,-10.9037122 9.78946,-20.1723127 19.32191,-26.4610697 12.77824,-8.430067 29.10187,-9.814107 43.39167,-3.679071 7.03831,3.021756 13.82737,8.283874 18.22344,14.124776 1.47427,1.9588087 1.51799,2.062311 1.11437,2.6385603 -0.92115,1.3151194 -0.0109,3.1278647 1.57064,3.1278647 2.31033,0 2.32388,-3.6648683 0.014,-3.7962578 -0.54721,-0.031125 -1.01704,-0.4582795 -2.08134,-1.8922842 -6.04914,-8.150426 -15.60661,-14.465141 -25.80498,-17.049594 -6.24026,-1.581396 -14.34111,-1.754886 -20.57123,-0.440558 -14.21015,2.997825 -25.88543,11.950036 -32.29348,24.7615506 -1.34604,2.6911246 -3.52718,8.6197228 -3.53527,9.6092909 -0.002,0.291637 -0.35949,0.625094 -0.9204,0.8594593 -1.11434,0.4656005 -1.55672,1.2148397 -1.32912,2.2510832 0.34486,1.570143 2.05969,2.04688 3.21325,0.8933127 z m 17.28862,-10.02101202 c 0,-0.0641721 -0.11906,-0.19026187 -0.26458,-0.28019904 -0.14552,-0.0899372 -0.26459,-0.0374332 -0.26459,0.11667596 0,0.1541092 0.11907,0.28019904 0.26459,0.28019904 0.14552,0 0.26458,-0.0525039 0.26458,-0.11667596 z M 146.13537,75.322594 c 0.30098,-0.562385 -0.29092,-1.628407 -0.90415,-1.628407 -0.20178,0 -0.54656,0.256532 -0.76617,0.570074 -0.51869,0.740542 -0.11939,1.546592 0.76617,1.546592 0.3541,0 0.76021,-0.21931 0.90415,-0.488259 z m 79.79376,-0.408945 c 0,-0.454258 -0.19478,-0.884082 -0.47959,-1.058334 -0.3904,-0.238844 -0.57423,-0.178122 -0.98835,0.326462 -0.68638,0.836308 -0.27265,1.697873 0.75814,1.578787 0.58743,-0.06786 0.7098,-0.213881 0.7098,-0.846915 z M 133.18059,64.316041 c 0.54697,-0.659064 0.23383,-1.591728 -0.56543,-1.684065 -0.95823,-0.110702 -1.41391,0.691364 -0.85011,1.496304 0.46383,0.662207 0.96645,0.728876 1.41554,0.187761 z m 105.30417,0 c 0.54697,-0.659064 0.23382,-1.591728 -0.56543,-1.684065 -0.95823,-0.110702 -1.41391,0.691364 -0.85011,1.496304 0.46383,0.662207 0.96645,0.728876 1.41554,0.187761 z M 123.65713,50.29127 c 0.70285,-0.846884 -0.32947,-2.147824 -1.24623,-1.570498 -0.91607,0.576903 -0.58971,1.954665 0.46302,1.954665 0.25541,0 0.60785,-0.172876 0.78321,-0.384167 z m 124.61875,0 c 0.70285,-0.846884 -0.32947,-2.147824 -1.24622,-1.570498 -0.91608,0.576903 -0.58972,1.954665 0.46302,1.954665 0.2554,0 0.60784,-0.172876 0.7832,-0.384167 z M 117.52934,34.482934 c 0.74163,-0.741627 0.0202,-1.992384 -0.96828,-1.678662 -0.66682,0.21164 -0.9019,0.839933 -0.55605,1.486162 0.30786,0.575233 1.04811,0.668716 1.52433,0.1925 z m 136.83225,-0.1925 c 0.34585,-0.646229 0.11077,-1.274522 -0.55605,-1.486162 -0.66776,-0.211934 -1.28578,0.307406 -1.28578,1.080471 0,0.968187 1.37831,1.271783 1.84183,0.405691 z m -138.618,-16.977563 c 0.38976,-0.728268 -0.60609,-1.688666 -1.3424,-1.294606 -0.64371,0.344503 -0.69081,1.464103 -0.0761,1.808136 0.55865,0.312634 1.07668,0.12509 1.41846,-0.51353 z M 256.35622,16.94106 c 0,-0.640527 -0.12482,-0.811369 -0.64664,-0.885023 -0.84579,-0.119386 -1.42639,0.621868 -1.04511,1.334304 0.18644,0.348353 0.49565,0.482653 0.98194,0.426471 0.59406,-0.06863 0.70981,-0.211434 0.70981,-0.875752 z M 117.57017,0.816039 c 0.17451,-0.21026969 0.27839,-0.65675406 0.23083,-0.99218753 -0.11152,-0.7867465 -1.23198,-0.99446827 -1.72527,-0.31984952 -0.44417,0.60743573 -0.43506,0.77329773 0.0702,1.2785752 0.51824,0.51824465 1.01226,0.52984925 1.42422,0.0334619 z M 254.22065,0.7825771 c 0.49189,-0.49188426 0.49611,-0.52724846 0.14189,-1.18911955 -0.47443,-0.88647845 -1.84278,-0.48063417 -1.84278,0.54656038 0,0.50282739 0.50392,1.05833327 0.96006,1.05833327 0.17878,0 0.51216,-0.1870974 0.74083,-0.4157741 z M 123.65713,-15.060813 c 0.70285,-0.846887 -0.32947,-2.147827 -1.24623,-1.570498 -0.91607,0.5769 -0.58971,1.954662 0.46302,1.954662 0.25541,0 0.60785,-0.172873 0.78321,-0.384164 z m 124.61875,0 c 0.70285,-0.846887 -0.32947,-2.147827 -1.24622,-1.570498 -0.91608,0.5769 -0.58972,1.954662 0.46302,1.954662 0.2554,0 0.60784,-0.172873 0.7832,-0.384164 z M 133.40619,-29.669139 c 0.0639,-0.658644 -0.0376,-0.874993 -0.47572,-1.014045 -0.69656,-0.221081 -1.3253,0.275098 -1.3253,1.045877 0,0.775419 0.24032,0.977984 1.04844,0.883742 0.53969,-0.06294 0.68728,-0.242496 0.75258,-0.915574 z m 105.22294,0.07237 c 0,-0.952264 -0.69734,-1.474057 -1.30073,-0.973285 -0.43001,0.356872 -0.56687,1.369899 -0.23052,1.706247 0.10369,0.103696 0.49065,0.153305 0.8599,0.110244 0.54588,-0.06366 0.67135,-0.22125 0.67135,-0.843206 z m -92.74854,-10.597607 c 0.54697,-0.659064 0.23383,-1.591728 -0.56543,-1.684065 -0.95823,-0.110702 -1.41391,0.691364 -0.85011,1.496306 0.46383,0.662207 0.96645,0.728874 1.41554,0.187759 z m 80.02096,-0.187759 c 0.5638,-0.804942 0.10812,-1.607008 -0.85011,-1.496306 -0.88284,0.101994 -1.14787,1.188429 -0.41978,1.720826 0.64042,0.468286 0.80501,0.439185 1.26989,-0.22452 z m -64.93817,-7.751593 c 0.70285,-0.846887 -0.32947,-2.147827 -1.24623,-1.570498 -0.63106,0.397412 -0.70845,1.009975 -0.19275,1.525672 0.53134,0.531344 1.0225,0.546645 1.43898,0.04483 z m 49.87882,-0.04483 c 0.5157,-0.515697 0.43831,-1.12826 -0.19275,-1.525672 -0.91676,-0.577329 -1.94908,0.723611 -1.24623,1.570497 0.41648,0.50182 0.90764,0.486519 1.43898,-0.04483 z m -33.24981,-4.814327 c -0.0633,-0.547552 -0.24426,-0.728551 -0.79182,-0.79181 -1.04044,-0.120201 -1.48533,0.797279 -0.7454,1.53721 0.73994,0.739934 1.65742,0.295045 1.53722,-0.7454 z m 16.98072,0.486238 c 0.35532,-0.663929 -0.25824,-1.401937 -1.07026,-1.287319 -0.80486,0.113609 -1.05179,1.221766 -0.38146,1.711923 0.52914,0.386913 1.10802,0.217601 1.45172,-0.424604 z"
         id="path1227" />
    </clipPath>
    <clipPath
       clipPathUnits="userSpaceOnUse"
       id="clipPath20270">
      <path
         id="path20272"
         style="fill:#000000;stroke-width:0.264583"
         d="M 237.74996,-78.487311 195.1753,-59.43938 c -23.41581,10.476209 -42.63376,19.107539 -42.70696,19.180739 -0.28659,0.286591 0.56529,94.382971 0.8568,94.639696 0.15798,0.139145 19.15873,10.175531 42.22378,22.303026 23.06505,12.127521 41.97936,22.060932 42.03206,22.074108 0.0527,0.01323 18.9679,-10.006727 42.03361,-22.266857 l 41.93749,-22.291146 -0.16227,-18.653125 c -0.0892,-10.259219 -0.23911,-31.4533915 -0.33331,-47.09841 l -0.17157,-28.445812 -41.56748,-19.244818 z m -0.077,2.848401 2.68407,1.23248 c 1.47632,0.67791 19.59147,9.05701 40.25543,18.620571 l 37.57083,17.388609 0.16537,15.077631 c 0.091,8.292849 0.24328,28.7703259 0.33848,45.505222 l 0.17311,30.427083 -40.58718,21.629688 c -22.32299,11.896328 -40.63224,21.619792 -40.68744,21.607991 -0.0552,-0.01191 -18.49593,-9.714574 -40.97889,-21.562007 L 155.72861,52.747571 155.42578,19.739239 c -0.16673,-18.1543883 -0.31541,-38.7228 -0.33021,-45.7078 l -0.0269,-12.69999 41.30187,-18.485178 z m -0.0522,3.030829 c -0.4682,-5.29e-4 -0.9347,0.0547 -1.4857,0.165362 -1.84316,0.37016 -73.92393,32.577339 -75.24657,33.621718 -1.40987,1.113282 -2.59697,2.81251 -3.04787,4.363561 -0.36484,1.254789 -0.36872,5.58487 -0.0398,42.2496035 0.41722,46.5072675 0.15107,42.2221555 2.79207,44.9755685 1.43334,1.49434 2.7544,2.214509 37.20497,20.287139 19.64531,10.305838 36.195,18.929667 36.77708,19.164194 1.44427,0.581898 4.43506,0.594677 5.94382,0.0254 0.65971,-0.248947 17.1543,-8.95178 36.6541,-19.339401 23.74343,-12.648195 35.79187,-19.206105 36.47735,-19.854069 0.56297,-0.532157 1.36675,-1.681745 1.78594,-2.55487 l 0.76223,-1.5875 -0.0331,-21.034401 c -0.0183,-11.568907 -0.10764,-30.2021772 -0.19844,-41.407279 l -0.16485,-20.372919 -0.93999,-1.702221 c -0.51699,-0.936029 -1.46949,-2.148059 -2.11667,-2.693889 -1.55472,-1.31122 -71.38311,-33.686811 -73.62961,-34.137971 -0.55681,-0.111749 -1.02681,-0.16747 -1.495,-0.167939 z" />
    </clipPath>
  </defs>
  <g
     inkscape:label="Layer 1"
     inkscape:groupmode="layer"
     id="layer1">
    <g
       id="g1345">
      <rect
         style="fill:#222b37;fill-opacity:1;stroke:#000000;stroke-width:0.894;stroke-miterlimit:4;stroke-dasharray:none;stroke-opacity:1"
         id="rect13049"
         width="73.038864"
         height="73.038864"
         x="1.5805664"
         y="1.5805658"
         ry="14.259517"
         rx="14.259517" />
      <g
         id="g1187"
         transform="matrix(0.17821932,0,0,0.17821932,-18.982165,36.555573)">
        <path
           style="fill:#dcddd5;stroke-width:0.192424"
           d="m 320.69774,191.58291 c -0.32253,-0.32252 -0.48426,-0.69721 -0.48426,-1.12182 0,-0.35065 0.60604,-32.71795 1.34674,-71.92731 0.74072,-39.209364 1.34685,-71.527881 1.34697,-71.818923 v -0.529166 h -2.79015 -2.79015 V 30.374826 c 0,-8.695959 -0.0492,-15.761623 -0.1094,-15.701452 -0.0602,0.06017 -0.31852,10.400568 -0.57407,22.978667 -0.52378,25.777786 -1.77341,88.151969 -2.48788,124.180619 -0.2613,13.17625 -0.52688,24.57336 -0.59019,25.32691 -0.0987,1.17529 -0.1788,1.40418 -0.56311,1.60986 -0.31174,0.16684 -0.61474,0.18483 -0.99615,0.0591 -0.61335,-0.20213 -0.0984,0.48071 -13.5385,-17.95197 -8.22677,-11.28274 -32.0127,-43.84698 -41.86355,-57.31347 -2.42702,-3.31783 -4.47598,-6.13204 -4.55326,-6.25378 -0.0773,-0.12177 -0.58136,-1.43366 -1.12018,-2.91533 -0.53883,-1.48166 -1.17663,-3.21348 -1.41734,-3.84848 -0.24072,-0.635002 -1.27826,-3.405911 -2.30567,-6.157578 -1.0274,-2.751666 -2.02917,-5.306098 -2.22615,-5.676515 -0.57701,-1.085061 -1.01307,-3.072437 -0.92884,-4.233333 0.0436,-0.600999 0.29564,-1.519651 0.58323,-2.125884 0.27855,-0.587163 0.90874,-2.535458 1.40042,-4.329545 0.83326,-3.040457 1.45493,-5.216198 5.20682,-18.222979 3.39809,-11.780289 4.39292,-15.225145 6.15435,-21.310985 2.41922,-8.358562 2.44161,-8.445654 2.30832,-8.976744 l -0.11323,-0.452044 h -4.99936 -4.99936 v 8.562879 8.562879 h -3.75228 -3.75227 V 24.34554 2.5053886 h 10.59458 c 10.49925,0 12.38587,0.091384 14.05667,0.6808759 l 0.72706,0.2565226 0.19838,-0.6130174 c 0.10911,-0.33716 0.68271,-2.30154014 1.27467,-4.3652901 0.59196,-2.0637499 1.71984,-5.9819885 2.50641,-8.7071966 0.78656,-2.725208 2.07954,-7.206288 2.87329,-9.957955 0.79375,-2.751666 2.09261,-7.254393 2.88636,-10.00606 3.54719,-12.296894 4.37872,-15.178557 5.56652,-19.29053 0.6955,-2.407708 1.83359,-6.347594 2.52909,-8.755303 1.19626,-4.141267 2.24961,-7.791615 5.58042,-19.338636 2.90477,-10.070081 6.08487,-21.094287 8.6453,-29.970079 3.41351,-11.83295 3.95019,-13.72944 4.68298,-16.54848 0.42642,-1.64042 1.26243,-4.54121 1.85781,-6.44621 1.19785,-3.83266 2.29445,-7.59419 8.2744,-28.38258 4.39543,-15.28004 4.17972,-14.61923 4.89752,-15.00338 0.55035,-0.29454 0.92837,-0.24255 1.35763,0.18672 0.46782,0.46782 0.50109,2.02277 0.18528,8.65909 -0.11331,2.38125 -0.63109,26.41022 -1.15062,53.39772 -0.51954,26.987503 -1.03651,53.137957 -1.14884,58.112123 -0.11234,4.974167 -0.37131,17.70303 -0.57549,28.286363 -0.20418,10.583333 -0.42093,21.3206058 -0.48167,23.8606057 -0.0798,3.3382046 -0.053,4.5248502 0.0968,4.2814393 0.18288,-0.297103 0.5553,-0.3367424 3.16388,-0.3367424 h 2.9566 l 0.10414,-1.3950757 c 0.0573,-0.76729166 0.82723,-40.3609839 1.71104,-87.9859829 1.18289,-63.74332 1.66708,-86.70108 1.83503,-87.00845 0.12548,-0.22965 0.52097,-0.51419 0.87886,-0.6323 0.96031,-0.31693 1.56885,0.0225 1.83602,1.02408 0.1167,0.4375 0.72988,2.74376 1.36261,5.12501 0.63273,2.38124 1.28318,4.80579 1.44545,5.38787 0.16225,0.58209 0.94861,3.52618 1.74746,6.54243 0.79883,3.01625 1.67115,6.3067 1.93849,7.31212 0.26733,1.00542 1.08186,4.07939 1.81009,6.83106 0.72821,2.75167 1.45883,5.47928 1.62358,6.06136 0.16476,0.58209 1.03097,3.82925 1.9249,7.21591 0.89394,3.38667 1.75808,6.63383 1.92032,7.21591 0.16221,0.58208 0.68391,2.53038 1.15929,4.32955 0.93555,3.54067 1.91788,7.22952 3.25388,12.21894 1.62881,6.082943 1.88191,7.036705 2.42535,9.140146 0.61738,2.389557 2.1468,8.116397 2.59519,9.717425 0.163,0.582083 1.02779,3.829242 1.92174,7.215908 0.89393,3.386667 1.75841,6.633826 1.92105,7.215909 0.29585,1.058834 1.58076,5.903295 2.52634,9.525 0.27632,1.058334 0.62501,2.357197 0.77489,2.886364 0.14988,0.529166 0.65284,2.390871 1.11769,4.137121 0.46484,1.74625 1.07656,4.040909 1.35935,5.099242 0.28278,1.058334 0.76025,2.876743 1.06102,4.040909 0.61738,2.389557 2.1468,8.116397 2.59519,9.717424 0.163,0.582084 1.02968,3.829243 1.92596,7.215909 0.89625,3.386667 2.15955,8.149167 2.80735,10.583333 0.6478,2.434167 1.38457,5.205076 1.63728,6.157576 0.25269,0.9525 0.59059,2.208068 0.75084,2.7901514 0.29474,1.0706022 2.18946,8.1838144 3.07531,11.5454543 1.23494,4.6863768 2.80604,10.5790223 3.05259,11.4492423 0.14994,0.529166 0.5087,1.871326 0.79722,2.982576 1.1022,4.245109 1.02891,4.593166 1.04359,-4.954925 l 0.0134,-8.7071964 h 3.75228 3.75227 V 24.34554 c 0,19.70251 -0.0295,21.840151 -0.30161,21.840151 -0.19769,0 -0.26656,0.116012 -0.19989,0.336742 0.0559,0.185208 0.49336,1.808788 0.97207,3.607955 0.47871,1.799166 1.00145,3.747462 1.16167,4.329545 0.16019,0.582083 0.50807,1.880947 0.77306,2.886364 0.26499,1.005416 0.61239,2.30428 0.77199,2.886363 0.15959,0.582083 0.93326,3.482879 1.71923,6.446212 0.78598,2.963333 1.61619,6.080606 1.84491,6.927273 0.77135,2.855248 1.33583,5.193357 1.33812,5.54253 0.002,0.190904 -0.38497,1.100108 -0.85825,2.020454 -0.47331,0.920365 -2.29187,4.574174 -4.04128,8.119591 -1.74939,3.545417 -3.69512,7.442007 -4.32383,8.659091 -0.62871,1.217083 -1.56966,3.078789 -2.09098,4.137119 -0.52133,1.05834 -1.34639,2.66383 -1.83347,3.56774 -0.48707,0.90393 -1.0135,2.00606 -1.16985,2.44918 -0.38367,1.08746 -1.01846,1.99399 -11.7536,16.78535 -3.47302,4.78531 -5.68017,7.82955 -20.29887,27.99773 -13.07232,18.03479 -16.18097,22.32177 -22.79969,31.44193 -2.41164,3.32307 -4.5249,6.287 -4.69611,6.58651 -0.17124,0.29951 -0.52782,0.62717 -0.79241,0.72811 -1.15468,0.44058 -1.33134,0.4349 -1.82483,-0.0586 z M 262.6357,20.351274 c 0.24097,-0.872317 0.96258,-3.38809 1.60358,-5.590578 0.641,-2.202507 1.12379,-4.113126 1.07286,-4.245841 -0.0509,-0.132734 -0.55606,-0.404033 -1.12252,-0.6029035 -0.91466,-0.3211176 -1.78903,-0.3698586 -7.81288,-0.4354946 l -6.78295,-0.073929 v 6.2688541 6.268855 l 6.30189,-0.0019 6.30189,-0.0019 0.43813,-1.586037 z m 151.67323,26.68497 c -2.22196,-0.3942 -2.83254,-0.531552 -3.89089,-0.875318 -5.15358,-1.673937 -8.97371,-5.535391 -10.56136,-10.675639 -1.00501,-3.253875 -0.993,-3.047866 -1.07927,-18.499974 l -0.0809,-14.4799244 h 3.8615 3.86149 l 0.003,14.0950754 c 0.004,15.609012 0.002,15.577512 1.23821,18.18157 1.70073,3.581265 4.79691,5.31495 9.43799,5.284758 4.53582,-0.0295 7.61051,-1.801321 9.24991,-5.330343 1.22545,-2.638002 1.23721,-2.811588 1.23721,-18.272183 V 2.5053886 h 3.84848 3.84849 V 14.964858 c 0,12.96441 -0.14692,16.643677 -0.76052,19.109055 -1.25018,5.02308 -4.19419,8.893232 -8.36772,11.000027 -2.74164,1.383973 -4.88715,1.883661 -8.47812,1.974581 -1.5875,0.04018 -3.10284,0.03466 -3.36742,-0.01232 z m 41.57482,-0.09054 c -3.58998,-0.450388 -6.69894,-1.778982 -8.87305,-3.791893 -2.72775,-2.525453 -4.17508,-5.467831 -4.5873,-9.325668 l -0.13939,-1.304578 h 3.8117 3.81171 v 0.542348 c 0,1.587557 1.28083,4.114087 2.62003,5.168168 1.98747,1.564332 3.94881,2.069273 7.48224,1.926301 5.54184,-0.224251 8.35743,-2.211974 8.36435,-5.904999 0.006,-3.292456 -2.02055,-4.896831 -7.93499,-6.281401 -7.58256,-1.775075 -9.50397,-2.417887 -11.78239,-3.941791 -3.08063,-2.060459 -4.52162,-4.974397 -4.55526,-9.211656 -0.0296,-3.722081 0.9895,-6.1767605 3.67794,-8.8593275 1.36812,-1.3651345 1.95657,-1.794587 3.47505,-2.536063 2.85777,-1.3954548 4.65559,-1.7722753 8.46666,-1.7745998 3.72133,-0.00227 5.62535,0.3750695 8.17803,1.6207355 4.45222,2.1725947 7.35101,6.5617723 7.6276,11.5492548 l 0.0694,1.250757 -3.66431,0.05213 -3.6643,0.05211 -0.23674,-1.38049 c -0.54229,-3.162396 -2.57179,-5.3379257 -5.71192,-6.1229396 -1.29848,-0.3246005 -4.55316,-0.2795539 -5.92676,0.08205 -3.10879,0.8183803 -4.75582,2.6793146 -4.77668,5.3969996 -0.0154,2.00202 0.87378,3.384396 2.81405,4.375034 0.90993,0.464589 4.17961,1.418436 7.11969,2.077008 5.99412,1.342659 9.25863,2.760711 11.45565,4.976149 2.28664,2.305819 3.18405,4.947034 3.01329,8.868467 -0.12933,2.970222 -0.77256,4.791806 -2.43451,6.89433 -2.01769,2.552565 -5.67954,4.524413 -9.89657,5.32917 -1.95045,0.372206 -5.91282,0.51154 -7.80319,0.274397 z M 177.04985,27.905388 V 9.6250854 h -6.25379 -6.25379 V 6.065237 2.5053886 h 16.45227 16.45228 V 6.065237 9.6250854 h -6.35 -6.35 V 27.905388 46.185691 h -3.84849 -3.84848 z M 203.02712,24.34554 V 2.5053886 h 15.39394 15.39394 v 3.4636363 3.4636363 h -11.64167 -11.64166 v 5.5803028 5.580303 h 11.06439 11.06439 v 3.463636 3.463637 h -11.06439 -11.06439 v 5.868939 5.868939 h 11.64166 11.64167 v 3.463636 3.463637 h -15.39394 -15.39394 z"
           id="path1201" />
        <path
           style="fill:#edd49c;stroke-width:0.192424"
           d="m 320.58646,191.54789 c -0.18488,-0.22275 -0.24026,-0.99938 -0.20925,-2.93447 0.0232,-1.44734 0.47008,-25.49152 0.99303,-53.43152 0.52297,-27.94 1.08004,-57.943748 1.23794,-66.674998 0.1579,-8.731249 0.33178,-17.325397 0.38639,-19.098105 l 0.0993,-3.223106 h -2.88338 -2.88336 l -0.0131,-15.923106 c -0.008,-9.461615 -0.0824,-15.766934 -0.18407,-15.538257 -0.0941,0.211666 -0.90905,37.835416 -1.81104,83.608331 -0.90198,45.772911 -1.7067,84.779981 -1.78827,86.682371 -0.14306,3.33696 -0.16374,3.46656 -0.58657,3.67645 -1.00507,0.49896 -1.08064,0.41387 -7.76345,-8.7416 -3.52663,-4.83156 -12.98866,-17.7901 -21.02668,-28.79677 -8.03802,-11.00666 -18.12077,-24.81791 -22.40611,-30.69166 -4.28533,-5.87375 -8.25354,-11.29713 -8.81824,-12.05198 -0.5647,-0.75484 -1.02672,-1.46219 -1.02672,-1.57191 0,-0.1097 -0.91838,-2.60939 -2.04085,-5.55484 -1.12247,-2.945443 -2.6036,-6.87032 -3.2914,-8.721922 -0.6878,-1.851602 -1.40246,-3.670011 -1.58813,-4.040909 -0.18566,-0.370898 -0.49003,-1.306426 -0.67636,-2.078971 -0.39279,-1.628505 -0.30444,-2.548986 0.38469,-4.007677 0.25633,-0.542598 0.72208,-1.928052 1.035,-3.078788 0.57097,-2.099733 2.17547,-7.686867 9.99402,-34.800808 3.44872,-11.959821 4.17981,-14.700115 4.01711,-15.057197 l -0.19889,-0.436515 h -4.97214 -4.97214 v 8.562879 8.562879 h -3.75228 -3.75227 V 24.335611 2.4855497 l 11.30492,0.065532 c 10.80425,0.062628 11.36884,0.083495 12.74811,0.4711334 0.79375,0.2230813 1.45068,0.392886 1.45985,0.3773439 0.0939,-0.1591598 36.05018,-125.104209 36.63887,-127.316899 0.43643,-1.64041 1.30214,-4.6278 1.92381,-6.63863 0.62166,-2.01084 3.52263,-11.96879 6.4466,-22.12879 2.92396,-10.16 5.45467,-18.90443 5.62381,-19.43206 0.29048,-0.90628 1.15023,-2.02324 1.5573,-2.02324 0.10226,0 0.37169,0.15153 0.59875,0.33674 0.39572,0.32278 0.41333,0.49227 0.42486,4.08902 0.007,2.06375 -0.0405,3.96875 -0.10476,4.23333 -0.0642,0.26458 -0.41766,15.63447 -0.7854,34.1553 -0.36774,18.52083 -0.80377,40.168561 -0.96895,48.10606 -0.1652,7.9375 -0.33034,16.899659 -0.36701,19.915909 -0.0367,3.01625 -0.33241,17.953182 -0.65725,33.193181 -0.32481,15.24 -0.6156,28.9909727 -0.64621,30.55771972 -0.0523,2.68008288 -0.0367,2.82524578 0.26385,2.45340908 0.29756,-0.3681153 0.52522,-0.3952202 3.31932,-0.3952202 2.98253,0 2.99983,-0.0025 3.00022,-0.4329545 0,-0.238125 0.17279,-9.351818 0.3835,-20.2526511 0.21072,-10.900833 0.77402,-40.688105 1.25181,-66.193938 0.47779,-25.505835 1.04106,-55.293105 1.25172,-66.193935 0.21067,-10.90084 0.3832,-20.53801 0.38341,-21.41595 0,-1.43794 0.0472,-1.64308 0.47269,-2.06856 0.51933,-0.51933 1.64513,-0.65082 1.98441,-0.23178 0.10713,0.13229 1.15212,3.83405 2.32222,8.22614 1.17011,4.39208 5.81731,21.84015 10.3271,38.77348 9.56887,35.929005 17.17865,64.499494 24.90866,93.51818 3.04473,11.429999 7.51796,28.2226895 9.9405,37.3170901 l 4.40465,16.5352769 0.05,-8.790209 0.05,-8.7901894 h 3.75033 3.75033 V 24.34554 c 0,19.939423 -0.0269,21.840151 -0.3095,21.840151 -0.2406,0 -0.2808,0.117783 -0.18057,0.529166 0.0709,0.291042 1.91012,7.196667 4.08709,15.345833 2.17699,8.149167 4.0936,15.359284 4.25912,16.022493 l 0.30095,1.205846 -7.59029,15.141344 c -8.38979,16.736217 -7.13703,14.593507 -14.30951,24.474847 -1.50472,2.073 -4.00716,5.52257 -5.56096,7.6657 -1.55381,2.14312 -4.06524,5.60676 -5.58092,7.69697 -25.48319,35.14245 -37.71739,52.03214 -39.34114,54.31174 -1.0931,1.53458 -2.17795,2.89712 -2.41079,3.02785 -0.59214,0.33247 -1.57897,0.30118 -1.87838,-0.0596 z M 262.05671,64.98271 c 0.13419,-0.231275 1.10988,-4.100618 2.1682,-8.598535 1.05831,-4.497916 2.15129,-9.138034 2.42884,-10.311399 l 0.50463,-2.13335 -2.88103,-5.616748 -2.88103,-5.616748 -2.81557,9.770553 c -1.54857,5.373812 -3.85196,13.364094 -5.11865,17.756177 -1.26669,4.392083 -3.00162,10.407746 -3.85539,13.368155 -0.85378,2.960389 -1.55232,5.441237 -1.55232,5.513012 0,0.199159 13.72348,-13.650537 14.00232,-14.131117 z m 8.60115,-35.811093 c 0.44629,-1.852392 0.73526,-3.320916 0.64216,-3.263381 -0.0931,0.05754 -0.6132,0.396971 -1.15578,0.754303 -0.54258,0.357332 -1.40807,0.801293 -1.92331,0.986559 -0.51525,0.185286 -0.91231,0.437169 -0.88236,0.559743 0.0943,0.38583 2.35814,4.480502 2.4348,4.40384 0.0402,-0.04018 0.4382,-1.588654 0.88449,-3.441064 z m -8.36407,-7.320377 c 0,-0.07674 2.91807,-10.246494 3.18185,-11.089043 0.11819,-0.377517 -0.90372,-0.8641963 -2.39032,-1.1383623 -0.57007,-0.1051406 -3.83887,-0.1911735 -7.26401,-0.1911735 h -6.22752 v 6.2537878 6.253788 h 6.35 c 3.4925,0 6.35,-0.04004 6.35,-0.089 z m 4.27992,-1.825471 c 1.07137,-1.212965 1.39672,-2.204238 1.39266,-4.243108 -0.003,-1.356783 -0.0944,-2.026439 -0.3558,-2.597727 l -0.35216,-0.769697 -1.22568,4.233333 c -0.67413,2.328333 -1.22832,4.34646 -1.23155,4.484736 -0.009,0.370724 1.05245,-0.292293 1.77253,-1.107537 z m 9.84904,-15.2112895 c 1.30329,-5.54760814 5.28223,-22.3697315 8.19255,-34.6363625 0.9416,-3.96875 2.05629,-8.687955 2.47707,-10.487121 0.68214,-2.916603 2.56361,-10.867404 9.83559,-41.563636 2.21018,-9.329545 6.50686,-27.4986 8.07717,-34.1553 0.5118,-2.16959 0.98953,-4.24777 1.06163,-4.61818 0.0721,-0.37042 0.39127,-1.60359 0.70928,-2.74037 0.31801,-1.13679 0.54322,-2.17185 0.50046,-2.30014 -0.0428,-0.12828 -0.36252,0.84511 -0.71056,2.1631 -0.34805,1.31799 -0.70541,2.53327 -0.79415,2.70062 -0.0887,0.16735 -0.72895,2.26718 -1.4227,4.66629 -2.40922,8.3315 -3.60261,12.46509 -8.10633,28.078298 -1.81965,6.30825 -3.91767,13.58138 -5.77273,20.012121 -2.24114,7.76914 -4.20383,14.573183 -5.75882,19.964015 -0.77845,2.69875 -2.06487,7.158182 -2.8587,9.909848 -0.79382,2.751667 -2.19146,7.600758 -3.10585,10.775758 -0.91439,3.174999 -2.30043,7.980795 -3.08008,10.679545 -0.77965,2.69875 -2.46225,8.5233872 -3.73911,12.9436394 -1.27686,4.42025028 -2.32156,8.0641419 -2.32156,8.0975083 0,0.033386 0.42552,0.3364345 0.94559,0.6734271 1.68538,1.0920845 3.42657,3.2685181 4.07583,5.0946822 0.21509,0.604962 0.28743,0.673369 0.40693,0.384848 0.0799,-0.193021 0.70476,-2.7321739 1.38849,-5.6425905 z M 414.50136,47.036475 c -0.26459,-0.04707 -1.00061,-0.175683 -1.63561,-0.285807 -6.08399,-1.05514 -10.86787,-5.067397 -12.82821,-10.759132 -1.17906,-3.423266 -1.30529,-5.430347 -1.3106,-20.838314 l -0.004,-12.6559691 3.80038,0.052174 3.80038,0.052174 0.0992,14.7204541 0.0992,14.720454 0.44721,1.250758 c 1.23362,3.450263 3.29452,5.448049 6.67478,6.470303 1.58461,0.479233 5.13095,0.479175 6.72663,-9.6e-5 2.81465,-0.845397 4.79386,-2.495685 5.97435,-4.98144 1.23667,-2.604058 1.23452,-2.572558 1.23821,-18.18157 l 0.003,-14.0950752 h 3.76104 3.76107 l -0.0678,14.9609842 c -0.0658,14.510847 -0.08,15.004415 -0.47254,16.404166 -1.41907,5.0602 -3.32083,7.862763 -7.04192,10.37742 -2.60759,1.762183 -5.91417,2.703811 -9.84969,2.804892 -1.48167,0.03804 -2.91042,0.03067 -3.175,-0.01636 z m 41.85227,-0.09134 c -6.70237,-0.654088 -11.26365,-4.049625 -13.19874,-9.82547 -0.30894,-0.922116 -0.6174,-2.335376 -0.68546,-3.140575 l -0.12375,-1.464021 3.73276,0.05236 3.73277,0.05236 0.0575,0.577273 c 0.24888,2.499648 1.82815,4.824229 4.03837,5.944234 1.79147,0.90782 3.13894,1.132552 6.10264,1.017848 3.65287,-0.141374 5.63768,-0.825038 7.10249,-2.446424 0.96461,-1.067685 1.26796,-1.853488 1.26796,-3.284509 0,-1.563966 -0.30333,-2.509828 -1.10538,-3.446838 -1.28335,-1.499311 -3.0663,-2.223365 -8.50099,-3.452225 -4.62538,-1.045864 -6.47415,-1.602548 -8.34621,-2.513118 -4.29576,-2.08942 -6.29287,-5.349375 -6.29287,-10.272106 0,-2.349462 0.24711,-3.506759 1.15499,-5.4093152 1.72233,-3.6093014 5.36879,-6.2748236 10.0478,-7.3448178 1.98503,-0.4539365 6.87062,-0.457402 8.75851,-0.00622 2.75404,0.658191 4.45208,1.4447193 6.43303,2.9797682 2.73098,2.1162433 4.77428,6.1851108 4.99838,9.9534128 l 0.0686,1.154545 h -3.64472 -3.64475 l -0.24603,-1.333134 c -0.49015,-2.655724 -1.82105,-4.414366 -4.16782,-5.5073737 -1.67189,-0.7786832 -3.54745,-1.0335876 -5.68896,-0.7732183 -4.45335,0.5414818 -6.57516,2.388061 -6.61624,5.758064 -0.0378,3.103957 1.72482,4.408401 7.99923,5.919855 7.37047,1.77546 9.67267,2.589357 12.02386,4.250844 3.07586,2.173585 4.6106,5.672224 4.41365,10.061478 -0.11195,2.494857 -0.69934,4.321137 -2.00382,6.230331 -2.37725,3.479204 -7.05328,5.765242 -12.84072,6.27761 -2.34756,0.207838 -2.59323,0.207299 -4.8261,-0.01058 z M 177.24227,27.905388 V 9.6250854 h -6.35 -6.35 V 6.065237 2.5053886 h 16.45662 16.45661 l -0.0524,3.5117424 -0.0524,3.5117423 -6.3019,0.050742 -6.30189,0.050723 V 27.908024 46.185691 h -3.75228 -3.75227 z M 203.02712,24.34554 V 2.5053886 h 15.39394 15.39394 v 3.4636363 3.4636363 h -11.64167 -11.64166 v 5.5803028 5.580303 h 11.06439 11.06439 v 3.463636 3.463637 h -11.06439 -11.06439 v 5.868939 5.868939 h 11.64166 11.64167 v 3.463636 3.463637 h -15.39394 -15.39394 z"
           id="path1199" />
        <path
           style="fill:#abaeae;stroke-width:0.192424"
           d="m 320.58646,191.54789 c -0.18488,-0.22275 -0.24026,-0.99938 -0.20925,-2.93447 0.0232,-1.44734 0.47008,-25.49152 0.99303,-53.43152 0.52297,-27.94 1.08004,-57.943748 1.23794,-66.674998 0.1579,-8.731249 0.33178,-17.325397 0.38639,-19.098105 l 0.0993,-3.223106 h -2.78717 -2.78715 V 30.294662 c 0,-12.627052 -0.0494,-15.874672 -0.24053,-15.811365 -0.16265,0.05386 -0.2585,0.635366 -0.29602,1.795953 -0.0305,0.943957 -0.8255,40.023684 -1.76661,86.84383 -1.48915,74.08397 -1.74879,85.16522 -2.00145,85.41787 -0.3959,0.39589 -1.48849,0.33932 -1.81483,-0.094 -0.14432,-0.19164 -3.86623,-5.28411 -8.2709,-11.31661 -4.40467,-6.0325 -13.76432,-18.84795 -20.79922,-28.47878 -7.0349,-9.63084 -16.29689,-22.3164 -20.58219,-28.19015 -4.28531,-5.87375 -8.25349,-11.29713 -8.81819,-12.05198 -0.5647,-0.75484 -1.02672,-1.46219 -1.02672,-1.57191 0,-0.1097 -0.91838,-2.60939 -2.04085,-5.55484 -1.12247,-2.945443 -2.6036,-6.87032 -3.2914,-8.721922 -0.6878,-1.851602 -1.40246,-3.670011 -1.58813,-4.040909 -0.18566,-0.370898 -0.49003,-1.306426 -0.67636,-2.078971 -0.39279,-1.628505 -0.30444,-2.548986 0.38469,-4.007677 0.25633,-0.542598 0.72891,-1.953241 1.05017,-3.134764 0.59932,-2.204162 1.62395,-5.771727 9.60851,-33.454994 3.99091,-13.836842 4.59218,-16.09013 4.40383,-16.503495 l -0.21812,-0.478752 -5.01882,0.05124 -5.01883,0.05124 -0.0501,8.610985 -0.0501,8.610985 h -3.65408 -3.65408 V 24.33055 2.4754243 l 11.1125,0.076885 c 10.82835,0.074918 11.15347,0.088048 12.71467,0.5134476 0.88119,0.2401088 1.62471,0.4070831 1.65227,0.3710516 0.10129,-0.1324263 35.90521,-124.4708585 36.67231,-127.3541485 0.43643,-1.64041 1.30214,-4.6278 1.92381,-6.63863 0.62166,-2.01084 3.52263,-11.96879 6.4466,-22.12879 2.92396,-10.16 5.45467,-18.90443 5.62381,-19.43206 0.29048,-0.90628 1.15023,-2.02324 1.5573,-2.02324 0.10226,0 0.37169,0.15153 0.59875,0.33674 0.39572,0.32278 0.41333,0.49227 0.42486,4.08902 0.007,2.06375 -0.0405,3.96875 -0.10476,4.23333 -0.0642,0.26458 -0.41766,15.63447 -0.7854,34.1553 -0.36774,18.52083 -0.80377,40.168561 -0.96895,48.10606 -0.1652,7.9375 -0.33034,16.899659 -0.36701,19.915909 -0.0367,3.01625 -0.33161,17.953182 -0.65542,33.193181 -0.32383,15.24 -0.61462,29.0139597 -0.64622,30.60880258 -0.0562,2.83561362 -0.0497,2.88984452 0.29326,2.45340902 0.33974,-0.4323465 0.44354,-0.446303 3.31932,-0.446303 2.95015,0 2.9686,-0.00269 2.96899,-0.4329545 0,-0.238125 0.17279,-9.351818 0.3835,-20.2526511 0.21072,-10.900833 0.77402,-40.688105 1.25181,-66.193938 0.47779,-25.505835 1.04106,-55.293105 1.25172,-66.193935 0.21067,-10.90084 0.3832,-20.53801 0.38341,-21.41595 0,-1.43794 0.0472,-1.64308 0.47269,-2.06856 0.51933,-0.51933 1.64513,-0.65082 1.98441,-0.23178 0.10713,0.13229 1.15212,3.83405 2.32222,8.22614 1.17011,4.39208 5.81731,21.84015 10.3271,38.77348 13.37548,50.222022 26.13527,98.125888 34.97091,131.2907113 l 4.47533,16.7982897 0.05,-9.149426 0.05,-9.1494264 h 3.55798 3.55798 V 24.329511 c 0,15.829895 -0.0587,21.843672 -0.21374,21.895357 -0.13683,0.04561 1.25724,5.574165 3.8736,15.361862 2.24803,8.409844 4.22286,15.833244 4.3885,16.496453 l 0.30116,1.205846 -7.59029,15.141344 c -8.38979,16.736217 -7.13703,14.593507 -14.30951,24.474847 -1.50472,2.073 -4.00716,5.52257 -5.56096,7.6657 -1.55381,2.14312 -4.06524,5.60676 -5.58092,7.69697 -25.48319,35.14245 -37.71739,52.03214 -39.34114,54.31174 -1.0931,1.53458 -2.17795,2.89712 -2.41079,3.02785 -0.59214,0.33247 -1.57897,0.30118 -1.87838,-0.0596 z M 262.05671,64.98271 c 0.13419,-0.231275 1.10988,-4.100618 2.1682,-8.598535 1.05831,-4.497916 2.15809,-9.166917 2.44395,-10.375553 l 0.51974,-2.197523 -2.7616,-5.403234 c -1.51889,-2.971781 -2.82204,-5.470833 -2.89589,-5.55346 -0.0739,-0.08263 -1.40141,4.246918 -2.95011,9.621212 -1.54871,5.374293 -3.85221,13.36496 -5.1189,17.757043 -1.26669,4.392083 -3.00162,10.407746 -3.85539,13.368155 -0.85378,2.960389 -1.55232,5.441237 -1.55232,5.513012 0,0.199159 13.72348,-13.650537 14.00232,-14.131117 z m 8.60894,-35.826564 c 0.39799,-1.693334 0.76438,-3.186488 0.81419,-3.318106 0.0498,-0.131638 -0.41639,0.09677 -1.036,0.507538 -0.61961,0.410787 -1.60282,0.945034 -2.1849,1.1872 -0.58209,0.242146 -1.08659,0.460529 -1.12113,0.485274 -0.0345,0.02475 0.52041,1.099859 1.23322,2.38914 0.8373,1.514436 1.34468,2.252749 1.4335,2.085936 0.0756,-0.142009 0.46312,-1.643649 0.86112,-3.336982 z m -8.4859,-7.187065 c 0.0556,-0.08998 0.83801,-2.709352 1.73866,-5.820833 1.50265,-5.191183 1.61093,-5.677208 1.31422,-5.899573 -0.83119,-0.6228968 -1.73953,-0.702522 -8.75968,-0.7678885 l -7.07159,-0.065848 V 15.77381 22.132661 H 255.74 c 3.48626,0 6.38414,-0.07362 6.43975,-0.16358 z m 3.61396,-1.112327 c 0.86094,-0.596631 1.81202,-1.960823 2.09204,-3.000741 0.26071,-0.968183 0.26164,-3.180407 0.002,-4.119841 -0.21961,-0.793847 -0.52256,-1.367867 -0.64341,-1.219143 -0.10463,0.128732 -2.44878,8.406169 -2.44878,8.646853 0,0.305974 0.20448,0.24307 0.9984,-0.307128 z m 10.5295,-15.6667201 c 0.7386,-3.1169725 2.52127,-10.6461981 3.96149,-16.7316149 1.44022,-6.085416 3.38899,-14.311553 4.3306,-18.280302 0.9416,-3.96875 2.05629,-8.687955 2.47707,-10.487121 0.68214,-2.916603 2.56361,-10.867404 9.83559,-41.563636 2.21018,-9.329545 6.50686,-27.4986 8.07717,-34.1553 0.5118,-2.16959 0.98953,-4.24777 1.06163,-4.61818 0.0721,-0.37042 0.39127,-1.60359 0.70928,-2.74037 0.31801,-1.13679 0.54322,-2.17185 0.50046,-2.30014 -0.0428,-0.12828 -0.36252,0.84511 -0.71056,2.1631 -0.34805,1.31799 -0.70541,2.53327 -0.79415,2.70062 -0.0887,0.16735 -0.72895,2.26718 -1.4227,4.66629 -2.40922,8.3315 -3.60261,12.46509 -8.10633,28.078298 -0.7861,2.725209 -2.07871,7.206288 -2.87246,9.957955 -0.79375,2.751666 -2.08636,7.232746 -2.87246,9.957954 -0.7861,2.725208 -2.09122,7.249583 -2.90027,10.054167 -0.80904,2.804583 -2.10791,7.30731 -2.88636,10.00606 -0.77845,2.69875 -2.06487,7.158182 -2.8587,9.909848 -0.79382,2.751667 -2.19146,7.600758 -3.10585,10.775758 -0.91439,3.174999 -2.30043,7.980795 -3.08008,10.679545 -0.77965,2.69875 -2.46225,8.5233872 -3.73911,12.9436394 -1.27686,4.42025028 -2.32156,8.0745521 -2.32156,8.1206761 0,0.046124 0.37579,0.342419 0.8351,0.6584181 1.78677,1.2293407 3.537,3.4309241 4.18157,5.2599354 0.13893,0.394201 0.27625,0.693093 0.30516,0.664191 0.0289,-0.02892 0.65687,-2.6028264 1.39547,-5.7197911 z m 138.563,41.7496521 c -2.52195,-0.218248 -4.5666,-0.786226 -6.83106,-1.897573 -5.01947,-2.463434 -8.04711,-6.996814 -8.93467,-13.378083 -0.13009,-0.935394 -0.20549,-6.554932 -0.20549,-15.318028 V 2.5053886 h 3.64802 3.64804 L 406.2773,16.8891 c 0.0594,12.902065 0.1006,14.511501 0.39951,15.624291 1.33914,4.985423 4.93818,7.692389 10.24261,7.7038 4.89974,0.01058 8.33959,-2.177607 9.90586,-6.301336 0.87836,-2.312554 0.95054,-3.676284 0.95198,-17.988876 l 10e-4,-13.4215904 h 3.65606 3.65606 l -0.002,13.8064394 c -0.002,15.222893 -0.0478,15.993013 -1.17094,19.38018 -1.78079,5.370349 -5.89263,9.223144 -11.37614,10.659418 -0.80978,0.21209 -2.10605,0.438188 -2.88061,0.502419 -0.77457,0.06423 -1.75466,0.145415 -2.178,0.180417 -0.42333,0.035 -1.59231,-0.0075 -2.59772,-0.09458 z m 39.8028,-0.28525 c -5.65999,-1.024293 -9.72893,-4.357774 -11.40027,-9.339657 -0.4588,-1.367578 -0.88136,-3.449897 -0.88441,-4.358255 l -0.002,-0.432954 h 3.63551 3.63549 l 0.2013,1.142788 c 0.55653,3.159433 2.91076,5.585498 6.18982,6.378652 1.48427,0.359025 5.35217,0.309957 7.00367,-0.08884 4.60681,-1.112463 6.70879,-4.716973 4.798,-8.227734 -1.09041,-2.003463 -3.18349,-2.958407 -9.685,-4.418676 -6.13547,-1.378046 -8.89291,-2.531302 -10.98233,-4.593128 -4.25078,-4.194675 -4.06307,-12.03071 0.39653,-16.5526793 2.92768,-2.9686211 6.95535,-4.4447421 12.12519,-4.4438204 8.44843,0.00154 13.97,4.0722684 15.47461,11.4085767 0.16729,0.815764 0.30418,1.791816 0.30418,2.169026 v 0.685838 l -3.60795,-0.05234 -3.60796,-0.05236 -0.0515,-0.577273 c -0.15531,-1.740015 -0.98673,-3.539778 -2.19208,-4.745124 -3.10186,-3.101859 -10.4241,-3.0338563 -13.20253,0.122632 -1.78895,2.032347 -1.84087,5.089064 -0.11417,6.723361 1.41755,1.341678 2.85404,1.889202 8.40042,3.201862 6.68978,1.583267 9.18571,2.610139 11.45817,4.714086 2.2935,2.123421 3.34029,4.720513 3.3695,8.359698 0.0297,3.694469 -0.92217,6.078085 -3.42758,8.583487 -1.33708,1.33708 -1.87883,1.722967 -3.58128,2.550892 -1.10325,0.536517 -2.52543,1.111461 -3.16043,1.277639 -3.26841,0.855287 -8.12133,1.102148 -11.09342,0.564303 z M 177.24227,27.905388 V 9.6250854 h -6.35 -6.35 V 6.065237 2.5053886 h 16.35606 16.35606 V 6.065237 9.6250854 h -6.35 -6.35 V 27.905388 46.185691 h -3.65606 -3.65606 z M 203.02712,24.34554 V 2.5053886 h 15.29773 15.29772 v 3.4636363 3.4636363 h -11.64166 -11.64167 v 5.5803028 5.580303 h 11.16061 11.1606 v 3.463636 3.463637 h -11.1606 -11.16061 v 5.868939 5.868939 h 11.64167 11.64166 v 3.463636 3.463637 h -15.29772 -15.29773 z"
           id="path1197" />
        <path
           style="fill:#e1a518;stroke-width:0.192424"
           d="m 320.71833,191.49228 c -0.33719,-0.3726 -0.30623,-2.6742 0.91722,-68.17982 0.69639,-37.286812 1.32281,-69.894023 1.392,-72.460482 l 0.12583,-4.666287 h -2.81692 -2.81692 v -15.875 c 0,-9.791276 -0.0694,-15.875 -0.18107,-15.875 -0.0996,0 -0.23177,0.08205 -0.29375,0.182342 -0.10122,0.163772 -0.62017,25.050518 -2.90126,139.132807 -0.62255,31.13497 -0.72144,34.56386 -1.00315,34.78068 -0.34292,0.26395 -1.18107,0.3161 -1.49899,0.0933 -0.11093,-0.0778 -3.48305,-4.6441 -7.49358,-10.14744 -6.31992,-8.67232 -36.57152,-50.12097 -48.16528,-65.99273 -2.25445,-3.08632 -4.03336,-5.71093 -4.17352,-6.15758 -0.13436,-0.42816 -1.51034,-4.10295 -3.05775,-8.166196 -1.54741,-4.063231 -2.81346,-7.455612 -2.81346,-7.538585 0,-0.08299 -0.293,-0.785188 -0.6511,-1.560465 -0.3581,-0.775258 -0.79253,-2.103043 -0.96541,-2.950633 -0.29039,-1.423728 -0.29049,-1.621463 -0.001,-2.597285 0.17208,-0.580909 0.37915,-1.099512 0.46015,-1.152428 0.12567,-0.08211 1.57623,-4.884305 2.41215,-7.985606 0.14263,-0.529167 3.08221,-10.743604 6.53241,-22.698748 5.59907,-19.401078 6.24907,-21.794585 6.04957,-22.276242 l -0.22353,-0.539635 -5.02649,0.05124 -5.02648,0.05126 -0.0501,8.610985 -0.0501,8.610985 h -3.65408 -3.65408 V 24.33055 2.4754243 l 11.1125,0.076885 c 10.82835,0.074918 11.15347,0.088048 12.71467,0.5134476 0.88119,0.2401088 1.63518,0.4035444 1.67554,0.3631892 0.10686,-0.1068628 35.90484,-124.2496861 36.74948,-127.4424961 0.39196,-1.48166 1.25542,-4.46905 1.9188,-6.63863 0.66337,-2.16959 3.60547,-12.30072 6.53799,-22.51364 2.93251,-10.21292 5.47051,-18.9153 5.63996,-19.33864 0.43205,-1.0793 0.78846,-1.44318 1.41351,-1.44318 0.87816,0 0.97195,0.43383 0.8863,4.09932 -0.38038,16.27948 -0.95134,42.60029 -1.19255,54.97492 -0.16194,8.30792 -0.42571,21.383147 -0.5862,29.056063 -0.16048,7.672917 -0.37505,18.323598 -0.47682,23.668182 -0.42393,22.263528 -1.1416,57.3554497 -1.25528,61.38009306 l -0.12221,4.32630684 0.41369,-0.5259281 0.41371,-0.5259282 h 2.96861 c 1.63274,0 2.97495,-0.021648 2.98271,-0.048106 0.008,-0.026458 0.76646,-39.6730516 1.68604,-88.1035426 1.35524,-71.37526 1.72073,-88.11422 1.92948,-88.36574 0.42514,-0.51226 1.53983,-0.6273 1.94733,-0.20096 0.22977,0.24042 2.24927,7.51708 6.02809,21.72062 29.19788,109.746452 45.97175,172.668489 46.11582,172.989395 0.10527,0.234469 0.17788,-3.205403 0.1858,-8.803409 l 0.0129,-9.1882574 h 3.55985 3.55984 V 24.331435 c 0,17.78862 -0.0464,21.837553 -0.25105,21.888257 -0.18392,0.04557 0.76383,3.869709 3.54445,14.301604 2.08752,7.831667 4.0752,15.23519 4.41706,16.452273 l 0.62155,2.212879 -7.73418,15.393939 -7.73417,15.393943 -3.14205,4.32954 c -1.72815,2.38125 -14.84255,20.47875 -29.14314,40.21667 -14.3006,19.73791 -26.23958,36.166 -26.53107,36.50684 -0.68972,0.80654 -1.73274,1.0232 -2.238,0.4649 z M 257.19779,86.306144 c 2.17245,-9.207499 3.991,-16.873104 4.04122,-17.034682 0.0502,-0.161579 -3.19695,2.998989 -7.21593,7.023484 -6.34716,6.35585 -7.34781,7.436504 -7.61598,8.224828 l -0.30873,0.907569 2.02312,5.346219 c 1.11271,2.940415 2.6352,6.946861 3.38331,8.903219 0.74811,1.956359 1.36606,3.688179 1.37322,3.848489 0.0351,0.78514 0.65184,-1.67334 4.31977,-17.219126 z m 3.50999,-19.727371 1.589,-1.695508 2.48054,-10.455236 2.48055,-10.455217 -2.85513,-5.580303 c -1.57032,-3.069167 -2.91583,-5.580303 -2.99002,-5.580303 -0.10544,0 -13.00443,44.302602 -13.47414,46.278029 -0.0767,0.322503 1.747,-1.38072 5.53291,-5.167456 3.10601,-3.10667 6.36234,-6.41148 7.23629,-7.344006 z M 270.64359,29.5891 c 0.40011,-1.719791 0.77256,-3.321338 0.82766,-3.559002 0.0917,-0.395624 0.005,-0.369031 -1.0269,0.315134 -0.61989,0.410979 -1.60333,0.94538 -2.18541,1.187546 -0.58209,0.242146 -1.08659,0.460529 -1.12113,0.485274 -0.10361,0.07424 2.49861,4.697942 2.644,4.697942 0.0739,0 0.46167,-1.407102 0.86178,-3.126894 z m -8.36921,-7.805035 c 0.10261,-0.191731 0.89122,-2.8077 1.75246,-5.813271 1.47074,-5.132647 1.54512,-5.479876 1.22417,-5.714557 -0.86512,-0.6325948 -1.74053,-0.7099301 -8.77806,-0.7754505 l -7.07159,-0.065848 v 6.3588715 6.358851 h 6.34323 c 5.9264,0 6.35549,-0.0229 6.52979,-0.348596 z m 3.51933,-0.927311 c 0.86094,-0.596631 1.81202,-1.960823 2.09204,-3.000741 0.41976,-1.558848 0.18114,-4.359333 -0.44432,-5.214697 -0.2142,-0.292947 -0.41629,0.246957 -1.47881,3.950643 -0.67689,2.359467 -1.26901,4.398183 -1.31581,4.530475 -0.13887,0.392468 0.36591,0.275551 1.1469,-0.26568 z M 275.65598,8.47054 c 1.13826,-4.9167722 30.35598,-128.36193 30.71948,-129.79015 1.38611,-5.44603 2.06921,-8.27311 2.01267,-8.32964 -0.0954,-0.0954 -1.54003,4.33875 -2.21222,6.79025 -0.31921,1.16416 -8.70514,30.258709 -18.63541,64.654541 l -18.05503,62.5378779 0.88452,0.602461 c 1.83255,1.2482176 3.59869,3.4544769 4.25429,5.3144501 0.13987,0.396817 0.31395,0.656589 0.38685,0.577272 0.0729,-0.0793 0.36309,-1.1399787 0.64485,-2.357062 z m 139.23023,38.469146 c -2.52195,-0.218248 -4.5666,-0.786226 -6.83106,-1.897573 -5.01947,-2.463434 -8.04711,-6.996814 -8.93467,-13.378083 -0.13009,-0.935394 -0.20549,-6.554932 -0.20549,-15.318028 V 2.5053886 h 3.64802 3.64804 L 406.2773,16.8891 c 0.0594,12.902065 0.1006,14.511501 0.39951,15.624291 1.33914,4.985423 4.93818,7.692389 10.24261,7.7038 4.89974,0.01058 8.33959,-2.177607 9.90586,-6.301336 0.87836,-2.312554 0.95054,-3.676284 0.95198,-17.988876 l 10e-4,-13.4215904 h 3.65606 3.65606 l -0.002,13.8064394 c -0.002,15.222893 -0.0478,15.993013 -1.17094,19.38018 -1.78079,5.370349 -5.89263,9.223144 -11.37614,10.659418 -0.80978,0.21209 -2.10605,0.438188 -2.88061,0.502419 -0.77457,0.06423 -1.75466,0.145415 -2.178,0.180417 -0.42333,0.035 -1.59231,-0.0075 -2.59772,-0.09458 z m 39.8028,-0.28525 c -5.65999,-1.024293 -9.72893,-4.357774 -11.40027,-9.339657 -0.4588,-1.367578 -0.88136,-3.449897 -0.88441,-4.358255 l -0.002,-0.432954 h 3.63551 3.63549 l 0.2013,1.142788 c 0.55653,3.159433 2.91076,5.585498 6.18982,6.378652 1.48427,0.359025 5.35217,0.309957 7.00367,-0.08884 4.60681,-1.112463 6.70879,-4.716973 4.798,-8.227734 -1.09041,-2.003463 -3.18349,-2.958407 -9.685,-4.418676 -6.13547,-1.378046 -8.89291,-2.531302 -10.98233,-4.593128 -4.25078,-4.194675 -4.06307,-12.03071 0.39653,-16.5526793 2.92768,-2.9686211 6.95535,-4.4447421 12.12519,-4.4438204 8.44843,0.00154 13.97,4.0722684 15.47461,11.4085767 0.16729,0.815764 0.30418,1.791816 0.30418,2.169026 v 0.685838 l -3.60795,-0.05234 -3.60796,-0.05236 -0.0515,-0.577273 c -0.15531,-1.740015 -0.98673,-3.539778 -2.19208,-4.745124 -3.10186,-3.101859 -10.4241,-3.0338563 -13.20253,0.122632 -1.78895,2.032347 -1.84087,5.089064 -0.11417,6.723361 1.41755,1.341678 2.85404,1.889202 8.40042,3.201862 6.68978,1.583267 9.18571,2.610139 11.45817,4.714086 2.2935,2.123421 3.34029,4.720513 3.3695,8.359698 0.0297,3.694469 -0.92217,6.078085 -3.42758,8.583487 -1.33708,1.33708 -1.87883,1.722967 -3.58128,2.550892 -1.10325,0.536517 -2.52543,1.111461 -3.16043,1.277639 -3.26841,0.855287 -8.12133,1.102148 -11.09342,0.564303 z M 177.24227,27.905388 V 9.6250854 h -6.35 -6.35 V 6.065237 2.5053886 h 16.35606 16.35606 V 6.065237 9.6250854 h -6.35 -6.35 V 27.905388 46.185691 h -3.65606 -3.65606 z M 203.02712,24.34554 V 2.5053886 h 15.29773 15.29772 v 3.4636363 3.4636363 h -11.64166 -11.64167 v 5.5803028 5.580303 h 11.16061 11.1606 v 3.463636 3.463637 h -11.1606 -11.16061 v 5.868939 5.868939 h 11.64167 11.64166 v 3.463636 3.463637 h -15.29772 -15.29773 z"
           id="path1195" />
        <path
           style="fill:#60605f;stroke-width:0.192424"
           d="m 320.71833,191.49228 c -0.33719,-0.3726 -0.30623,-2.6742 0.91722,-68.17982 0.69639,-37.286812 1.32281,-69.894023 1.392,-72.460482 l 0.12583,-4.666287 h 0.74293 0.74293 V 24.34554 c 0,-21.328528 -0.008,-21.8401514 -0.36561,-21.8401514 -0.35186,0 -0.36183,-0.1750195 -0.26537,-4.6662878 0.0551,-2.5664582 0.80526,-42.2131328 1.66695,-88.1037218 1.26958,-67.612189 1.61554,-83.496249 1.82411,-83.747559 0.42502,-0.51211 1.53972,-0.62704 1.94739,-0.20078 0.23031,0.24084 2.31117,7.74921 6.23291,22.49032 3.23794,12.17083 14.91176,55.942538 25.94181,97.270454 l 20.05464,75.141665 0.0662,6.638617 c 0.0438,4.398895 0.002,6.573712 -0.12506,6.446212 -0.10518,-0.105814 -4.9011,-7.162973 -10.65761,-15.682556 L 360.49324,2.6016007 356.70941,2.5494268 352.9256,2.4972529 V 24.34148 46.185691 h 3.65493 3.65492 l 0.0492,-15.618922 0.0492,-15.618902 9.32238,13.838978 c 5.12732,7.611456 9.87352,14.638039 10.54712,15.61463 l 1.22474,1.775634 3.49225,0.0524 3.49225,0.0524 3.79259,14.239393 c 2.08591,7.831667 4.07227,15.23519 4.41413,16.452273 l 0.62155,2.212879 -7.73418,15.393939 -7.73417,15.393947 -3.14205,4.32954 c -1.72815,2.38125 -14.84255,20.47875 -29.14314,40.21667 -14.3006,19.73791 -26.23958,36.166 -26.53107,36.50684 -0.68972,0.80654 -1.73274,1.0232 -2.238,0.4649 z M 342.34227,24.34554 V 2.5053886 h -3.65606 -3.65606 V 24.34554 46.185691 h 3.65606 3.65606 z m -30.70095,164.27925 c -0.11093,-0.0778 -3.48305,-4.6441 -7.49358,-10.14744 -6.31992,-8.67232 -36.57152,-50.12097 -48.16528,-65.99273 -2.25445,-3.08632 -4.03336,-5.71093 -4.17352,-6.15758 -0.13436,-0.42816 -1.51034,-4.10295 -3.05775,-8.166196 -1.54741,-4.063231 -2.81346,-7.455612 -2.81346,-7.538585 0,-0.08299 -0.293,-0.785188 -0.6511,-1.560465 -0.3581,-0.775258 -0.79253,-2.103043 -0.96541,-2.950633 -0.29039,-1.423728 -0.29049,-1.621463 -0.001,-2.597285 0.17208,-0.580909 0.37915,-1.099512 0.46015,-1.152428 0.1145,-0.0748 1.69136,-5.240117 2.26162,-7.408334 0.46523,-1.768879 12.81864,-44.503454 12.91555,-44.679176 0.0741,-0.134312 0.39428,0.272242 0.77361,0.98221 l 0.64724,1.211388 -6.76094,23.436695 c -3.71852,12.890172 -6.73247,23.465154 -6.69768,23.499945 0.0622,0.06219 10.26857,-10.17828 12.98162,-13.024947 l 1.38592,-1.454208 2.47462,-10.456352 2.47461,-10.456372 0.62175,1.086697 0.62174,1.086697 h 4.33755 4.33756 l -0.27655,-0.432955 c -0.1521,-0.238125 -1.80416,-3.203863 -3.67126,-6.59053 l -3.39472,-6.157576 0.36091,-1.443181 c 0.1985,-0.79375 0.59571,-2.454237 0.88269,-3.689947 0.46568,-2.005272 0.60322,-2.336223 1.27948,-3.078788 0.92965,-1.020829 1.98271,-2.719397 2.38162,-3.841519 0.86851,-2.443076 1.08879,-5.640243 0.57399,-8.330853 l -0.28017,-1.464349 0.96594,-4.0847813 c 17.228,-72.8548497 30.09303,-127.1908817 30.39842,-128.3908217 1.38732,-5.45112 2.06918,-8.27311 2.01264,-8.32964 -0.0939,-0.0939 -1.53632,4.32458 -2.18526,6.69404 -0.85018,3.10419 -36.63759,127.0868143 -36.70592,127.1646884 -0.10407,0.1186296 -1.81529,-0.5942195 -1.81529,-0.7561984 0,-0.084903 8.0881,-28.193536 17.97355,-62.463629 9.88546,-34.270093 18.29425,-63.521531 18.68622,-65.003201 0.39196,-1.48166 1.25542,-4.46905 1.91879,-6.63863 0.66338,-2.16959 3.60547,-12.30072 6.53799,-22.51364 2.93252,-10.21292 5.47052,-18.9153 5.63997,-19.33864 0.43205,-1.0793 0.78845,-1.44318 1.41351,-1.44318 0.87816,0 0.97195,0.43383 0.8863,4.09932 -0.38038,16.27948 -0.95134,42.60029 -1.19255,54.97492 -0.16194,8.30792 -0.4257,21.383147 -0.58612,29.056063 -0.16045,7.672917 -0.37708,18.410189 -0.48143,23.860606 -0.10433,5.450416 -0.44623,22.413031 -0.75979,37.694698 l -0.57009,27.7848475 -0.83851,1.078786 c -0.4612,0.5933402 -3.36918,4.3883695 -6.46221,8.4334155 -3.09302,4.045046 -5.68442,7.390091 -5.75866,7.433406 -0.0743,0.04333 -3.20897,-3.975427 -6.96606,-8.930582 l -6.83106,-9.0093509 -3.41553,-0.011545 -3.41553,-0.011555 V 24.34554 46.185691 h 3.65495 3.65495 l 0.0492,-15.909328 0.0492,-15.909329 6.5388,8.502208 c 3.59634,4.676217 6.59756,8.480001 6.66939,8.452889 0.0718,-0.02713 2.96207,-3.712749 6.42277,-8.190288 3.46069,-4.47752 6.32219,-8.110951 6.35886,-8.074275 0.0367,0.03669 -0.40297,23.442853 -0.97699,52.013696 -0.574,28.570843 -1.3553,67.533366 -1.73619,86.583366 -0.6243,31.22414 -0.72331,34.66005 -1.00507,34.87689 -0.34297,0.26395 -1.18111,0.3161 -1.49903,0.0933 z M 257.19779,86.306144 c 2.17245,-9.207499 3.991,-16.873104 4.04122,-17.034682 0.0502,-0.161579 -3.19695,2.998989 -7.21593,7.023484 -6.34716,6.35585 -7.34781,7.436504 -7.61598,8.224828 l -0.30873,0.907569 2.02312,5.346219 c 1.11271,2.940415 2.6352,6.946861 3.38331,8.903219 0.74811,1.956359 1.36606,3.688179 1.37322,3.848489 0.0351,0.78514 0.65184,-1.67334 4.31977,-17.219126 z m 5.21287,-64.798862 c 0.0785,-0.238125 0.81034,-2.753629 1.62622,-5.59002 0.81588,-2.836391 1.54347,-5.217122 1.61686,-5.290512 0.0734,-0.07339 0.46598,0.223039 0.87241,0.658745 l 0.73896,0.792211 -1.37076,4.740736 -1.37076,4.740756 -0.68195,0.189442 c -0.37507,0.104198 -0.88261,0.189942 -1.12787,0.190519 -0.37661,0 -0.42372,-0.06621 -0.30311,-0.431877 z"
           id="path1193" />
        <path
           style="fill:#2c2a25;stroke-width:0.192424"
           d="m 320.61303,191.30103 c -0.12848,-0.24007 0.24746,-23.5311 1.14531,-70.95644 0.73512,-38.829482 1.33769,-71.400017 1.33904,-72.378975 l 0.002,-1.779924 h 0.7697 0.7697 V 24.34554 c 0,-19.2851808 -0.0338,-21.8401514 -0.28864,-21.8401514 -0.24372,0 -0.2879,-0.4415443 -0.2839,-2.8382575 0.003,-1.5610416 0.73009,-41.1871091 1.61667,-88.0579261 1.54078,-81.456485 1.62766,-85.235075 1.96763,-85.568545 0.49898,-0.48945 1.24803,-0.6338 1.67332,-0.32246 0.26449,0.19362 1.21093,3.47389 3.69586,12.80945 1.83717,6.90205 13.51967,50.76326 25.96111,97.469366 l 22.62079,84.920178 -0.0507,6.347806 -0.0507,6.347806 -8.5192,-12.619239 C 368.29587,14.052979 363.57576,7.0754643 362.49228,5.4879643 l -1.96994,-2.8863636 -3.79836,-0.052174 -3.79834,-0.052174 V 24.34148 46.185691 h 3.65493 3.65492 l 0.0492,-15.605625 0.0492,-15.605625 6.3781,9.496155 c 3.50795,5.222894 8.22715,12.242665 10.48712,15.599506 l 4.10903,6.103351 3.50433,0.0062 3.50431,0.0062 0.22341,0.817803 c 0.12288,0.449791 1.98992,7.398712 4.14901,15.442045 2.15908,8.043333 4.05117,15.056561 4.20466,15.584958 l 0.27908,0.960717 -1.26227,2.695344 c -0.69425,1.482436 -2.95723,6.029094 -5.02887,10.103677 -2.07162,4.074583 -4.99797,9.876173 -6.503,12.892423 -1.50502,3.01625 -2.9321,5.72979 -3.17126,6.03009 -0.23919,0.30031 -13.36666,18.3978 -29.17215,40.21667 -15.8055,21.81887 -28.94511,39.90878 -29.19911,40.19983 -0.5756,0.65951 -1.90721,0.76238 -2.22329,0.17177 z M 342.53469,24.34554 V 2.5053886 h -3.75227 -3.75227 V 24.34554 46.185691 h 3.75227 3.75227 z M 311.5987,188.43531 c -0.21075,-0.18521 -5.87672,-7.87015 -12.59105,-17.07765 -33.78076,-46.32427 -45.67359,-62.60713 -46.24485,-63.31533 -0.34492,-0.42759 -0.71251,-1.07702 -0.81687,-1.44318 -0.10436,-0.36615 -1.4989,-4.10972 -3.09898,-8.319023 -1.60007,-4.209318 -2.90922,-7.738321 -2.90922,-7.842249 0,-0.103909 -0.21767,-0.640119 -0.4837,-1.191568 -0.46957,-0.973378 -1.24812,-3.839518 -1.24812,-4.594783 0,-0.205413 0.22288,-0.912957 0.49529,-1.572318 0.27241,-0.659342 0.53508,-1.415299 0.5837,-1.679883 0.0951,-0.517602 0.82418,-3.165821 1.43028,-5.195454 0.28677,-0.960293 11.52103,-39.971883 13.01974,-45.211768 l 0.30044,-1.050386 0.63887,1.267248 0.63886,1.267248 -6.82164,23.643744 c -3.7519,13.004068 -6.82169,23.663139 -6.82177,23.686808 -3.8e-4,0.151514 14.20504,-14.322829 14.46011,-14.733751 0.17439,-0.28094 1.3752,-5.013537 2.66847,-10.51687 1.29327,-5.503333 2.4122,-10.072716 2.48651,-10.154189 0.0743,-0.08147 0.33871,0.286539 0.58753,0.817804 l 0.45242,0.965931 h 4.40422 c 2.42233,0 4.3657,-0.06494 4.31861,-0.144318 -1.69244,-2.852921 -7.0548,-12.884727 -7.0498,-13.188642 0.004,-0.23395 0.37819,-1.952279 0.83187,-3.818486 0.79224,-3.258839 0.85938,-3.433965 1.69665,-4.425758 1.47302,-1.744864 2.36875,-3.608166 2.83667,-5.900824 0.28649,-1.403715 0.25416,-4.687319 -0.061,-6.192077 l -0.26108,-1.246601 15.75242,-66.582935 c 8.66383,-36.620611 15.96455,-67.27566 16.22383,-68.12233 0.55483,-1.81172 1.84463,-7.12021 1.84038,-7.5745 -0.003,-0.27359 -0.0274,-0.27703 -0.18929,-0.0262 -0.26878,0.41636 -1.88785,5.51951 -2.50305,7.88939 -0.89641,3.45315 -36.59981,127.0871857 -36.74788,127.2508425 -0.10904,0.1205346 -0.84483,-0.1209386 -1.69348,-0.5557712 -0.0297,-0.01524 8.03567,-28.0732573 17.92312,-62.3511583 9.88745,-34.277902 18.25469,-63.362553 18.59386,-64.632553 0.33918,-1.27 1.25224,-4.43056 2.02903,-7.02348 1.85639,-6.19661 11.82699,-40.7748 11.82699,-41.01618 0,-0.103 0.21431,-0.65577 0.47622,-1.22839 0.57685,-1.26112 1.28083,-1.588 1.86534,-0.86615 0.2981,0.36815 0.3526,0.79496 0.35379,2.77105 0,1.28474 -0.0887,3.59145 -0.19876,5.12603 -0.11006,1.53459 -0.45789,16.47152 -0.77293,33.19319 -0.31503,16.72166 -0.70635,36.594275 -0.8696,44.161358 -0.16325,7.567083 -0.37011,18.087879 -0.4597,23.379545 -0.0896,5.291667 -0.44021,22.864156 -0.77918,39.049978 l -0.61632,29.428767 -6.45432,8.430702 c -3.54987,4.636886 -6.52054,8.430703 -6.60148,8.430703 -0.0809,0 -3.20744,-4.024091 -6.94776,-8.942436 l -6.8006,-8.9424351 -3.41553,-0.00529 -3.41553,-0.00529 V 24.34554 46.185691 h 3.65495 3.65495 l 0.0492,-15.883005 0.0492,-15.882985 6.52538,8.474652 c 3.58895,4.661073 6.58146,8.474671 6.65002,8.474671 0.0686,0 2.96784,-3.682095 6.44284,-8.182417 3.47501,-4.500322 6.33575,-8.158788 6.35723,-8.129924 0.0215,0.02886 -0.24155,13.863743 -0.58449,30.744159 -0.34296,16.880417 -1.12256,55.803028 -1.73247,86.494698 -1.19907,60.33862 -1.0544,56.47651 -2.1155,56.47651 -0.23645,0 -0.60235,-0.15153 -0.81309,-0.33674 z M 257.16288,86.738887 c 2.20508,-9.339676 4.0581,-17.197704 4.11782,-17.462288 l 0.10859,-0.48106 -0.43705,0.384848 c -0.24038,0.211667 -3.61947,3.634047 -7.50909,7.605299 -6.55819,6.695844 -7.08214,7.280313 -7.21119,8.044141 -0.12806,0.757978 0.13454,1.544262 3.29204,9.857201 1.88716,4.968432 3.47585,9.033412 3.53042,9.033302 0.0546,-1e-4 1.90337,-7.641747 4.10846,-16.981443 z m 6.75588,-70.21164 c 0.8683,-3.002434 1.61885,-5.577071 1.66789,-5.721427 0.11236,-0.330681 1.24547,0.573655 1.42415,1.136631 0.13315,0.419484 -2.31795,9.179944 -2.67551,9.562541 -0.12246,0.131041 -0.62149,0.292928 -1.10896,0.359737 l -0.8863,0.121478 z"
           id="path1191" />
        <path
           style="fill:#070804;stroke-width:0.192424"
           d="m 320.722,191.22546 c -0.23116,-0.37061 -0.23455,-2.19246 -0.0234,-12.65189 0.13564,-6.72042 0.7391,-39.06212 1.34103,-71.87046 0.60192,-32.808329 1.13164,-59.84634 1.17719,-60.084465 0.0694,-0.362623 0.20724,-0.432954 0.84884,-0.432954 h 0.76602 V 24.34554 c 0,-21.7118679 -0.002,-21.8401514 -0.38485,-21.8401514 -0.3307,0 -0.38498,-0.1285798 -0.38573,-0.9140151 0,-0.5027083 0.73641,-40.1396965 1.63755,-88.0821955 l 1.63845,-87.168178 0.40421,-0.33674 c 0.74133,-0.61758 2.0934,-0.26985 2.0934,0.53839 0,0.14871 3.68564,14.10531 8.19029,31.01467 4.50465,16.90935 9.95432,37.36849 12.11035,45.464737 2.15606,8.09625 7.78385,29.224432 12.50623,46.951515 4.72236,17.727083 10.92119,40.9967571 13.77515,51.7103883 l 5.18901,19.4793247 -0.0525,3.389919 -0.0526,3.389918 -5.81181,-21.8109021 C 333.59008,-151.85858 334.78571,-147.40521 334.53512,-147.15463 c -0.0737,0.0737 0.13529,1.6359 0.62441,4.66836 0.43579,2.70184 0.40798,2.54508 0.73366,4.13712 0.16237,0.79375 0.34292,1.74625 0.4012,2.11666 0.1707,1.08474 0.22972,1.39357 0.44437,2.32594 0.1118,0.48552 0.24796,1.22154 0.30259,1.63561 0.0546,0.41406 0.13977,0.92603 0.18917,1.1377 0.18209,0.78002 1.26865,6.36877 1.3468,6.92727 0.0444,0.3175 0.2162,1.20709 0.38176,1.97687 0.16557,0.76979 0.34419,1.72229 0.39698,2.11667 0.0949,0.70934 0.18938,1.22602 0.39493,2.16025 0.19552,0.88868 1.85064,9.5196 1.91883,10.00606 0.0371,0.26458 0.2028,1.11088 0.36825,1.88066 0.16544,0.76978 0.34349,1.72228 0.39566,2.11667 0.11005,0.83212 0.23624,1.48088 0.37636,1.93508 0.0545,0.17676 0.14303,0.62444 0.1967,0.99486 0.0536,0.37042 0.22998,1.322915 0.39185,2.116665 0.16189,0.79375 0.33507,1.702955 0.38485,2.020455 0.0498,0.3175 0.22298,1.226704 0.38485,2.020454 0.16188,0.79375 0.34201,1.74625 0.4003,2.116667 0.1707,1.084734 0.22971,1.393571 0.44436,2.325937 0.1118,0.485517 0.24796,1.22154 0.30259,1.635606 0.0546,0.414068 0.13978,0.926032 0.18917,1.137699 0.18209,0.780026 1.26865,6.368779 1.3468,6.927273 0.0444,0.3175 0.21621,1.207094 0.38177,1.976876 0.16556,0.769781 0.34369,1.722281 0.39585,2.116666 0.0522,0.394385 0.14374,0.933541 0.20353,1.198124 0.18784,0.831329 1.05358,5.26466 1.1461,5.868939 0.0486,0.3175 0.26443,1.443182 0.47963,2.501515 0.21519,1.058334 0.42757,2.184016 0.47196,2.501516 0.0444,0.3175 0.21615,1.207094 0.38171,1.976876 0.16557,0.769781 0.34369,1.722281 0.39586,2.116666 0.0522,0.394385 0.14374,0.933541 0.20353,1.198124 0.22086,0.977521 1.06029,5.310543 1.13699,5.868939 0.0436,0.3175 0.21473,1.207095 0.38029,1.976877 0.16556,0.769781 0.34369,1.722281 0.39586,2.116666 0.0995,0.75267 0.13635,0.940768 0.46364,2.369516 0.11122,0.485517 0.24742,1.22154 0.30267,1.635606 0.0989,0.740943 0.19065,1.24588 0.39914,2.196032 0.20853,0.950228 1.08314,5.486956 1.14929,5.961503 0.0372,0.26659 0.20294,1.114531 0.36838,1.884313 0.16545,0.769781 0.3435,1.722281 0.39566,2.116666 0.0996,0.75267 0.13636,0.940768 0.46365,2.369516 0.11122,0.485517 0.24692,1.22154 0.30155,1.635606 0.11414,0.865043 0.23893,1.510844 0.38086,1.970875 0.0545,0.176753 0.14303,0.624437 0.1967,0.994854 0.0537,0.370417 0.22999,1.322917 0.39185,2.116667 0.16189,0.79375 0.33507,1.702954 0.38485,2.020454 0.0498,0.3175 0.22298,1.226705 0.38485,2.020455 0.16189,0.79375 0.34201,1.74625 0.4003,2.116666 0.22862,1.452817 0.41158,2.404124 0.54618,2.839909 0.0569,0.1843 0.14278,0.638159 0.1908,1.008576 0.048,0.370417 0.22324,1.30552 0.38936,2.078009 0.16612,0.772487 0.3393,1.681691 0.38484,2.0204542 0.0455,0.338761 0.21873,1.2479655 0.38485,2.0204545 0.16612,0.7724871 0.3393,1.6816916 0.38485,2.0204545 0.0455,0.338761 0.21825,1.2457526 0.38381,2.0155342 0.16556,0.7697817 0.34419,1.7222816 0.39697,2.1166667 0.0931,0.6955039 0.1971,1.2678544 0.37515,2.06403277 0.35753,1.59875683 1.24147,6.34055183 1.19134,6.39069763 -0.0344,0.034367 -0.69332,-0.8915977 -1.46433,-2.0576694 L 360.57,2.5053886 h -3.91841 -3.91841 V 24.34554 46.185691 h 3.75113 3.75114 l 0.0492,-15.538258 0.0492,-15.538257 3.29292,4.912591 c 3.42284,5.106439 3.4645,5.180407 3.62587,6.440439 0.0542,0.423334 0.14665,0.986175 0.20541,1.250758 0.25481,1.147291 1.06359,5.350433 1.14783,5.965151 0.0975,0.710989 0.13782,0.914631 0.46111,2.325947 0.11122,0.485506 0.24692,1.221529 0.30155,1.635606 0.0546,0.414059 0.13978,0.926023 0.18917,1.13769 0.2052,0.878974 1.27273,6.401838 1.35761,7.023484 0.0971,0.711123 0.13703,0.912668 0.46184,2.330758 0.11182,0.488161 0.24165,1.180888 0.2885,1.539394 0.0469,0.358506 0.17676,1.051233 0.28864,1.539394 0.11189,0.488161 0.24678,1.180888 0.29977,1.539394 0.053,0.358505 0.27242,1.517727 0.48763,2.57606 0.21518,1.058333 0.42756,2.184015 0.47196,2.501515 0.0444,0.3175 0.21615,1.207097 0.38171,1.976871 0.16556,0.769793 0.34682,1.764241 0.40282,2.209915 0.056,0.445674 0.2083,0.91007 0.33843,1.03201 0.13014,0.121939 4.21981,2.712643 9.08814,5.75714 4.86834,3.044498 9.17808,5.740881 9.57723,5.991956 0.60862,0.382867 0.7436,0.409883 0.83662,0.167487 0.061,-0.158962 -1.58608,-6.655551 -3.66018,-14.43686 -2.0741,-7.781309 -3.77109,-14.191114 -3.77109,-14.244012 0,-0.0529 0.41866,-0.09617 0.93033,-0.09617 h 0.93033 l 3.9082,14.672348 c 2.14951,8.069791 4.1121,15.302807 4.36133,16.07337 0.24923,0.770563 0.45314,1.647536 0.45314,1.948834 0,0.333202 -1.96765,4.457873 -5.02292,10.529281 -2.76262,5.489806 -6.21321,12.362713 -7.66798,15.273133 -2.16273,4.32674 -2.9782,5.74781 -4.47203,7.79318 -1.00484,1.37583 -5.02697,6.91765 -8.93807,12.31515 -3.91112,5.3975 -16.12642,22.25156 -27.14511,37.45344 -11.01871,15.2019 -20.26387,27.98712 -20.54479,28.41163 -0.71594,1.08183 -1.97741,1.37171 -2.47785,0.5694 z m 68.14264,-99.925849 c 4.91307,-9.834514 6.16658,-12.493028 6.01986,-12.767175 -0.10191,-0.190442 -4.10749,-2.800254 -8.90126,-5.79959 -4.79379,-2.999316 -9.14352,-5.737128 -9.66607,-6.084011 -1.29161,-0.857404 -1.47493,-0.67691 -1.13555,1.118004 0.14336,0.758132 0.21742,1.421668 0.1646,1.474508 -0.0528,0.05282 0,0.211167 0.11622,0.351848 0.11675,0.140681 0.16308,0.383982 0.10293,0.540693 -0.0601,0.15671 -0.0346,0.331104 0.0567,0.387523 0.14892,0.09204 0.41979,1.483726 0.48995,2.517178 0.0146,0.217016 0.0935,0.502574 0.17513,0.634596 0.0816,0.132003 0.10115,0.362989 0.0435,0.513292 -0.0577,0.150283 -0.0179,0.326986 0.0884,0.39268 0.10627,0.06567 0.17578,0.263275 0.15445,0.439112 -0.0213,0.175837 0.0108,0.44958 0.0712,0.60833 0.14334,0.376036 1.11054,5.543665 1.07207,5.727835 -0.0162,0.0776 0.0241,0.270991 0.0896,0.429741 0.1416,0.343246 0.71887,3.419013 0.6786,3.61567 -0.0154,0.07512 0.0245,0.266489 0.0885,0.425239 0.19553,0.484235 0.71274,3.52931 0.61591,3.626138 -0.0499,0.0499 0.005,0.205837 0.12156,0.346518 0.11674,0.140681 0.16308,0.383982 0.10293,0.540693 -0.0601,0.15671 -0.0224,0.338666 0.0839,0.40436 0.10628,0.06567 0.17578,0.263275 0.15446,0.439112 -0.0213,0.175837 0.011,0.44958 0.0717,0.60833 0.13922,0.363644 0.91605,4.583873 0.87792,4.769389 -0.0156,0.07558 0.0253,0.267316 0.0908,0.426066 0.20328,0.492702 0.72057,3.51892 0.61889,3.6206 -0.0529,0.0529 0,0.21137 0.11604,0.35206 0.11674,0.14068 0.16307,0.38398 0.10292,0.54069 -0.0601,0.15671 -0.0191,0.34076 0.0915,0.40902 0.11043,0.0682 0.15808,0.28742 0.10587,0.48704 -0.0522,0.1996 -0.0165,0.41142 0.0795,0.47069 0.0959,0.0593 0.17435,0.27584 0.17435,0.48125 0,0.22833 0.13172,0.3735 0.3389,0.3735 0.25598,0 1.85687,-3.03857 6.54408,-12.420929 z M 342.53469,24.34554 V 2.5053886 h -3.84848 -3.84849 V 24.34554 46.185691 h 3.84849 3.84848 z m -30.53503,164.26301 c -0.37332,-0.11107 -12.92126,-17.19549 -52.45433,-71.41832 -3.27937,-4.49791 -6.26007,-8.5465 -6.62377,-8.99687 -0.36371,-0.45035 -0.73069,-1.05648 -0.8155,-1.34697 -0.0848,-0.29046 -1.50739,-4.08507 -3.16128,-8.432431 -1.65388,-4.347364 -3.00705,-8.04418 -3.00705,-8.21513 0,-0.170969 -0.16679,-0.597208 -0.37064,-0.947208 -0.20385,-0.35002 -0.60499,-1.547322 -0.89143,-2.660708 l -0.52079,-2.024322 0.52671,-1.24689 c 0.28969,-0.685781 0.5706,-1.506663 0.62425,-1.824163 0.10639,-0.62965 0.24288,-1.107844 8.70538,-30.499241 3.18432,-11.059583 5.85268,-20.257539 5.92969,-20.439899 0.10994,-0.26035 0.26934,-0.09504 0.7422,0.769697 l 0.60218,1.101263 -6.80553,23.571969 c -3.74305,12.964583 -6.78184,23.646206 -6.75288,23.736954 0.029,0.09075 3.34354,-3.199708 7.36572,-7.312121 l 7.31305,-7.477106 2.37232,-10.102273 c 1.30478,-5.556249 2.43472,-10.17066 2.51099,-10.254268 0.0763,-0.08359 0.34721,0.241127 0.6021,0.721591 l 0.46344,0.873587 h 4.37798 c 2.40789,0 4.37798,-0.03898 4.37798,-0.08661 0,-0.04764 -1.61526,-3.00509 -3.58948,-6.572135 l -3.58947,-6.485505 0.89569,-3.742574 c 0.87704,-3.664624 0.91336,-3.762221 1.74366,-4.685723 1.72808,-1.922049 2.70029,-4.278611 3.00992,-7.295803 0.18644,-1.816851 0.16175,-2.270048 -0.30906,-5.671801 -0.083,-0.599863 3.3353,-15.3112544 15.49254,-66.674999 8.57949,-36.247916 15.89678,-66.901101 16.26065,-68.118181 0.77386,-2.58846 2.2204,-8.37707 2.2204,-8.88538 0,-0.19304 -0.0763,-0.35098 -0.16955,-0.35098 -0.22215,0 -2.57974,7.15762 -3.0106,9.14015 -0.33429,1.53819 -36.32155,126.5287511 -36.60045,127.1202613 -0.13486,0.2860579 -0.2166,0.2828444 -0.95891,-0.037523 -0.76554,-0.3304001 -0.80133,-0.3807806 -0.63223,-0.8899698 0.29281,-0.8816417 34.75348,-120.4183085 36.07954,-125.1521785 0.66978,-2.39101 1.86905,-6.54737 2.66504,-9.23636 0.796,-2.68899 3.66212,-12.59567 6.36916,-22.01484 5.84656,-20.34314 5.63695,-19.6713 6.28813,-20.15625 0.6487,-0.4831 1.22138,-0.21912 1.39369,0.64241 0.18331,0.91648 0.1488,4.01768 -0.0747,6.71763 -0.10952,1.32292 -0.45673,15.65371 -0.77156,31.84621 -0.31484,16.1925 -0.74283,38.100002 -0.95111,48.683335 -0.20826,10.583333 -0.41626,21.537083 -0.46221,24.341667 -0.0459,2.804583 -0.35057,17.568332 -0.67696,32.808332 -0.32639,15.24 -0.59444,28.66427829 -0.59565,29.8317296 l -0.002,2.1226414 -6.49432,8.499612 c -3.57187,4.674773 -6.55083,8.482079 -6.61991,8.460682 -0.0691,-0.0214 -3.17482,-4.043738 -6.90164,-8.938529 l -6.77614,-8.8996217 h -3.53738 -3.53737 V 24.34554 46.185691 h 3.75227 3.75227 V 30.292622 14.399554 l 6.49432,8.425603 c 3.57188,4.634057 6.59561,8.457103 6.71942,8.495607 0.20046,0.06238 2.77749,-3.177328 10.41888,-13.098067 l 2.34465,-3.044036 0.008,1.216005 c 0.0177,2.727325 -3.30619,169.486924 -3.40047,170.599214 -0.0582,0.68724 -0.22527,1.32761 -0.38896,1.49129 -0.30875,0.30876 -0.33451,0.31203 -0.96866,0.12338 z M 257.27113,86.546963 c 2.26012,-9.551304 4.15297,-17.49602 4.20632,-17.654924 0.11016,-0.328083 -13.23462,12.894599 -14.39862,14.266872 -1.40887,1.660968 -1.47619,1.339273 2.44438,11.682345 1.8909,4.988483 3.48313,9.070364 3.5383,9.070844 0.0552,0 1.94949,-7.813832 4.20962,-17.365137 z m 58.26319,-95.0458355 c -0.0614,-0.1535026 -0.10703,-0.1079077 -0.11626,0.1162569 -0.008,0.202846 0.0371,0.3164975 0.10108,0.2525569 0.0639,-0.063941 0.0708,-0.2299085 0.0152,-0.3688138 z M 262.57419,21.41107 c 0.0652,-0.291042 0.79412,-2.855595 1.61981,-5.69899 l 1.50124,-5.169824 0.70458,0.725478 c 0.38751,0.399011 0.70457,0.784379 0.70457,0.856384 0,0.117899 -1.35175,4.845762 -2.31873,8.109931 -0.37314,1.25959 -0.38935,1.279218 -1.23157,1.491288 -1.1346,0.285693 -1.11568,0.291754 -0.9799,-0.314267 z"
           id="path1189" />
      </g>
    </g>
  </g>
</svg>
