<svg width="100%" height="100%" viewBox="0 0 1493 1546" version="1.1" xmlns="http://www.w3.org/2000/svg" xmlns:xlink="http://www.w3.org/1999/xlink" xml:space="preserve" xmlns:serif="http://www.serif.com/" style="fill-rule:evenodd;clip-rule:evenodd;stroke-linejoin:round;stroke-miterlimit:2;"><rect id="icon-grayscale" serif:id="icon grayscale" x="0" y="-0" width="1492.83" height="1545.9" style="fill:#fff;fill-opacity:0;"/><g id="container"><g id="outline"><g id="fill"><path d="M93.833,384.934l0.995,726.455l650.041,347.319l1.542,-760.322l-652.578,-313.452Z" style="fill:#fff;"/><path d="M748.377,84.846l644.619,306.77l-646.585,306.77l-652.578,-313.452l654.544,-300.088Z" style="fill:#fff;"/><path d="M1393,1114.21l0,-722.594l-644.619,306.77l-0,753.365l644.619,-337.541Z" style="fill:#dedede;"/></g><path d="M742.895,708.236c-0.447,0.042 -1.359,0.182 -3.02,0.552c-1.803,0.401 -3.348,-1.595 -5.038,-2.407c-17.607,-8.462 -36.58,-17.615 -56.546,-27.337c-220.042,-107.157 -563.909,-276.606 -563.909,-276.606c-3.236,-1.552 -4.603,-5.44 -3.051,-8.677c1.552,-3.236 5.441,-4.604 8.677,-3.051c0,-0 347.383,162.118 568.681,266.656c20.079,9.486 39.093,18.554 56.713,26.989c1.691,0.81 4.214,0.765 5.03,2.422c0.751,1.526 1.213,2.325 1.46,2.701c0.94,1.453 -1.327,-3.335 -2.668,3.044c3.237,1.552 4.604,5.44 3.051,8.677c-1.552,3.236 -5.44,4.604 -8.677,3.051c-4.135,5.038 1.017,3.81 -0.703,3.986Z" style="fill:#808080;"/><path d="M749.732,709.387c0,0 24.114,-11.5 62.714,-30.381c54.712,-26.763 138.437,-68.49 224.94,-111.094c164.171,-80.858 337.769,-165.9 337.769,-165.9c3.002,-1.442 4.268,-5.05 2.826,-8.051c-1.443,-3.002 -5.051,-4.268 -8.052,-2.825c-0,-0 -174.867,82.402 -340.576,160.058c-87.314,40.917 -172.207,80.215 -227.288,106.21c-38.859,18.339 -62.905,29.981 -62.905,29.981c-6.072,2.917 -8.633,10.216 -5.715,16.287c2.917,6.072 10.215,8.633 16.287,5.715Z" style="fill:#808080;"/><path d="M732.241,698.452c-0,-0 0.059,27.906 0.561,72.788c2.063,184.354 9.606,655.068 9.606,655.068c0.017,3.294 2.706,5.954 6.001,5.937c3.294,-0.018 5.954,-2.707 5.937,-6.002c-0,0 2.458,-470.768 2.53,-655.133c0.017,-44.884 -0.225,-72.79 -0.225,-72.79c-0.036,-6.736 -5.535,-12.176 -12.271,-12.139c-6.736,0.036 -12.176,5.535 -12.139,12.271Z" style="fill:#808080;"/><path d="M782.578,44.637c-19.693,-9.122 -42.371,-9.265 -62.177,-0.395l-633.861,283.883c-27.187,12.176 -44.591,39.287 -44.342,69.075l5.838,699.685c0.231,27.638 15.643,52.909 40.11,65.766l628.022,330.016c21.973,11.546 48.234,11.474 70.143,-0.194l621.485,-330.98c24.606,-13.104 39.913,-38.775 39.745,-66.652c-0,0 -4.216,-696.693 -4.216,-696.693c-0.176,-29.053 -17.114,-55.39 -43.477,-67.601l-617.27,-285.91Zm-31.522,68.054l617.27,285.911l4.216,696.693l-621.486,330.981l-628.023,-330.016l-5.838,-699.686l633.861,-283.883Z" style="fill:#757575;"/></g><g><path id="lock" d="M546.995,418.805l13.036,-6.057l-44.204,-22.244c-56.085,-28.225 -52.252,-74.168 8.548,-102.417c60.798,-28.247 155.889,-28.266 211.976,-0.042l44.204,22.245l13.034,-6.056c13.29,-6.175 34.001,-6.179 46.261,-0.01l183.202,92.193c12.26,6.169 11.425,16.175 -1.865,22.35l-246.595,114.571c-13.29,6.175 -34,6.179 -46.26,0.01l-183.202,-92.192c-12.26,-6.17 -11.424,-16.177 1.865,-22.351Zm215.877,11.929l36.387,18.311c11.91,5.993 32.032,5.989 44.943,-0.009c12.911,-5.999 13.722,-15.721 1.812,-21.714l-36.386,-18.311c2.395,-7.294 -1.853,-14.895 -12.969,-20.489c-19.261,-9.693 -51.8,-9.686 -72.68,0.014c-20.879,9.701 -22.191,25.422 -2.93,35.115c11.117,5.594 26.655,7.95 41.823,7.083Zm-145.216,-46.758l101.144,-46.992l-42.14,-21.206c-25.724,-12.945 -69.336,-12.936 -97.222,0.02c-27.886,12.956 -29.645,34.028 -3.921,46.973l42.139,21.205Z" style="fill:#808080;stroke:#000;stroke-width:1px;"/><g><g><path d="M652.047,452.06c-16.687,-8.79 -19.203,-20.991 -5.615,-27.229l144.272,-66.235c13.588,-6.238 38.166,-4.165 54.853,4.625l60.469,31.854c16.687,8.79 19.203,20.991 5.615,27.229l-144.272,66.235c-13.588,6.238 -38.166,4.166 -54.853,-4.625l-60.469,-31.854Z" style="fill:#808080;"/><path d="M826.433,425.422c5.72,-0.192 11.23,-1.138 15.903,-2.896c13.816,-5.196 15.11,-15.526 2.889,-23.052c-12.221,-7.526 -33.359,-9.417 -47.174,-4.221c-13.815,5.197 -16.313,15.038 -6.393,26.968" style="fill:#ebebeb;fill-opacity:0;stroke:#fff;stroke-width:10.42px;stroke-linecap:round;stroke-miterlimit:1.5;"/><path d="M729.677,408.687c-11.202,0.157 -22.063,1.885 -31.171,5.311c-25.071,9.43 -27.42,28.174 -5.243,41.832c22.177,13.658 60.537,17.09 85.608,7.66c25.07,-9.43 22.863,-27.103 12.525,-41.431" style="fill:#ebebeb;fill-opacity:0;stroke:#fff;stroke-width:10.42px;stroke-linecap:round;stroke-miterlimit:1.5;"/><path d="M736.386,422.197c-7.101,-0.183 -14.102,0.752 -19.84,2.911c-13.816,5.196 -15.11,15.525 -2.889,23.051c12.22,7.526 33.358,9.418 47.174,4.221c13.815,-5.196 15.373,-15.7 5.017,-30.087" style="fill:#ebebeb;fill-opacity:0;stroke:#fff;stroke-width:10.42px;stroke-linecap:round;stroke-miterlimit:1.5;"/><path d="M830.706,438.603c8.476,-0.679 21.827,-2.82 28.861,-5.466c25.071,-9.429 27.42,-28.174 5.243,-41.831c-22.177,-13.658 -60.537,-17.091 -85.608,-7.661c-12.364,4.651 -19.407,11.548 -20.297,19.021c-0.591,4.969 0.321,7.908 6.941,19.625" style="fill:#ebebeb;fill-opacity:0;stroke:#fff;stroke-width:10.42px;stroke-linecap:round;stroke-miterlimit:1.5;"/></g></g></g><g><path d="M560.423,742.997c-0.252,-15.473 9.061,-22.754 20.785,-16.248l42.483,23.573c11.724,6.506 21.446,24.35 21.699,39.823l7.909,485.062c0.252,15.473 -9.061,22.754 -20.785,16.248l-42.483,-23.573c-11.723,-6.506 -21.446,-24.35 -21.698,-39.823l-7.91,-485.062Z" style="fill:#dedede;"/><path d="M436.765,674.379c-0.252,-15.473 9.061,-22.754 20.784,-16.249l42.484,23.574c11.723,6.506 21.446,24.35 21.698,39.823l7.909,485.061c0.253,15.474 -9.06,22.755 -20.784,16.249l-42.483,-23.574c-11.724,-6.505 -21.446,-24.349 -21.699,-39.822l-7.909,-485.062Z" style="fill:#dedede;"/><path d="M312.481,605.414c-0.253,-15.474 9.061,-22.755 20.784,-16.249l42.483,23.574c11.724,6.505 21.447,24.349 21.699,39.823l7.909,485.061c0.252,15.473 -9.061,22.754 -20.784,16.249l-42.483,-23.574c-11.724,-6.506 -21.447,-24.35 -21.699,-39.823l-7.909,-485.061Z" style="fill:#dedede;"/><path d="M187.383,535.997c-0.252,-15.473 9.061,-22.754 20.784,-16.249l42.483,23.574c11.724,6.505 21.447,24.349 21.699,39.823l7.909,485.061c0.253,15.473 -9.061,22.754 -20.784,16.249l-42.483,-23.574c-11.724,-6.505 -21.447,-24.349 -21.699,-39.823l-7.909,-485.061Z" style="fill:#dedede;"/></g></g></svg>