<?xml version="1.0" encoding="UTF-8" standalone="no"?>
<!-- Created with Inkscape (http://www.inkscape.org/) -->

<svg
   width="3in"
   height="3in"
   viewBox="0 0 76.200001 76.200002"
   version="1.1"
   id="svg5"
   inkscape:version="1.1.1 (3bf5ae0d25, 2021-09-20)"
   sodipodi:docname="vSOC.svg"
   xmlns:inkscape="http://www.inkscape.org/namespaces/inkscape"
   xmlns:sodipodi="http://sodipodi.sourceforge.net/DTD/sodipodi-0.dtd"
   xmlns="http://www.w3.org/2000/svg"
   xmlns:svg="http://www.w3.org/2000/svg">
  <sodipodi:namedview
     id="namedview7"
     pagecolor="#505050"
     bordercolor="#eeeeee"
     borderopacity="1"
     inkscape:pageshadow="0"
     inkscape:pageopacity="0"
     inkscape:pagecheckerboard="0"
     inkscape:document-units="mm"
     showgrid="false"
     units="in"
     width="3in"
     inkscape:zoom="1.2810465"
     inkscape:cx="228.32895"
     inkscape:cy="221.30344"
     inkscape:window-width="1920"
     inkscape:window-height="1191"
     inkscape:window-x="2645"
     inkscape:window-y="1791"
     inkscape:window-maximized="1"
     inkscape:current-layer="layer1" />
  <defs
     id="defs2">
    <clipPath
       clipPathUnits="userSpaceOnUse"
       id="clipPath1225">
      <path
         style="fill:#000000;stroke-width:0.264583"
         d="M 175.87059,94.974238 C 139.62897,90.582329 111.31597,62.14709 107.13164,25.938515 c -0.81804,-7.0788 -0.42368,-17.2327068 0.94031,-24.210997 6.09378,-31.176204 30.67645,-55.757141 61.89781,-61.893456 9.27562,-1.82305 21.18009,-1.822241 30.42708,0.0021 31.13953,6.143421 55.47704,30.33 61.76216,61.3791288 1.0631,5.2518365 1.47326,9.6299662 1.47326,15.7257992 0,6.095833 -0.41016,10.473962 -1.47326,15.725799 -5.82616,28.78183 -27.3803,51.988204 -55.67674,59.944632 -3.33825,0.938652 -8.4532,1.926209 -12.31842,2.378347 -4.24388,0.496436 -14.13762,0.487998 -18.29325,-0.01561 z m 1.7218,-8.099234 c 0.1202,-1.040443 -0.79728,-1.485334 -1.53722,-0.745401 -0.73993,0.739934 -0.29504,1.657411 0.7454,1.537211 0.54756,-0.06326 0.72856,-0.244255 0.79182,-0.79181 z m 16.9426,0.06317 c 0.11781,-0.83461 -0.62239,-1.426115 -1.31845,-1.053598 -0.48431,0.2592 -0.67377,1.298594 -0.30408,1.66828 0.10369,0.103696 0.49065,0.153305 0.8599,0.110244 0.48258,-0.05628 0.69702,-0.260122 0.76263,-0.724926 z m -33.61398,-3.507325 c 0.74645,-0.746448 0.0185,-1.991849 -0.97919,-1.675201 -0.29058,0.09223 -0.60379,0.405434 -0.69601,0.696015 -0.31665,0.997673 0.92875,1.725634 1.6752,0.979186 z m 50.04891,-0.1925 c 0.34585,-0.646229 0.11077,-1.274522 -0.55605,-1.486162 -0.66775,-0.211937 -1.28578,0.307403 -1.28578,1.080468 0,0.968188 1.37831,1.271784 1.84183,0.405694 z m -16.8376,-3.851029 c 10.00342,-1.569778 18.32372,-4.790855 26.42941,-10.231742 12.03778,-8.080282 21.35181,-20.975211 25.30477,-35.033537 6.14434,-21.851717 0.10791,-45.339127 -15.79523,-61.45833 -20.75132,-21.03325 -53.22992,-24.850365 -78.35776,-9.209151 -5.27439,3.283128 -11.70989,9.01799 -15.69909,13.989926 -5.64445,7.034951 -9.78319,15.3363884 -11.93095,23.9309205 -2.34381,9.3790825 -2.60304,18.5104645 -0.78365,27.6041925 3.43761,17.181949 13.07269,31.374051 27.88452,41.072832 7.63616,5.000151 18.43644,8.760203 27.91354,9.717929 3.27405,0.330864 11.88276,0.111538 15.03444,-0.38304 z m -16.22506,-0.80287 c -8.78309,-1.087596 -17.91829,-4.262009 -25.12487,-8.730695 -28.07028,-17.40595 -37.74969,-52.941208 -22.3591,-82.085227 2.88546,-5.46399 6.16732,-9.848995 10.9529,-14.634581 5.31282,-5.31282 10.07721,-8.737187 16.55503,-11.898783 8.39441,-4.097028 16.06071,-5.975408 25.53229,-6.255872 10.9218,-0.323408 20.69743,1.904511 30.31739,6.909496 14.30496,7.442454 25.23788,20.267047 30.24618,35.4795541 4.3458,13.2001979 4.29638,26.2623409 -0.14994,39.6241849 -6.78706,20.396123 -24.81482,36.353003 -45.98063,40.698748 -6.21754,1.276577 -14.06228,1.627103 -19.98925,0.893175 z m 13.72438,-15.621958 c 15.35459,-2.254742 28.26645,-11.53691 35.1264,-25.251923 1.44669,-2.892343 3.3748,-8.254384 3.69452,-10.274414 0.1509,-0.953381 0.32688,-1.215913 1.04444,-1.55809 0.83785,-0.399542 1.44359,-1.2733 1.44359,-2.082319 0,-0.637027 -1.23873,-1.695315 -1.98437,-1.695315 -0.8824,0 -1.98438,1.102313 -1.98438,1.984981 0,0.402696 0.29021,0.955069 0.70253,1.337202 l 0.70253,0.651081 -0.7016,2.67709 c -2.25683,8.61137 -7.3206,16.836842 -13.93262,22.631868 -17.63682,15.457564 -43.5387,15.447516 -61.16831,-0.02373 -2.4036,-2.109332 -5.50832,-5.631487 -7.33447,-8.320609 -1.02992,-1.516626 -1.05757,-1.610979 -0.68277,-2.329579 0.52546,-1.007465 0.4984,-1.259367 -0.22571,-2.101191 -1.18078,-1.37273 -3.34916,-0.64176 -3.34916,1.129022 0,0.890992 1.11926,1.943036 2.06718,1.943036 0.6426,0 0.93253,0.248936 1.77188,1.521354 5.96605,9.044268 16.55081,16.335193 27.51406,18.952057 5.20551,1.242523 12.13787,1.566966 17.29626,0.809482 z m -29.86397,-22.07664 c 0,-0.145521 -0.0525,-0.264581 -0.11667,-0.264581 -0.0642,0 -0.19026,0.11906 -0.2802,0.264581 -0.0899,0.145523 -0.0374,0.264586 0.11668,0.264586 0.1541,0 0.28019,-0.119063 0.28019,-0.264586 z M 141.03947,9.7797707 c 0.5477,-0.547693 0.64755,-0.8418885 0.51635,-1.5213544 -0.0895,-0.463296 -0.41565,-1.0523641 -0.72486,-1.3090419 -0.55653,-0.4619678 -0.55759,-0.48337 -0.10499,-2.1166667 3.02152,-10.9037122 9.78946,-20.1723127 19.32191,-26.4610697 12.77824,-8.430067 29.10187,-9.814107 43.39167,-3.679071 7.03831,3.021756 13.82737,8.283874 18.22344,14.124776 1.47427,1.9588087 1.51799,2.062311 1.11437,2.6385603 -0.92115,1.3151194 -0.0109,3.1278647 1.57064,3.1278647 2.31033,0 2.32388,-3.6648683 0.014,-3.7962578 -0.54721,-0.031125 -1.01704,-0.4582795 -2.08134,-1.8922842 -6.04914,-8.150426 -15.60661,-14.465141 -25.80498,-17.049594 -6.24026,-1.581396 -14.34111,-1.754886 -20.57123,-0.440558 -14.21015,2.997825 -25.88543,11.950036 -32.29348,24.7615506 -1.34604,2.6911246 -3.52718,8.6197228 -3.53527,9.6092909 -0.002,0.291637 -0.35949,0.625094 -0.9204,0.8594593 -1.11434,0.4656005 -1.55672,1.2148397 -1.32912,2.2510832 0.34486,1.570143 2.05969,2.04688 3.21325,0.8933127 z m 17.28862,-10.02101202 c 0,-0.0641721 -0.11906,-0.19026187 -0.26458,-0.28019904 -0.14552,-0.0899372 -0.26459,-0.0374332 -0.26459,0.11667596 0,0.1541092 0.11907,0.28019904 0.26459,0.28019904 0.14552,0 0.26458,-0.0525039 0.26458,-0.11667596 z M 146.13537,75.322594 c 0.30098,-0.562385 -0.29092,-1.628407 -0.90415,-1.628407 -0.20178,0 -0.54656,0.256532 -0.76617,0.570074 -0.51869,0.740542 -0.11939,1.546592 0.76617,1.546592 0.3541,0 0.76021,-0.21931 0.90415,-0.488259 z m 79.79376,-0.408945 c 0,-0.454258 -0.19478,-0.884082 -0.47959,-1.058334 -0.3904,-0.238844 -0.57423,-0.178122 -0.98835,0.326462 -0.68638,0.836308 -0.27265,1.697873 0.75814,1.578787 0.58743,-0.06786 0.7098,-0.213881 0.7098,-0.846915 z M 133.18059,64.316041 c 0.54697,-0.659064 0.23383,-1.591728 -0.56543,-1.684065 -0.95823,-0.110702 -1.41391,0.691364 -0.85011,1.496304 0.46383,0.662207 0.96645,0.728876 1.41554,0.187761 z m 105.30417,0 c 0.54697,-0.659064 0.23382,-1.591728 -0.56543,-1.684065 -0.95823,-0.110702 -1.41391,0.691364 -0.85011,1.496304 0.46383,0.662207 0.96645,0.728876 1.41554,0.187761 z M 123.65713,50.29127 c 0.70285,-0.846884 -0.32947,-2.147824 -1.24623,-1.570498 -0.91607,0.576903 -0.58971,1.954665 0.46302,1.954665 0.25541,0 0.60785,-0.172876 0.78321,-0.384167 z m 124.61875,0 c 0.70285,-0.846884 -0.32947,-2.147824 -1.24622,-1.570498 -0.91608,0.576903 -0.58972,1.954665 0.46302,1.954665 0.2554,0 0.60784,-0.172876 0.7832,-0.384167 z M 117.52934,34.482934 c 0.74163,-0.741627 0.0202,-1.992384 -0.96828,-1.678662 -0.66682,0.21164 -0.9019,0.839933 -0.55605,1.486162 0.30786,0.575233 1.04811,0.668716 1.52433,0.1925 z m 136.83225,-0.1925 c 0.34585,-0.646229 0.11077,-1.274522 -0.55605,-1.486162 -0.66776,-0.211934 -1.28578,0.307406 -1.28578,1.080471 0,0.968187 1.37831,1.271783 1.84183,0.405691 z m -138.618,-16.977563 c 0.38976,-0.728268 -0.60609,-1.688666 -1.3424,-1.294606 -0.64371,0.344503 -0.69081,1.464103 -0.0761,1.808136 0.55865,0.312634 1.07668,0.12509 1.41846,-0.51353 z M 256.35622,16.94106 c 0,-0.640527 -0.12482,-0.811369 -0.64664,-0.885023 -0.84579,-0.119386 -1.42639,0.621868 -1.04511,1.334304 0.18644,0.348353 0.49565,0.482653 0.98194,0.426471 0.59406,-0.06863 0.70981,-0.211434 0.70981,-0.875752 z M 117.57017,0.816039 c 0.17451,-0.21026969 0.27839,-0.65675406 0.23083,-0.99218753 -0.11152,-0.7867465 -1.23198,-0.99446827 -1.72527,-0.31984952 -0.44417,0.60743573 -0.43506,0.77329773 0.0702,1.2785752 0.51824,0.51824465 1.01226,0.52984925 1.42422,0.0334619 z M 254.22065,0.7825771 c 0.49189,-0.49188426 0.49611,-0.52724846 0.14189,-1.18911955 -0.47443,-0.88647845 -1.84278,-0.48063417 -1.84278,0.54656038 0,0.50282739 0.50392,1.05833327 0.96006,1.05833327 0.17878,0 0.51216,-0.1870974 0.74083,-0.4157741 z M 123.65713,-15.060813 c 0.70285,-0.846887 -0.32947,-2.147827 -1.24623,-1.570498 -0.91607,0.5769 -0.58971,1.954662 0.46302,1.954662 0.25541,0 0.60785,-0.172873 0.78321,-0.384164 z m 124.61875,0 c 0.70285,-0.846887 -0.32947,-2.147827 -1.24622,-1.570498 -0.91608,0.5769 -0.58972,1.954662 0.46302,1.954662 0.2554,0 0.60784,-0.172873 0.7832,-0.384164 z M 133.40619,-29.669139 c 0.0639,-0.658644 -0.0376,-0.874993 -0.47572,-1.014045 -0.69656,-0.221081 -1.3253,0.275098 -1.3253,1.045877 0,0.775419 0.24032,0.977984 1.04844,0.883742 0.53969,-0.06294 0.68728,-0.242496 0.75258,-0.915574 z m 105.22294,0.07237 c 0,-0.952264 -0.69734,-1.474057 -1.30073,-0.973285 -0.43001,0.356872 -0.56687,1.369899 -0.23052,1.706247 0.10369,0.103696 0.49065,0.153305 0.8599,0.110244 0.54588,-0.06366 0.67135,-0.22125 0.67135,-0.843206 z m -92.74854,-10.597607 c 0.54697,-0.659064 0.23383,-1.591728 -0.56543,-1.684065 -0.95823,-0.110702 -1.41391,0.691364 -0.85011,1.496306 0.46383,0.662207 0.96645,0.728874 1.41554,0.187759 z m 80.02096,-0.187759 c 0.5638,-0.804942 0.10812,-1.607008 -0.85011,-1.496306 -0.88284,0.101994 -1.14787,1.188429 -0.41978,1.720826 0.64042,0.468286 0.80501,0.439185 1.26989,-0.22452 z m -64.93817,-7.751593 c 0.70285,-0.846887 -0.32947,-2.147827 -1.24623,-1.570498 -0.63106,0.397412 -0.70845,1.009975 -0.19275,1.525672 0.53134,0.531344 1.0225,0.546645 1.43898,0.04483 z m 49.87882,-0.04483 c 0.5157,-0.515697 0.43831,-1.12826 -0.19275,-1.525672 -0.91676,-0.577329 -1.94908,0.723611 -1.24623,1.570497 0.41648,0.50182 0.90764,0.486519 1.43898,-0.04483 z m -33.24981,-4.814327 c -0.0633,-0.547552 -0.24426,-0.728551 -0.79182,-0.79181 -1.04044,-0.120201 -1.48533,0.797279 -0.7454,1.53721 0.73994,0.739934 1.65742,0.295045 1.53722,-0.7454 z m 16.98072,0.486238 c 0.35532,-0.663929 -0.25824,-1.401937 -1.07026,-1.287319 -0.80486,0.113609 -1.05179,1.221766 -0.38146,1.711923 0.52914,0.386913 1.10802,0.217601 1.45172,-0.424604 z"
         id="path1227" />
    </clipPath>
    <clipPath
       clipPathUnits="userSpaceOnUse"
       id="clipPath20270">
      <path
         id="path20272"
         style="fill:#000000;stroke-width:0.264583"
         d="M 237.74996,-78.487311 195.1753,-59.43938 c -23.41581,10.476209 -42.63376,19.107539 -42.70696,19.180739 -0.28659,0.286591 0.56529,94.382971 0.8568,94.639696 0.15798,0.139145 19.15873,10.175531 42.22378,22.303026 23.06505,12.127521 41.97936,22.060932 42.03206,22.074108 0.0527,0.01323 18.9679,-10.006727 42.03361,-22.266857 l 41.93749,-22.291146 -0.16227,-18.653125 c -0.0892,-10.259219 -0.23911,-31.4533915 -0.33331,-47.09841 l -0.17157,-28.445812 -41.56748,-19.244818 z m -0.077,2.848401 2.68407,1.23248 c 1.47632,0.67791 19.59147,9.05701 40.25543,18.620571 l 37.57083,17.388609 0.16537,15.077631 c 0.091,8.292849 0.24328,28.7703259 0.33848,45.505222 l 0.17311,30.427083 -40.58718,21.629688 c -22.32299,11.896328 -40.63224,21.619792 -40.68744,21.607991 -0.0552,-0.01191 -18.49593,-9.714574 -40.97889,-21.562007 L 155.72861,52.747571 155.42578,19.739239 c -0.16673,-18.1543883 -0.31541,-38.7228 -0.33021,-45.7078 l -0.0269,-12.69999 41.30187,-18.485178 z m -0.0522,3.030829 c -0.4682,-5.29e-4 -0.9347,0.0547 -1.4857,0.165362 -1.84316,0.37016 -73.92393,32.577339 -75.24657,33.621718 -1.40987,1.113282 -2.59697,2.81251 -3.04787,4.363561 -0.36484,1.254789 -0.36872,5.58487 -0.0398,42.2496035 0.41722,46.5072675 0.15107,42.2221555 2.79207,44.9755685 1.43334,1.49434 2.7544,2.214509 37.20497,20.287139 19.64531,10.305838 36.195,18.929667 36.77708,19.164194 1.44427,0.581898 4.43506,0.594677 5.94382,0.0254 0.65971,-0.248947 17.1543,-8.95178 36.6541,-19.339401 23.74343,-12.648195 35.79187,-19.206105 36.47735,-19.854069 0.56297,-0.532157 1.36675,-1.681745 1.78594,-2.55487 l 0.76223,-1.5875 -0.0331,-21.034401 c -0.0183,-11.568907 -0.10764,-30.2021772 -0.19844,-41.407279 l -0.16485,-20.372919 -0.93999,-1.702221 c -0.51699,-0.936029 -1.46949,-2.148059 -2.11667,-2.693889 -1.55472,-1.31122 -71.38311,-33.686811 -73.62961,-34.137971 -0.55681,-0.111749 -1.02681,-0.16747 -1.495,-0.167939 z" />
    </clipPath>
  </defs>
  <g
     inkscape:label="Layer 1"
     inkscape:groupmode="layer"
     id="layer1">
    <g
       id="g21128">
      <rect
         style="fill:#626c80;fill-opacity:1;stroke:#000000;stroke-width:0.894;stroke-miterlimit:4;stroke-dasharray:none;stroke-opacity:1"
         id="rect13049"
         width="73.038864"
         height="73.038864"
         x="1.5805664"
         y="1.5805658"
         ry="14.259517"
         rx="14.259517" />
      <g
         id="g20978"
         transform="matrix(0.36974271,0,0,0.36974271,-33.756496,20.198887)">
        <path
           style="fill:#f6bc61;stroke-width:0.264583"
           d="m 185.75953,143.386 c -0.80036,-0.11947 -2.82442,-0.41093 -4.49791,-0.64768 -1.67349,-0.23676 -3.75709,-0.61783 -4.63021,-0.84683 -0.87313,-0.229 -2.18281,-0.51609 -2.91042,-0.63798 -1.25878,-0.21087 -3.61672,-0.87317 -6.21771,-1.74644 -0.65484,-0.21987 -1.75622,-0.56066 -2.4475,-0.75733 -0.69128,-0.19666 -1.52144,-0.54288 -1.84481,-0.76937 -0.32336,-0.2265 -0.76046,-0.41181 -0.97134,-0.41181 -0.45561,0 -5.52755,-2.27003 -7.96551,-3.5651 -0.94589,-0.50247 -2.31912,-1.21202 -3.05164,-1.5768 -3.48994,-1.7379 -11.15369,-7.11316 -15.06047,-10.56321 -2.11745,-1.86991 -7.90583,-7.60501 -8.85496,-8.77345 -0.35256,-0.43403 -1.54319,-1.87543 -2.64583,-3.20311 -1.10265,-1.32769 -2.47409,-3.11362 -3.04765,-3.96875 -0.57356,-0.85513 -1.24887,-1.79291 -1.50068,-2.08396 -1.60906,-1.85974 -8.96852,-15.141719 -8.96512,-16.179777 5.3e-4,-0.123413 -0.22806,-0.700636 -0.5077,-1.282719 -0.27963,-0.582083 -0.8278,-1.951302 -1.21815,-3.042708 -0.39035,-1.091407 -0.89143,-2.401094 -1.11351,-2.910417 -0.22209,-0.509323 -0.55959,-1.521354 -0.75002,-2.248959 -0.19042,-0.727604 -0.54222,-2.037291 -0.78176,-2.910416 -0.23955,-0.873125 -0.66427,-2.420938 -0.94382,-3.439584 -0.27956,-1.018646 -0.50791,-2.142146 -0.50745,-2.496664 4.5e-4,-0.35452 -0.23066,-1.485614 -0.51361,-2.513542 -0.28294,-1.02793 -0.64608,-3.297711 -0.80697,-5.043961 -0.16089,-1.74625 -0.43051,-3.591719 -0.59917,-4.101042 -0.44867,-1.354905 -0.43234,-16.590455 0.0198,-18.520834 0.18749,-0.800365 0.45198,-2.709254 0.58777,-4.241978 0.13578,-1.532723 0.48675,-3.724661 0.77993,-4.870971 0.29318,-1.146307 0.53305,-2.421866 0.53305,-2.834571 0,-0.412705 0.22784,-1.435458 0.50631,-2.272782 0.27847,-0.837324 0.58311,-1.998657 0.67698,-2.58074 0.0939,-0.582084 0.40181,-1.687878 0.68431,-2.457321 0.28251,-0.769443 0.51365,-1.604645 0.51365,-1.856002 0,-0.251357 0.22225,-0.871969 0.49389,-1.379138 0.27164,-0.507166 0.58517,-1.338842 0.69674,-1.848165 0.11156,-0.509323 0.42509,-1.340998 0.69673,-1.848165 0.27164,-0.507169 0.49389,-1.058328 0.49389,-1.224798 0,-0.267071 0.56407,-1.656358 1.70651,-4.2030788 0.5774,-1.287153 2.16874,-4.4047835 2.90361,-5.6885419 0.37485,-0.6548438 0.86845,-1.5936358 1.09688,-2.08620268 0.22844,-0.49256687 0.63027,-1.20694192 0.89298,-1.58750002 0.2627,-0.3805582 1.40419,-2.1206726 2.53664,-3.8669227 3.60471,-5.5585019 7.83204,-10.7415259 12.42692,-15.2363419 2.55967,-2.503921 7.77557,-7.000915 9.12813,-7.869992 0.3638,-0.233759 1.2739,-0.904994 2.02245,-1.491633 0.74854,-0.58664 2.2251,-1.602399 3.28125,-2.257243 1.05614,-0.654843 2.33679,-1.467051 2.84589,-1.804905 0.50911,-0.337855 2.30676,-1.330635 3.9948,-2.206177 1.68803,-0.875543 3.24774,-1.691068 3.46602,-1.812278 1.00465,-0.557873 3.96714,-1.849557 4.24199,-1.849557 0.16862,0 0.6226,-0.180199 1.00886,-0.400443 0.62232,-0.354851 1.39656,-0.646237 4.40645,-1.658382 0.43656,-0.146805 1.38906,-0.469737 2.11666,-0.717628 0.72761,-0.24789 1.99457,-0.603695 2.81548,-0.790678 0.82092,-0.186982 2.07107,-0.522217 2.77813,-0.744966 0.70706,-0.222749 1.93088,-0.481532 2.71961,-0.575074 0.78873,-0.09354 2.09842,-0.348349 2.91042,-0.566239 5.12177,-1.374366 25.07281,-1.367283 30.15287,0.01071 0.78343,0.21251 2.09312,0.469144 2.91041,0.570299 0.8173,0.101155 1.96225,0.352664 2.54433,0.558909 0.58209,0.206245 1.83224,0.536202 2.77813,0.733239 1.6726,0.348418 2.34803,0.557983 6.21771,1.929158 3.83599,1.35924 7.76914,3.105189 11.37708,5.050352 4.9787,2.684187 6.82705,3.803724 10.54556,6.387367 3.59277,2.49628 11.91447,9.77704 14.25747,12.474043 5.24051,6.032292 8.8678,10.8415014 11.15692,14.7922732 0.54446,0.9396889 1.38125,2.37686066 1.85952,3.19371676 1.67171,2.85512944 4.29841,8.21986374 4.77854,9.75960114 0.11345,0.3638019 0.42772,1.0764149 0.6984,1.5835819 0.27067,0.507169 0.49213,1.06953 0.49213,1.249693 0,0.180163 0.22189,0.836771 0.49309,1.459127 0.60945,1.398587 1.28734,3.358139 1.76439,5.100307 0.19924,0.727604 0.53103,1.858698 0.73731,2.513542 0.68963,2.189279 1.24777,4.608346 1.64822,7.14375 0.21836,1.382448 0.51598,2.866811 0.66138,3.298582 0.55212,1.639467 1.16406,10.348786 1.14392,16.280586 -0.0219,6.445094 -0.59294,14.203233 -1.24695,16.940308 -0.22509,0.942049 -0.48529,2.248599 -0.57822,2.903442 -0.20675,1.457069 -0.99913,4.705324 -1.83945,7.540626 -0.34503,1.164167 -0.68957,2.354792 -0.76564,2.645833 -0.0761,0.291042 -0.50866,1.541198 -0.96131,2.778125 -0.45265,1.236928 -0.98975,2.75762 -1.19357,3.379314 -0.20381,0.621697 -0.55405,1.392331 -0.77832,1.712519 -0.22427,0.320188 -0.40777,0.740709 -0.40777,0.93449 0,0.406323 -3.64509,7.87355 -4.61385,9.451803 -0.35729,0.582083 -1.0942,1.83224 -1.63757,2.778125 -0.54337,0.945885 -1.48589,2.434165 -2.09449,3.307285 -0.60859,0.87313 -1.39075,2.00491 -1.73812,2.51507 -1.11653,1.63977 -3.67501,4.97036 -4.48051,5.83264 -0.42998,0.4603 -1.09268,1.21115 -1.47266,1.66856 -4.32141,5.20201 -12.02037,11.91235 -18.62321,16.23185 -0.80037,0.52358 -1.87193,1.22553 -2.38125,1.55987 -1.23331,0.8096 -4.21785,2.39614 -7.9375,4.21947 -4.61056,2.26005 -5.71381,2.76525 -6.03863,2.76525 -0.16347,0 -0.80642,0.2299 -1.42877,0.51089 -1.77741,0.80247 -5.21449,1.88419 -8.93677,2.81259 -0.94589,0.23592 -2.61276,0.65285 -3.70417,0.92651 -1.0914,0.27366 -3.11513,0.626 -4.49716,0.78298 -1.38203,0.15698 -2.98938,0.41163 -3.57187,0.5659 -1.29687,0.34345 -16.87611,0.52344 -18.91847,0.21857 z"
           id="path20988" />
        <path
           style="fill:#da8f26;stroke-width:0.264583"
           d="m 192.77099,142.59564 c -0.29104,-0.12506 -1.18401,-0.23401 -1.98437,-0.2421 -3.66957,-0.0371 -10.28707,-0.60883 -11.37709,-0.98292 -0.65484,-0.22473 -2.20265,-0.55149 -3.43958,-0.72613 -1.23693,-0.17464 -2.52333,-0.46957 -2.85869,-0.65541 -0.33534,-0.18585 -1.30637,-0.45009 -2.15784,-0.58722 -0.85146,-0.13712 -2.06537,-0.48403 -2.69756,-0.77091 -0.6322,-0.28688 -1.45412,-0.52422 -1.82649,-0.52741 -0.37236,-0.003 -0.90815,-0.18247 -1.19062,-0.3984 -0.28248,-0.21591 -0.98984,-0.52009 -1.57192,-0.67594 -0.58209,-0.15584 -1.56435,-0.51496 -2.18282,-0.79804 -1.49959,-0.68638 -3.16718,-1.44811 -4.29948,-1.96395 -1.1326,-0.51598 -2.37861,-1.14261 -2.91041,-1.46366 -0.21828,-0.13179 -1.28985,-0.6859 -2.38125,-1.23138 -1.09141,-0.54547 -2.2225,-1.18996 -2.51354,-1.4322 -0.29105,-0.24224 -0.8421,-0.60467 -1.22457,-0.8054 -0.38247,-0.20073 -1.36704,-0.81145 -2.18795,-1.35715 -0.8209,-0.54571 -1.56588,-0.99219 -1.65551,-0.99219 -0.0896,0 -0.42965,-0.26789 -0.7556,-0.59531 -0.32594,-0.32743 -1.03406,-0.89297 -1.57358,-1.25678 -2.35931,-1.59089 -8.27354,-6.73547 -11.12363,-9.67606 -1.98906,-2.05221 -4.36096,-4.78798 -5.94794,-6.86039 -0.78004,-1.01865 -1.70068,-2.20928 -2.04585,-2.64584 -1.14977,-1.45417 -1.41462,-1.83461 -3.26451,-4.68919 -1.01122,-1.56041 -1.83857,-2.940942 -1.83857,-3.067847 0,-0.126907 -0.22742,-0.436549 -0.50537,-0.688094 -0.27796,-0.251545 -0.58489,-0.776012 -0.68208,-1.165487 -0.0972,-0.389472 -0.33191,-0.886725 -0.52162,-1.105006 -0.56025,-0.644644 -3.31802,-6.268551 -3.31802,-6.766428 0,-0.171892 -0.17859,-0.460748 -0.39687,-0.641906 -0.21828,-0.181157 -0.39688,-0.521448 -0.39688,-0.756203 0,-0.234754 -0.2802,-1.023847 -0.62267,-1.753542 -0.641,-1.365752 -1.00311,-2.30633 -1.68219,-4.369421 -0.21554,-0.654844 -0.61856,-1.748478 -0.8956,-2.430299 -0.27704,-0.681821 -0.5037,-1.493187 -0.5037,-1.803035 0,-0.309848 -0.22861,-1.121214 -0.50802,-1.803035 -0.2794,-0.681821 -0.58363,-1.88337 -0.67606,-2.670112 -0.0924,-0.786741 -0.34041,-1.763757 -0.55108,-2.171147 -0.21067,-0.407387 -0.50166,-1.884704 -0.64665,-3.282921 -0.14498,-1.398217 -0.40597,-2.802451 -0.57997,-3.12052 -0.39021,-0.713329 -1.08854,-10.41867 -1.09819,-15.262683 -0.0102,-5.14381 0.73235,-14.69561 1.2522,-16.106704 0.23458,-0.63676 0.43174,-1.767854 0.43813,-2.513542 0.006,-0.745689 0.1966,-1.832047 0.42268,-2.41413 0.22609,-0.582083 0.56328,-1.891771 0.74931,-2.910417 0.18603,-1.018646 0.5316,-2.294744 0.76794,-2.835772 0.23634,-0.541031 0.42971,-1.316699 0.42971,-1.72371 0,-0.407012 0.2297,-1.168591 0.51044,-1.6924 0.28075,-0.523809 0.59678,-1.412595 0.70231,-1.975083 0.10552,-0.562488 0.41116,-1.38231 0.67919,-1.821828 0.26803,-0.439518 0.48778,-1.012936 0.48832,-1.274265 5.3e-4,-0.261327 0.29864,-1.034286 0.66245,-1.717686 0.3638,-0.6834 0.66145,-1.398498 0.66145,-1.5891087 0,-0.3345921 0.17731,-0.7204366 1.68433,-3.6653921 0.38331,-0.7490514 0.69692,-1.5342686 0.69692,-1.7449298 0,-0.2106613 0.23138,-0.5924127 0.51417,-0.8483363 0.2828,-0.2559261 0.58961,-0.8087942 0.68182,-1.228598 0.0922,-0.4198065 0.27464,-0.8294133 0.40543,-0.9102408 0.13078,-0.080828 0.68396,-0.945396 1.22931,-1.92126404 1.11091,-1.98794436 2.73169,-4.51830836 4.23513,-6.61188486 0.55216,-0.7689004 1.30159,-1.8193439 1.66539,-2.334321 0.36381,-0.5149771 1.55443,-2.0106194 2.64584,-3.3236484 1.0914,-1.313027 2.41443,-2.941489 2.94006,-3.618804 0.52563,-0.677312 1.59719,-1.820606 2.38125,-2.540651 0.78406,-0.720045 2.64491,-2.461512 4.13522,-3.869923 1.49032,-1.408414 3.25554,-2.962413 3.92272,-3.453329 0.66718,-0.490918 1.91316,-1.458124 2.76885,-2.149348 0.85569,-0.691224 1.6655,-1.256771 1.79958,-1.256771 0.13407,0 0.39922,-0.187296 0.5892,-0.416213 0.18998,-0.228918 0.77011,-0.648692 1.28917,-0.932836 1.64474,-0.900364 2.79147,-1.614514 2.92811,-1.823533 0.13406,-0.20507 2.4555,-1.481804 6.7007,-3.685221 1.28429,-0.666594 2.59398,-1.359062 2.91042,-1.538818 0.31644,-0.179755 0.75394,-0.329368 0.97222,-0.332472 0.21828,-0.0031 0.75406,-0.2422 1.19062,-0.531324 0.43656,-0.289124 0.98438,-0.526464 1.21737,-0.527423 0.23298,-9.53e-4 0.98343,-0.2994 1.66764,-0.663202 0.68422,-0.363802 1.46404,-0.661458 1.73293,-0.661458 0.26889,0 1.12579,-0.296493 1.90423,-0.658874 0.77843,-0.36238 1.7475,-0.660037 2.15348,-0.661458 0.40598,-0.0014 1.17988,-0.226626 1.71979,-0.500453 0.5399,-0.273827 1.71234,-0.581613 2.6054,-0.683968 0.89307,-0.102355 1.96463,-0.364227 2.38125,-0.581938 0.41662,-0.217711 1.86708,-0.510377 3.22324,-0.650368 1.35616,-0.139991 3.02303,-0.376262 3.70416,-0.525046 3.15265,-0.688653 5.35469,-0.799899 13.54155,-0.684118 6.96117,0.09845 8.80733,0.200866 9.69295,0.537732 0.60169,0.228868 2.20903,0.494937 3.57187,0.591266 1.38671,0.09801 2.95142,0.378369 3.5532,0.636637 0.59141,0.253821 1.76078,0.547139 2.59859,0.651816 0.83781,0.104678 2.0208,0.416203 2.62886,0.692278 0.60807,0.276076 1.46276,0.508293 1.89933,0.51604 0.43656,0.0077 1.38906,0.30693 2.11666,0.66485 0.72761,0.357921 1.63576,0.651854 2.01813,0.653185 0.38236,0.0013 0.84271,0.180158 1.023,0.397395 0.1803,0.217237 0.81995,0.52141 1.42146,0.675942 1.12335,0.288594 1.71513,0.544838 5.27702,2.285016 1.13669,0.55533 2.38684,1.164708 2.77813,1.35417 0.39129,0.189463 0.89002,0.458857 1.1083,0.598649 0.21828,0.139793 0.87313,0.498057 1.45521,0.796142 1.69333,0.867151 2.54006,1.374111 4.28496,2.565511 0.90152,0.615548 1.69975,1.119177 1.77385,1.119177 0.30178,0 4.07293,2.848949 7.56723,5.716747 2.62291,2.152629 9.08282,8.495316 11.07926,10.878204 2.08653,2.49042 5.71731,7.3163433 6.78839,9.0229376 3.91113,6.23172891 5.66858,9.4943776 8.0419,14.9295095 0.30183,0.6912239 0.78724,1.7627869 1.07869,2.3812499 0.29145,0.618464 0.53073,1.303073 0.53175,1.521354 10e-4,0.218282 0.29834,1.033775 0.66072,1.812211 0.36238,0.778433 0.65888,1.673164 0.65888,1.988294 0,0.315126 0.22114,0.987912 0.49143,1.495081 0.27028,0.507166 0.57816,1.50717 0.68416,2.222225 0.10601,0.715055 0.42065,1.725321 0.6992,2.24504 0.27855,0.519716 0.51168,1.482484 0.51807,2.139482 0.006,0.657 0.19782,1.670793 0.42539,2.252876 0.22758,0.582084 0.5234,2.189428 0.65738,3.571876 0.13397,1.382448 0.44004,3.108854 0.68014,3.836458 0.37088,1.123895 0.45167,3.018835 0.537,12.595773 0.0937,10.51653 0.0656,11.412986 -0.41946,13.361459 -0.28594,1.148731 -0.59859,3.041103 -0.69477,4.205269 -0.0962,1.164167 -0.40492,2.746212 -0.68609,3.515654 -0.28116,0.769443 -0.51382,1.900537 -0.51701,2.513542 -0.003,0.613005 -0.23329,1.61562 -0.51131,2.228033 -0.27802,0.612412 -0.59053,1.683975 -0.69447,2.38125 -0.10394,0.697275 -0.34886,1.512871 -0.54428,1.812435 -0.19541,0.299567 -0.47658,1.184257 -0.62483,1.965982 -0.14825,0.781724 -0.43708,1.608187 -0.64183,1.836586 -0.20475,0.228397 -0.45538,0.863069 -0.55695,1.41038 -0.10158,0.54731 -0.28156,1.054984 -0.39996,1.128163 -0.11841,0.07318 -0.35807,0.577881 -0.53258,1.121558 -0.30147,0.939197 -1.00994,2.618917 -2.09087,4.957252 -0.26907,0.582083 -0.61904,1.35599 -0.7777,1.719792 -0.15867,0.363802 -0.40133,0.840052 -0.53925,1.058333 -0.21392,0.338577 -2.40816,4.190162 -3.73182,6.55052 -0.22377,0.399037 -0.75955,1.245374 -1.19062,1.880744 -0.43107,0.63538 -1.02189,1.53959 -1.31293,2.00936 -0.6762,1.09146 -2.19964,3.14948 -3.00827,4.06388 -0.34486,0.38997 -0.93567,1.12576 -1.31291,1.63508 -0.37724,0.50932 -1.16665,1.48754 -1.75423,2.17382 -0.58759,0.68628 -1.366,1.60448 -1.7298,2.04044 -2.66925,3.19873 -11.68372,11.09577 -15.72692,13.77741 -0.59114,0.39207 -1.23747,0.81838 -3.07272,2.02675 -0.51714,0.34049 -1.06811,0.61908 -1.22437,0.61908 -0.15626,0 -0.43804,0.18547 -0.62618,0.41216 -0.18813,0.22669 -0.70873,0.58599 -1.15687,0.79844 -0.75643,0.35861 -1.85105,0.93907 -2.79919,1.48439 -0.21828,0.12554 -0.99219,0.52286 -1.71979,0.88293 -0.72761,0.36008 -1.50151,0.75779 -1.71979,0.8838 -0.90402,0.5219 -3.38113,1.6237 -3.65046,1.6237 -0.15966,0 -0.85011,0.29765 -1.53432,0.66146 -0.68422,0.3638 -1.40964,0.66145 -1.61205,0.66145 -0.2024,0 -0.80975,0.22203 -1.34965,0.4934 -0.53991,0.27137 -1.42649,0.57411 -1.97019,0.67276 -0.54371,0.0987 -1.49621,0.4098 -2.11667,0.69142 -0.62047,0.28163 -1.52161,0.51467 -2.00253,0.51786 -0.48093,0.003 -1.3739,0.22963 -1.98438,0.50319 -0.61048,0.27355 -1.82434,0.57891 -2.69746,0.67857 -0.87313,0.0997 -2.36141,0.40474 -3.30729,0.67795 -1.65886,0.47915 -8.38537,1.06917 -12.08907,1.0604 -0.90092,-0.002 -1.71162,0.11518 -1.80156,0.2607 -0.19701,0.31877 -2.43318,0.31877 -3.175,0 z m 10.84792,-3.97828 c 2.03729,-0.13451 4.23995,-0.40941 4.89479,-0.61091 0.65484,-0.2015 1.905,-0.44892 2.77813,-0.54983 0.87312,-0.10091 2.27258,-0.41466 3.1099,-0.69722 0.83733,-0.28257 1.78983,-0.51637 2.11667,-0.51957 0.32684,-0.003 1.08293,-0.22773 1.6802,-0.49897 0.59727,-0.27125 1.66883,-0.62058 2.38125,-0.77631 0.71242,-0.15572 1.76697,-0.52649 2.34344,-0.82394 0.57647,-0.29744 1.18716,-0.5408 1.35709,-0.5408 0.65885,0 7.98048,-3.40168 10.82395,-5.02889 0.7276,-0.41638 1.50151,-0.84056 1.71979,-0.94262 0.36006,-0.16836 2.65965,-1.62561 4.59906,-2.91442 0.41943,-0.27873 0.95737,-0.62584 1.19543,-0.77136 0.99259,-0.60675 4.57587,-3.41757 7.13801,-5.59924 l 2.74604,-2.33826 -0.0463,-24.75516 c -0.0326,-17.403872 0.0397,-24.98151 0.24345,-25.517378 0.27699,-0.72852 0.79645,-1.39355 3.41708,-4.374603 0.69399,-0.78944 1.07016,-1.423508 0.92604,-1.560917 -0.38121,-0.363448 -3.48147,-1.603404 -4.00898,-1.603404 -0.2612,0 -0.88987,-0.222113 -1.39703,-0.493583 -0.50717,-0.271471 -1.51988,-0.621538 -2.25046,-0.777931 -0.73058,-0.156392 -1.68308,-0.469328 -2.11666,-0.695415 -0.43359,-0.226083 -1.02647,-0.412885 -1.31751,-0.41511 -0.29104,-0.0021 -1.12448,-0.296894 -1.85208,-0.654814 -0.72761,-0.357921 -1.62057,-0.654934 -1.98438,-0.66003 -0.3638,-0.0051 -1.02779,-0.232653 -1.47554,-0.50569 -0.44774,-0.273034 -1.43338,-0.629246 -2.19031,-0.791578 -0.75693,-0.16233 -1.64075,-0.460216 -1.96404,-0.661966 -0.3233,-0.201751 -1.09307,-0.441693 -1.71059,-0.533205 -0.61753,-0.09151 -1.5105,-0.402783 -1.98438,-0.69171 -0.47388,-0.288928 -1.15925,-0.529493 -1.52305,-0.534586 -0.36381,-0.0051 -1.25677,-0.302109 -1.98438,-0.660029 -0.7276,-0.357921 -1.5628,-0.651854 -1.856,-0.653185 -0.2932,-0.0013 -0.94804,-0.222454 -1.45521,-0.491384 -0.50716,-0.268931 -1.43249,-0.568693 -2.05628,-0.666134 -0.62379,-0.09744 -1.57453,-0.413189 -2.11275,-0.701659 -0.53822,-0.28847 -1.22307,-0.524492 -1.52188,-0.524492 -0.2988,0 -1.00826,-0.237061 -1.57658,-0.526804 -0.56831,-0.28974 -1.45668,-0.600569 -1.97417,-0.690732 -0.51748,-0.09016 -1.31251,-0.37583 -1.76673,-0.634814 -0.45422,-0.258988 -1.34719,-0.557549 -1.98438,-0.66347 -0.63718,-0.105923 -1.50019,-0.36753 -1.91779,-0.581347 -0.41761,-0.213818 -1.31057,-0.54596 -1.98438,-0.73809 -1.42582,-0.406567 -3.37394,-1.07464 -5.06156,-1.735778 -1.81416,-0.710716 -4.49955,-1.569318 -5.76834,-1.844318 -0.62597,-0.135675 -1.3966,-0.427725 -1.71251,-0.648999 -0.31591,-0.221274 -0.89969,-0.402315 -1.29728,-0.402315 -0.60757,0 -0.74746,0.137168 -0.87695,0.859896 -0.0847,0.472943 -0.1199,22.897937 -0.0781,49.833321 0.0606,39.059953 0.14381,49.055213 0.41127,49.377463 0.3631,0.43747 1.39141,0.42967 8.92508,-0.0677 z m 57.11693,-83.896459 c 0.20519,-1.025945 0.20997,-3.874841 0.008,-4.628213 -0.16236,-0.604946 -1.97187,-1.542214 -3.54657,-1.837016 -0.50932,-0.09535 -1.29728,-0.398645 -1.75102,-0.673989 -0.45374,-0.275344 -1.10858,-0.501713 -1.45521,-0.503044 -0.34663,-0.0013 -1.22554,-0.295264 -1.95315,-0.653185 -0.7276,-0.35792 -1.59555,-0.654489 -1.92877,-0.65904 -0.33322,-0.0046 -1.04759,-0.230301 -1.5875,-0.501668 -0.5399,-0.271368 -1.45235,-0.578962 -2.02767,-0.683546 -0.57531,-0.104585 -1.46828,-0.402241 -1.98438,-0.661459 -0.51609,-0.259217 -1.36174,-0.547999 -1.87922,-0.641733 -0.51749,-0.09374 -1.40586,-0.40749 -1.97417,-0.69723 -0.56832,-0.289743 -1.27778,-0.526804 -1.57659,-0.526804 -0.29881,0 -0.95824,-0.222113 -1.46541,-0.493583 -0.50717,-0.271471 -1.51987,-0.621538 -2.25045,-0.777931 -0.73059,-0.156392 -1.68309,-0.469328 -2.11667,-0.695415 -0.43359,-0.226084 -1.02823,-0.411795 -1.32142,-0.412692 -0.2932,-7.93e-4 -0.94804,-0.220797 -1.45521,-0.488669 -0.50717,-0.267872 -1.51585,-0.63387 -2.24152,-0.813329 -0.72567,-0.179459 -1.44005,-0.425583 -1.5875,-0.546942 -0.14746,-0.121359 -0.92295,-0.40237 -1.72331,-0.624472 -1.79297,-0.497546 -3.68409,-1.132869 -5.42396,-1.822183 -0.72761,-0.288269 -1.73964,-0.615691 -2.24896,-0.727607 -0.50932,-0.111913 -1.46182,-0.45398 -2.11667,-0.760142 -0.65484,-0.306166 -1.40372,-0.559279 -1.66418,-0.562475 -0.26046,-0.0032 -0.91531,-0.228291 -1.45521,-0.500208 -0.53991,-0.271921 -1.51926,-0.572683 -2.17633,-0.668362 -0.65708,-0.09568 -1.55005,-0.408196 -1.98438,-0.694483 -0.43433,-0.286288 -1.08734,-0.522394 -1.45115,-0.524682 -0.3638,-0.0024 -1.25677,-0.297008 -1.98437,-0.654929 -0.72761,-0.35792 -1.62057,-0.654934 -1.98438,-0.66003 -0.3638,-0.0051 -1.02856,-0.233124 -1.47725,-0.506732 -0.44869,-0.273608 -1.34166,-0.585089 -1.98438,-0.692177 -0.64272,-0.107087 -1.61032,-0.418563 -2.15022,-0.692166 -2.17894,-1.104201 -2.72167,-0.457131 -2.52403,3.009266 0.0739,1.295738 0.27033,2.491893 0.43656,2.658123 0.32013,0.320127 2.90233,1.269156 5.30346,1.949167 0.79232,0.22439 1.68529,0.565319 1.98437,0.757618 0.29908,0.192302 1.01883,0.436587 1.59944,0.542857 0.58062,0.10627 1.53312,0.410117 2.11667,0.675219 0.58355,0.265102 1.29913,0.485706 1.59018,0.490233 0.29104,0.0045 1.12447,0.301075 1.85208,0.658995 0.7276,0.357921 1.62057,0.654934 1.98437,0.66003 0.36381,0.0051 1.03975,0.239922 1.5021,0.521838 0.46234,0.281916 1.29578,0.595225 1.85208,0.69624 0.5563,0.101018 1.42817,0.388954 1.93749,0.639858 0.50932,0.250907 1.43129,0.533749 2.04882,0.628542 0.61753,0.09479 1.5105,0.408744 1.98437,0.697671 0.47388,0.288928 1.15926,0.529493 1.52306,0.534586 0.3638,0.0051 1.25677,0.302109 1.98438,0.660029 0.7276,0.357921 1.5628,0.651854 1.856,0.653185 0.29319,0.0013 0.94866,0.225155 1.45659,0.497388 0.50792,0.272232 1.45804,0.585277 2.11136,0.695656 0.65333,0.110378 1.60344,0.423423 2.11137,0.695655 0.50793,0.272233 1.16799,0.49497 1.46679,0.49497 0.29881,0 1.00827,0.237061 1.57658,0.526804 0.56831,0.28974 1.45669,0.600569 1.97418,0.690731 0.51748,0.09016 1.30488,0.371327 1.74977,0.624809 0.4449,0.253484 1.27833,0.548764 1.85209,0.656177 0.57375,0.107413 1.54267,0.422627 2.15315,0.700471 0.61047,0.277847 1.29273,0.505174 1.51611,0.505174 0.22338,0 1.15265,0.283179 2.06504,0.629288 1.94195,0.736666 3.06424,1.136632 4.70159,1.675575 0.65484,0.215543 1.74848,0.618564 2.4303,0.895601 0.68182,0.277037 1.51702,0.503703 1.856,0.503703 0.33898,0 1.07742,0.247126 1.64096,0.549172 0.92637,0.496501 2.49589,0.932818 3.63081,1.009338 0.28002,0.01889 0.48762,-0.259345 0.59532,-0.797833 z m -10e-4,-11.145573 c 0.19939,-0.744 0.21264,-19.976818 0.0143,-20.715204 -0.16216,-0.603612 -2.00978,-1.562584 -3.72254,-1.932106 -0.60329,-0.13016 -1.37392,-0.430689 -1.71251,-0.667848 -0.33859,-0.23716 -0.91655,-0.433811 -1.28436,-0.437008 -0.3678,-0.0032 -1.16764,-0.232317 -1.77741,-0.509161 -0.87646,-0.397915 -1.16627,-0.433975 -1.38356,-0.172151 -0.16534,0.199228 -0.30342,2.534531 -0.34652,5.860788 l -0.0716,5.529591 -0.72946,0.256349 c -0.5752,0.202139 -1.02282,0.127757 -2.11667,-0.351734 -0.76296,-0.334447 -1.89141,-0.710978 -2.50765,-0.836732 -0.61624,-0.125756 -1.39015,-0.399735 -1.71979,-0.608843 -0.32964,-0.209105 -1.13253,-0.466222 -1.7842,-0.571368 -0.65166,-0.105145 -1.42557,-0.348115 -1.71979,-0.539932 -0.29422,-0.191818 -1.1054,-0.476023 -1.80262,-0.631569 -0.69722,-0.155543 -1.73902,-0.580353 -2.3151,-0.94402 l -1.04752,-0.661212 v -5.829541 c 0,-5.809936 -0.002,-5.83169 -0.63867,-6.468214 -0.35127,-0.351268 -0.97635,-0.709472 -1.38906,-0.796007 -0.41272,-0.08654 -1.49689,-0.448566 -2.40928,-0.80451 -0.91239,-0.355947 -1.92442,-0.647907 -2.24896,-0.648803 -0.32454,-7.94e-4 -0.94726,-0.195612 -1.38382,-0.432703 -0.68294,-0.370893 -1.99113,-0.7790522 -4.26241,-1.3298829 -0.79602,-0.1930506 -0.88916,0.3857969 -0.89335,5.5519219 -0.002,2.447041 -0.11937,4.665456 -0.26085,4.929809 -0.37415,0.699119 -1.00075,0.85335 -1.81005,0.445535 -0.39096,-0.197012 -1.18709,-0.431398 -1.76917,-0.520854 -0.58209,-0.08946 -1.53,-0.403672 -2.10647,-0.698256 -0.57647,-0.294585 -1.29085,-0.53634 -1.5875,-0.537237 -0.29665,-7.94e-4 -0.89656,-0.188351 -1.33312,-0.416568 -0.43656,-0.228216 -1.38906,-0.573093 -2.11666,-0.766389 -0.72761,-0.1933 -1.68011,-0.540891 -2.11667,-0.772428 -0.43656,-0.231536 -0.98366,-0.421708 -1.21576,-0.422605 -0.23211,-7.94e-4 -0.64883,-0.251907 -0.92605,-0.5578 -0.45146,-0.498171 -0.51782,-1.128639 -0.63632,-6.0458143 -0.095,-3.9413552 -0.229,-5.6058728 -0.47519,-5.9017484 -0.46792,-0.562364 -1.98179,-1.2546014 -2.74371,-1.2546014 -0.34396,0 -1.04035,-0.2206783 -1.54751,-0.4903946 -0.50717,-0.2697163 -1.38476,-0.5757995 -1.95021,-0.6801803 -0.56544,-0.1043834 -1.45664,-0.41948629 -1.98045,-0.70023039 -1.21232,-0.64976113 -2.05791,-0.64929546 -2.40612,0.001323 -0.359,0.67079819 -0.37367,19.82884439 -0.0159,20.76984039 0.31417,0.826325 1.55959,1.621327 2.8704,1.832295 0.53496,0.0861 1.44431,0.397568 2.02079,0.692153 0.57647,0.294584 1.29261,0.535606 1.59141,0.535606 0.29881,0 0.95887,0.222737 1.4668,0.49497 0.50792,0.272232 1.42194,0.579178 2.03115,0.682103 0.60921,0.102926 1.5565,0.41597 2.10509,0.695656 0.54858,0.279689 1.24191,0.508521 1.54071,0.508521 0.29881,0 0.95825,0.219168 1.46541,0.48704 0.50717,0.267872 1.49873,0.629558 2.20346,0.803744 0.70473,0.174188 1.53817,0.479361 1.85208,0.678161 0.31392,0.1988 1.10591,0.447815 1.76,0.553371 0.65409,0.105553 1.60482,0.41465 2.11275,0.686882 0.50793,0.272232 1.15556,0.494969 1.4392,0.494969 0.28363,0 0.99977,0.222414 1.59142,0.494255 1.05777,0.486008 2.96835,1.152478 6.1028,2.128854 1.89095,0.589026 2.88549,0.935207 5.09847,1.774687 0.91239,0.34611 1.86665,0.629288 2.12058,0.629288 0.25394,0 0.89027,0.229701 1.41408,0.510445 0.52381,0.280744 1.4082,0.595955 1.96531,0.700471 0.55711,0.104515 1.37694,0.397867 1.82183,0.651893 0.44489,0.25403 1.34651,0.537234 2.00358,0.629349 0.65708,0.09211 1.55005,0.401714 1.98438,0.688001 0.43433,0.286287 1.09193,0.521306 1.46135,0.522264 0.36941,0.0011 1.13664,0.238805 1.70495,0.528548 0.56831,0.28974 1.45669,0.600569 1.97418,0.690731 0.51748,0.09016 1.30178,0.369502 1.7429,0.620753 0.44111,0.251251 1.31523,0.538887 1.9425,0.639191 0.62727,0.100306 1.57605,0.401246 2.1084,0.668758 0.53235,0.267512 1.44416,0.572667 2.02624,0.678124 0.58208,0.105458 1.19955,0.308412 1.37215,0.451007 0.41782,0.345191 1.63727,0.700828 2.4996,0.728974 0.5093,0.01662 0.73966,-0.137414 0.85628,-0.572571 z"
           id="path20986" />
        <path
           style="fill:#9f6f48;stroke-width:0.264583"
           d="m 252.78088,114.74825 c -0.2458,-0.37978 -0.45122,-47.244634 -0.21284,-48.556962 0.14765,-0.812816 0.92055,-1.86385 3.60104,-4.896885 0.66601,-0.75361 1.01942,-1.358559 0.87442,-1.496814 -0.38164,-0.363911 -3.48158,-1.604031 -4.0096,-1.604031 -0.2612,0 -0.88987,-0.222113 -1.39703,-0.493583 -0.50717,-0.271471 -1.51988,-0.621538 -2.25046,-0.777931 -0.73058,-0.156392 -1.68308,-0.469328 -2.11666,-0.695415 -0.43359,-0.226083 -1.02647,-0.412885 -1.31751,-0.41511 -0.29104,-0.0021 -1.12448,-0.296894 -1.85208,-0.654814 -0.72761,-0.357921 -1.62057,-0.654934 -1.98438,-0.66003 -0.3638,-0.0051 -1.02779,-0.232653 -1.47554,-0.50569 -0.44774,-0.273034 -1.43338,-0.629246 -2.19031,-0.791578 -0.75693,-0.16233 -1.64075,-0.460216 -1.96404,-0.661966 -0.3233,-0.201751 -1.09307,-0.441693 -1.71059,-0.533205 -0.61753,-0.09151 -1.5105,-0.402783 -1.98438,-0.69171 -0.47388,-0.288928 -1.15925,-0.529493 -1.52305,-0.534586 -0.36381,-0.0051 -1.25677,-0.302109 -1.98438,-0.660029 -0.7276,-0.357921 -1.5628,-0.651854 -1.856,-0.653185 -0.2932,-0.0013 -0.94804,-0.222454 -1.45521,-0.491384 -0.50716,-0.268931 -1.43249,-0.568693 -2.05628,-0.666134 -0.62379,-0.09744 -1.57453,-0.413189 -2.11275,-0.701659 -0.53822,-0.28847 -1.22307,-0.524492 -1.52188,-0.524492 -0.2988,0 -1.00826,-0.237061 -1.57658,-0.526804 -0.56831,-0.28974 -1.45668,-0.600569 -1.97417,-0.690732 -0.51748,-0.09016 -1.31251,-0.37583 -1.76673,-0.634814 -0.45422,-0.258988 -1.34719,-0.557549 -1.98438,-0.66347 -0.63718,-0.105923 -1.50019,-0.36753 -1.91779,-0.581347 -0.41761,-0.213818 -1.31057,-0.54596 -1.98438,-0.73809 -1.42582,-0.406567 -3.37394,-1.07464 -5.06156,-1.735778 -1.80273,-0.706239 -4.49624,-1.568537 -5.75064,-1.841013 -0.61625,-0.133858 -1.40291,-0.428453 -1.74813,-0.654656 -0.82893,-0.543134 -3.4421,-0.457854 -4.68437,0.152876 -0.51609,0.253722 -1.40906,0.546886 -1.98437,0.651471 -0.57532,0.104584 -1.46275,0.396081 -1.97207,0.647774 -0.50932,0.251693 -1.34944,0.534315 -1.86692,0.628049 -0.51749,0.09374 -1.40586,0.40749 -1.97417,0.69723 -0.56832,0.289743 -1.27778,0.526804 -1.57658,0.526804 -0.29881,0 -0.97186,0.229701 -1.49567,0.510445 -0.52381,0.280744 -1.41501,0.595847 -1.98046,0.70023 -0.56544,0.104381 -1.44303,0.410464 -1.9502,0.680181 -0.50717,0.269716 -1.22154,0.491482 -1.5875,0.492812 -0.36596,0.0013 -1.26069,0.295265 -1.98829,0.653185 -0.72761,0.357921 -1.62057,0.654934 -1.98438,0.66003 -0.3638,0.0051 -1.03974,0.239921 -1.50209,0.521838 -0.46235,0.281916 -1.29579,0.592489 -1.85208,0.690165 -0.5563,0.09768 -1.2821,0.347374 -1.61289,0.554887 -0.3308,0.20751 -1.2833,0.502235 -2.11667,0.654939 -0.83337,0.152704 -1.70848,0.450596 -1.94469,0.661982 -0.23621,0.211384 -1.04078,0.480971 -1.78794,0.599081 -0.74716,0.11811 -1.56904,0.40531 -1.8264,0.63822 -0.25736,0.232912 -1.00061,0.503843 -1.65165,0.60207 -0.65104,0.09823 -1.5409,0.386384 -1.97746,0.640352 -0.43656,0.253968 -1.30412,0.53856 -1.92791,0.632428 -0.62379,0.09387 -1.57453,0.406694 -2.11275,0.695164 -0.53822,0.28847 -1.2537,0.524492 -1.58994,0.524492 -0.33624,0 -1.17049,0.297656 -1.85389,0.661458 -0.68341,0.363802 -1.5173,0.661458 -1.85311,0.661458 -0.3358,0 -0.99159,0.20564 -1.45731,0.456978 -0.46572,0.251338 -1.38254,0.598173 -2.03738,0.770745 -1.35267,0.356473 -3.08552,0.939813 -5.49535,1.849932 -0.91238,0.344583 -1.85184,0.626512 -2.08768,0.626512 -0.23584,0 -0.9181,0.228516 -1.51612,0.507815 -0.59802,0.279297 -1.29567,0.573217 -1.55033,0.653153 -0.25466,0.07994 -0.46302,0.258646 -0.46302,0.397129 0,0.13848 0.95191,1.36261 2.11537,2.720282 l 2.11538,2.468496 0.001,24.266214 0.001,24.26621 -0.55074,0.29475 c -0.49061,0.26256 -0.77473,0.0686 -2.60232,-1.77663 -2.17567,-2.19666 -5.91469,-6.69329 -7.51196,-9.03407 -0.52784,-0.77354 -1.3044,-1.8451 -1.72568,-2.38125 -0.42128,-0.53614 -0.96905,-1.331993 -1.21728,-1.768555 -0.24822,-0.436563 -0.71102,-1.22654 -1.02844,-1.755506 -0.83216,-1.386773 -3.46976,-6.124652 -3.58635,-6.442107 -0.0543,-0.147981 -0.66518,-1.459679 -1.3574,-2.914888 -2.13356,-4.485219 -2.38027,-5.049393 -2.37951,-5.441347 5.3e-4,-0.208719 -0.23129,-0.855736 -0.51487,-1.43782 -0.55651,-1.142309 -1.16826,-2.923987 -1.72608,-5.027083 -0.19298,-0.727605 -0.54179,-1.765578 -0.77513,-2.306606 -0.23339,-0.541031 -0.4243,-1.347677 -0.4243,-1.792547 0,-0.444873 -0.2401,-1.490493 -0.53357,-2.323603 -0.29346,-0.833109 -0.59638,-2.169589 -0.67316,-2.969953 -0.0768,-0.800365 -0.36555,-2.526771 -0.64171,-3.836459 -0.91091,-4.319939 -1.54843,-15.440742 -1.07691,-18.785417 0.16412,-1.164167 0.40704,-3.789307 0.53981,-5.833645 0.13278,-2.04434 0.38013,-4.068403 0.54966,-4.497917 0.16953,-0.429516 0.40626,-1.708533 0.52605,-2.842263 0.11979,-1.133726 0.46351,-2.771309 0.76382,-3.639074 0.30031,-0.867762 0.54862,-1.964229 0.55182,-2.436593 0.003,-0.472363 0.24132,-1.37786 0.52917,-2.012214 0.28784,-0.634357 0.52335,-1.37614 0.52335,-1.648407 0,-0.27227 0.28318,-1.241534 0.62929,-2.15392 0.6194,-1.632832 0.81652,-2.178609 1.75584,-4.861651 0.26008,-0.742876 0.59554,-1.576313 0.74547,-1.852083 0.14994,-0.27577 0.62552,-1.275308 1.05685,-2.221193 2.1086,-4.6240676 4.26307,-8.7762508 4.94446,-9.52918088 0.2162,-0.2388976 0.39309,-0.53237345 0.39309,-0.65216355 0,-0.38499523 3.98004,-6.28255267 5.78892,-8.57794287 5.30529,-6.7321457 12.20495,-13.4620297 17.89129,-17.4510497 2.21484,-1.553729 5.14631,-3.559236 5.65711,-3.870195 2.5873,-1.57507 3.76823,-2.257518 4.66164,-2.693919 0.58209,-0.284327 1.29646,-0.649007 1.5875,-0.810401 2.13746,-1.185309 8.05372,-3.725881 9.48236,-4.071935 0.55863,-0.135315 1.4516,-0.464434 1.98438,-0.731376 0.53277,-0.266943 1.50446,-0.56764 2.1593,-0.668217 0.65485,-0.100577 1.45412,-0.355305 1.77616,-0.566061 0.32204,-0.210757 1.33407,-0.492376 2.24896,-0.625822 0.91488,-0.133446 2.08014,-0.41638 2.58947,-0.628744 0.50932,-0.212364 1.81901,-0.467884 2.91041,-0.567823 1.09141,-0.09994 2.69875,-0.382148 3.57188,-0.627131 2.33617,-0.655487 20.37132,-0.665726 22.75417,-0.01292 0.87312,0.239203 2.48046,0.519981 3.57187,0.623952 1.09141,0.10397 2.63922,0.403351 3.43958,0.665291 0.80037,0.261939 1.94589,0.545662 2.54561,0.630496 0.59972,0.08483 1.61175,0.390797 2.24896,0.679921 0.63721,0.289123 1.43119,0.528294 1.76441,0.53149 0.33322,0.0032 1.05313,0.233995 1.59981,0.512888 0.54667,0.278892 1.46225,0.594929 2.0346,0.702304 0.57236,0.107376 1.40026,0.414527 1.83978,0.682559 0.43952,0.268032 0.96582,0.487776 1.16957,0.48832 1.14291,0.0031 11.99208,5.713357 14.87322,7.828312 0.67727,0.49716 1.34969,0.903928 1.49428,0.903928 0.14459,0 0.41375,0.181784 0.59815,0.403966 0.18439,0.222181 0.86541,0.761756 1.51336,1.199057 3.20232,2.161217 9.62073,7.910248 13.00809,11.651465 2.64688,2.923378 6.5457,7.7844015 7.71739,9.6219858 0.37466,0.5875761 0.91044,1.4082501 1.19063,1.8237227 1.30804,1.9395891 2.80438,4.3689219 3.283,5.330013 0.28988,0.5820833 0.64038,1.2369271 0.77889,1.4552084 0.78562,1.2380701 2.66525,4.8689897 2.66525,5.1485035 0,0.1809141 0.29766,0.8887487 0.66146,1.5729666 0.3638,0.684215 0.66146,1.388322 0.66146,1.564677 0,0.176358 0.23813,0.764937 0.52917,1.307957 0.29104,0.543023 0.52916,1.12353 0.52916,1.290019 0,0.166491 0.22839,0.792001 0.50753,1.390023 0.57456,1.230929 1.26008,3.225032 1.6472,4.79148 0.14384,0.582083 0.44237,1.594114 0.6634,2.248958 0.22102,0.654844 0.5108,1.696641 0.64395,2.315104 0.49629,2.305193 0.74505,3.401775 1.00535,4.431771 0.14711,0.582084 0.38834,1.951303 0.53608,3.042709 0.14773,1.091406 0.41712,2.579687 0.59863,3.307292 0.23693,0.94973 0.33154,4.457689 0.33541,12.435417 0.005,9.737429 -0.0509,11.306324 -0.44978,12.678852 -0.25034,0.861497 -0.52567,2.349778 -0.61183,3.307292 -0.0862,0.957517 -0.37163,2.574378 -0.63437,3.593023 -1.14145,4.425556 -1.38446,5.372064 -1.73216,6.746876 -0.20242,0.800364 -0.73772,2.467239 -1.18956,3.704167 -0.45184,1.236927 -0.98243,2.725208 -1.17909,3.307291 -0.35769,1.058728 -1.07535,2.773088 -1.99366,4.762501 -0.93004,2.014826 -2.13506,4.49962 -2.37378,4.894792 -0.13186,0.218281 -0.92626,1.647031 -1.76534,3.175 -0.83908,1.527968 -1.59138,2.837656 -1.67179,2.910416 -0.0804,0.07276 -0.61226,0.906198 -1.1819,1.852084 -1.02388,1.700152 -1.71973,2.676112 -4.20063,5.891532 -2.29642,2.97632 -3.18363,3.99551 -5.9844,6.87462 -1.52179,1.56434 -2.91555,2.84427 -3.09725,2.84427 -0.1817,0 -0.42668,-0.14883 -0.54441,-0.33073 z m 7.95496,-60.027349 c 0.20519,-1.025945 0.20997,-3.874841 0.008,-4.628213 -0.16236,-0.604946 -1.97187,-1.542214 -3.54657,-1.837016 -0.50932,-0.09535 -1.29728,-0.398645 -1.75102,-0.673989 -0.45374,-0.275344 -1.10858,-0.501713 -1.45521,-0.503044 -0.34663,-0.0013 -1.22554,-0.295264 -1.95315,-0.653185 -0.7276,-0.35792 -1.59555,-0.654489 -1.92877,-0.65904 -0.33322,-0.0046 -1.04759,-0.230301 -1.5875,-0.501668 -0.5399,-0.271368 -1.45235,-0.578962 -2.02767,-0.683546 -0.57531,-0.104585 -1.46828,-0.402241 -1.98438,-0.661459 -0.51609,-0.259217 -1.36174,-0.547999 -1.87922,-0.641733 -0.51749,-0.09374 -1.40586,-0.40749 -1.97417,-0.69723 -0.56832,-0.289743 -1.27778,-0.526804 -1.57659,-0.526804 -0.29881,0 -0.95824,-0.222113 -1.46541,-0.493583 -0.50717,-0.271471 -1.51987,-0.621538 -2.25045,-0.777931 -0.73059,-0.156392 -1.68309,-0.469328 -2.11667,-0.695415 -0.43359,-0.226084 -1.02823,-0.411795 -1.32142,-0.412692 -0.2932,-7.93e-4 -0.94804,-0.220797 -1.45521,-0.488669 -0.50717,-0.267872 -1.51585,-0.63387 -2.24152,-0.813329 -0.72567,-0.179459 -1.44005,-0.425583 -1.5875,-0.546942 -0.14746,-0.121359 -0.92295,-0.40237 -1.72331,-0.624472 -1.79297,-0.497546 -3.68409,-1.132869 -5.42396,-1.822183 -0.72761,-0.288269 -1.73964,-0.615691 -2.24896,-0.727607 -0.50932,-0.111913 -1.46182,-0.45398 -2.11667,-0.760142 -0.65484,-0.306166 -1.40372,-0.559279 -1.66418,-0.562475 -0.26046,-0.0032 -0.91531,-0.228291 -1.45521,-0.500208 -0.53991,-0.271921 -1.51926,-0.572683 -2.17633,-0.668362 -0.65708,-0.09568 -1.55005,-0.408196 -1.98438,-0.694483 -0.43433,-0.286288 -1.08734,-0.522394 -1.45115,-0.524682 -0.3638,-0.0024 -1.25677,-0.297008 -1.98437,-0.654929 -0.72761,-0.35792 -1.62057,-0.654934 -1.98438,-0.66003 -0.3638,-0.0051 -1.02856,-0.233124 -1.47725,-0.506732 -0.44869,-0.273608 -1.34166,-0.585089 -1.98438,-0.692177 -0.64272,-0.107087 -1.61243,-0.419637 -2.15491,-0.694555 -0.81705,-0.414062 -1.31657,-0.470363 -2.91042,-0.328041 -1.05824,0.0945 -2.3408,0.376489 -2.85012,0.626647 -0.50932,0.250159 -1.45871,0.536776 -2.10976,0.636929 -0.65104,0.10015 -1.38594,0.365107 -1.6331,0.588791 -0.24717,0.223684 -0.96466,0.473919 -1.59442,0.556077 -0.62975,0.08216 -1.42128,0.363683 -1.75895,0.625615 -0.33766,0.261933 -1.17032,0.559676 -1.85035,0.661652 -0.68002,0.101978 -1.53485,0.393607 -1.8996,0.64807 -0.36476,0.254461 -1.22019,0.530802 -1.90097,0.61409 -0.68077,0.08329 -1.63327,0.392565 -2.11666,0.687279 -0.48339,0.294715 -1.17655,0.540012 -1.54036,0.545106 -0.3638,0.0051 -1.25677,0.302109 -1.98437,0.660029 -0.72761,0.357921 -1.60652,0.651854 -1.95315,0.653185 -0.34662,0.0013 -1.00147,0.227955 -1.45521,0.503611 -0.45373,0.275653 -1.36013,0.5887 -2.01422,0.695655 -0.65409,0.106956 -1.60482,0.417201 -2.11275,0.689433 -0.50793,0.272233 -1.16798,0.49497 -1.46679,0.49497 -0.29881,0 -0.99681,0.231219 -1.55111,0.51382 -0.55431,0.282602 -1.38315,0.585896 -1.84188,0.673989 -0.45873,0.08809 -1.36984,0.383181 -2.02468,0.655752 -1.53314,0.638148 -3.42219,1.268269 -5.45334,1.819042 -0.88928,0.241141 -1.78225,0.57336 -1.98438,0.738264 -0.20212,0.164902 -0.99595,0.432261 -1.76405,0.594127 -0.76812,0.161867 -1.66109,0.464622 -1.98438,0.672791 -0.3233,0.208166 -1.06406,0.461312 -1.64614,0.562546 -0.58209,0.101233 -1.42958,0.407697 -1.88332,0.68103 -0.45374,0.273336 -1.16811,0.500695 -1.5875,0.505246 -0.41939,0.0046 -1.35783,0.301119 -2.08543,0.65904 -0.72761,0.35792 -1.66133,0.651854 -2.07494,0.653185 -0.41361,0.0013 -1.04707,0.234505 -1.40768,0.518165 -0.36062,0.283662 -1.21206,0.599183 -1.89209,0.701159 -0.68002,0.101978 -1.53485,0.394999 -1.8996,0.651161 -0.36476,0.256161 -1.19898,0.53953 -1.85382,0.629706 -0.65484,0.09018 -1.66687,0.432056 -2.24896,0.759737 l -1.05833,0.595784 v 2.637417 2.637414 l 1.18282,-0.09053 c 0.65054,-0.04979 1.60858,-0.307743 2.12897,-0.573223 0.52038,-0.265483 1.41687,-0.570127 1.99218,-0.676992 0.57532,-0.106863 1.2857,-0.350134 1.57864,-0.540602 0.29293,-0.190466 1.14609,-0.477872 1.89589,-0.638675 0.74981,-0.160806 1.81523,-0.522788 2.36761,-0.804405 0.55237,-0.281617 1.2488,-0.512032 1.5476,-0.512032 0.29881,0 0.97186,-0.229701 1.49567,-0.510445 0.52381,-0.280744 1.41501,-0.592889 1.98046,-0.693653 0.56544,-0.100766 1.39932,-0.406847 1.85305,-0.68018 0.45374,-0.273336 1.16812,-0.49806 1.5875,-0.499391 0.41939,-0.0013 1.35784,-0.295264 2.08544,-0.653184 0.72761,-0.357921 1.62057,-0.654934 1.98438,-0.66003 0.3638,-0.0051 1.03974,-0.239922 1.50209,-0.521838 0.46235,-0.281916 1.29579,-0.592489 1.85208,-0.690165 0.5563,-0.09768 1.2821,-0.347375 1.61289,-0.554887 0.3308,-0.20751 1.2833,-0.502235 2.11667,-0.654939 0.83338,-0.152705 1.70848,-0.450596 1.94469,-0.661983 0.23621,-0.211383 1.04078,-0.48097 1.78794,-0.59908 0.74716,-0.11811 1.56904,-0.40531 1.8264,-0.63822 0.25737,-0.232912 1.00061,-0.503843 1.65165,-0.60207 0.65104,-0.09823 1.55495,-0.401553 2.00869,-0.674058 0.45374,-0.272502 1.10858,-0.496548 1.45521,-0.497879 0.34663,-0.0013 1.22554,-0.295265 1.95315,-0.653185 0.7276,-0.35792 1.65579,-0.654489 2.06264,-0.65904 0.40684,-0.0046 1.29887,-0.30593 1.98227,-0.669732 0.6834,-0.363802 1.54115,-0.661903 1.9061,-0.662448 0.36497,-5.29e-4 1.02317,-0.220287 1.46269,-0.48832 0.43952,-0.268031 1.26742,-0.575183 1.83978,-0.682559 0.57236,-0.107373 1.48793,-0.423413 2.03461,-0.702305 0.54667,-0.278892 1.24041,-0.507077 1.54163,-0.507077 0.30122,0 1.25488,-0.297656 2.11923,-0.661458 0.86436,-0.363802 1.78527,-0.661458 2.04647,-0.661458 0.2612,0 0.88987,-0.22225 1.39704,-0.49389 0.50716,-0.271642 1.33884,-0.582242 1.84816,-0.690224 0.50932,-0.107984 1.37016,-0.442108 1.91297,-0.7425 0.97417,-0.539102 0.99419,-0.539594 1.5484,-0.03805 0.558,0.504989 2.76402,1.360715 5.51985,2.141175 0.79232,0.22439 1.68529,0.565319 1.98437,0.757618 0.29908,0.192302 1.01883,0.436587 1.59944,0.542857 0.58062,0.10627 1.53312,0.410117 2.11667,0.675219 0.58355,0.265102 1.29913,0.485706 1.59018,0.490233 0.29104,0.0045 1.12447,0.301075 1.85208,0.658995 0.7276,0.357921 1.62057,0.654934 1.98437,0.66003 0.36381,0.0051 1.03975,0.239922 1.5021,0.521838 0.46234,0.281916 1.29578,0.595225 1.85208,0.69624 0.5563,0.101018 1.42817,0.388954 1.93749,0.639858 0.50932,0.250907 1.43129,0.533749 2.04882,0.628542 0.61753,0.09479 1.5105,0.408744 1.98437,0.697671 0.47388,0.288928 1.15926,0.529493 1.52306,0.534586 0.3638,0.0051 1.25677,0.302109 1.98438,0.660029 0.7276,0.357921 1.5628,0.651854 1.856,0.653185 0.29319,0.0013 0.94866,0.225155 1.45659,0.497388 0.50792,0.272232 1.45804,0.585277 2.11136,0.695656 0.65333,0.110378 1.60344,0.423423 2.11137,0.695655 0.50793,0.272233 1.16799,0.49497 1.46679,0.49497 0.29881,0 1.00827,0.237061 1.57658,0.526804 0.56831,0.28974 1.45669,0.600569 1.97418,0.690731 0.51748,0.09016 1.30488,0.371327 1.74977,0.624809 0.4449,0.253484 1.27833,0.548764 1.85209,0.656177 0.57375,0.107413 1.54267,0.422627 2.15315,0.700471 0.61047,0.277847 1.29273,0.505174 1.51611,0.505174 0.22338,0 1.15265,0.283179 2.06504,0.629288 1.94195,0.736666 3.06424,1.136632 4.70159,1.675575 0.65484,0.215543 1.74848,0.618564 2.4303,0.895601 0.68182,0.277037 1.51702,0.503703 1.856,0.503703 0.33898,0 1.07742,0.247126 1.64096,0.549172 0.92637,0.496501 2.49589,0.932818 3.63081,1.009338 0.28002,0.01889 0.48762,-0.259345 0.59532,-0.797833 z m -10e-4,-11.145573 c 0.19939,-0.744 0.21264,-19.976818 0.0143,-20.715204 -0.16216,-0.603612 -2.00978,-1.562584 -3.72254,-1.932106 -0.60329,-0.13016 -1.37392,-0.430689 -1.71251,-0.667848 -0.33859,-0.23716 -0.91655,-0.433811 -1.28436,-0.437008 -0.3678,-0.0032 -1.16764,-0.232317 -1.77741,-0.509161 -0.87646,-0.397915 -1.16627,-0.433975 -1.38356,-0.172151 -0.16534,0.199228 -0.30342,2.534531 -0.34652,5.860788 l -0.0716,5.529591 -0.72946,0.256349 c -0.5752,0.202139 -1.02282,0.127757 -2.11667,-0.351734 -0.76296,-0.334447 -1.89141,-0.710978 -2.50765,-0.836732 -0.61624,-0.125756 -1.39015,-0.399735 -1.71979,-0.608843 -0.32964,-0.209105 -1.13253,-0.466222 -1.7842,-0.571368 -0.65166,-0.105145 -1.42557,-0.348115 -1.71979,-0.539932 -0.29422,-0.191818 -1.1054,-0.476023 -1.80262,-0.631569 -0.69722,-0.155543 -1.73902,-0.580353 -2.3151,-0.94402 l -1.04752,-0.661212 v -5.829541 c 0,-5.809936 -0.002,-5.83169 -0.63867,-6.468214 -0.35127,-0.351268 -0.97635,-0.709472 -1.38906,-0.796007 -0.41272,-0.08654 -1.49689,-0.448566 -2.40928,-0.80451 -0.91239,-0.355947 -1.92442,-0.647907 -2.24896,-0.648803 -0.32454,-7.94e-4 -0.94726,-0.195612 -1.38382,-0.432703 -0.68294,-0.370893 -1.99113,-0.7790522 -4.26241,-1.3298829 -0.79602,-0.1930506 -0.88916,0.3857969 -0.89335,5.5519219 -0.002,2.447041 -0.11937,4.665456 -0.26085,4.929809 -0.37415,0.699119 -1.00075,0.85335 -1.81005,0.445535 -0.39096,-0.197012 -1.18709,-0.431398 -1.76917,-0.520854 -0.58209,-0.08946 -1.53,-0.403672 -2.10647,-0.698256 -0.57647,-0.294585 -1.29085,-0.53634 -1.5875,-0.537237 -0.29665,-7.94e-4 -0.89656,-0.188351 -1.33312,-0.416568 -0.43656,-0.228216 -1.38906,-0.573093 -2.11666,-0.766389 -0.72761,-0.1933 -1.68011,-0.540891 -2.11667,-0.772428 -0.43656,-0.231536 -0.98366,-0.421708 -1.21576,-0.422605 -0.23211,-7.94e-4 -0.64883,-0.251907 -0.92605,-0.5578 -0.45146,-0.498171 -0.51782,-1.128639 -0.63632,-6.0458143 -0.095,-3.9413552 -0.229,-5.6058728 -0.47519,-5.9017484 -0.46792,-0.562364 -1.98179,-1.2546014 -2.74371,-1.2546014 -0.34396,0 -1.04035,-0.2206783 -1.54751,-0.4903946 -0.50717,-0.2697163 -1.38476,-0.5757995 -1.95021,-0.6801803 -0.56544,-0.1043834 -1.45841,-0.42117168 -1.98437,-0.70397953 -0.80936,-0.43518404 -1.2612,-0.48726992 -2.94067,-0.33897889 -1.10387,0.0974646 -2.39354,0.3926311 -2.9065,0.66520486 -0.50717,0.26949666 -1.1666,0.48999516 -1.46541,0.48999516 -0.29881,0 -1.01495,0.2442289 -1.59142,0.5427345 -0.57647,0.2985029 -1.62598,0.6142011 -2.33225,0.7015507 -0.78234,0.096758 -1.57443,0.403098 -2.02706,0.7839578 l -0.74294,0.6251416 -0.0896,5.3663324 c -0.0767,4.5931004 -0.1572,5.4694004 -0.55872,6.0816414 -0.25802,0.393419 -0.61521,0.716396 -0.79375,0.717727 -0.17855,0.0013 -0.91995,0.295265 -1.64755,0.653185 -0.72761,0.35792 -1.56563,0.654489 -1.86229,0.65904 -0.29665,0.0046 -1.01103,0.249296 -1.5875,0.54388 -0.57647,0.294585 -1.52438,0.606095 -2.10646,0.692243 -0.58208,0.08615 -1.42997,0.367853 -1.88419,0.626009 -0.45422,0.258157 -1.34719,0.556885 -1.98437,0.66384 -0.63719,0.106955 -1.39338,0.358132 -1.68042,0.558173 -0.65196,0.454361 -2.41698,0.475893 -2.70363,0.03298 -0.11773,-0.181901 -0.27359,-2.652448 -0.34635,-5.490104 l -0.13229,-5.1593757 -1.18282,0.09053 c -0.65055,0.049792 -1.60858,0.3077417 -2.12897,0.5732227 -0.52039,0.265483 -1.41687,0.568264 -1.99218,0.672848 -0.57532,0.104585 -1.48777,0.412179 -2.02768,0.683546 -0.5399,0.271367 -1.19475,0.496009 -1.45521,0.499205 -0.63247,0.0078 -2.78814,0.997522 -3.04186,1.396646 -0.11095,0.174535 -0.20354,2.896941 -0.20577,6.049791 l -0.004,5.732454 -0.99846,0.790792 c -0.65092,0.515538 -1.45675,0.856459 -2.3151,0.979451 -0.72416,0.103762 -1.68789,0.412753 -2.14163,0.686649 -0.45374,0.273894 -1.10953,0.497991 -1.45731,0.497991 -0.34779,0 -1.19148,0.297656 -1.87488,0.661458 -0.6834,0.363803 -1.56137,0.661459 -1.95104,0.661459 -0.38967,0 -1.07974,0.228129 -1.53348,0.506952 -1.26502,0.777354 -2.68489,0.958379 -3.47198,0.442656 l -0.66029,-0.432641 v -5.682441 c 0,-3.125343 -0.0637,-5.682443 -0.1416,-5.682443 -0.0779,0 -0.4053,0.167153 -0.7276,0.371448 -0.32231,0.204298 -1.12179,0.455385 -1.77663,0.557972 -0.65485,0.102587 -1.3775,0.35116 -1.6059,0.552387 -0.2284,0.201223 -1.05356,0.48691 -1.83369,0.634859 -0.78013,0.14795 -1.61466,0.446599 -1.85452,0.663665 -0.23985,0.217067 -0.62051,0.394669 -0.84589,0.394669 -0.97134,0 -1.0116,0.476837 -0.94071,11.143348 l 0.0692,10.420194 0.7424,0.08515 c 0.40832,0.04683 1.20155,-0.154176 1.76273,-0.446678 0.56118,-0.292505 1.47726,-0.613201 2.03572,-0.712658 0.55847,-0.09946 1.37259,-0.3893 1.80915,-0.644096 0.43656,-0.254797 1.30412,-0.540068 1.92791,-0.633937 0.62379,-0.09387 1.57452,-0.406693 2.11275,-0.695163 0.53822,-0.28847 1.27801,-0.525277 1.64396,-0.526235 0.36596,-0.0011 1.02074,-0.235977 1.45507,-0.522264 0.43432,-0.286287 1.32729,-0.5999 1.98437,-0.696915 0.65708,-0.09701 1.46118,-0.384051 1.7869,-0.637852 0.32572,-0.253805 1.11399,-0.539708 1.75173,-0.635342 0.63774,-0.09564 1.61681,-0.407019 2.17571,-0.691967 0.55891,-0.284946 1.31844,-0.521806 1.68785,-0.526357 0.36942,-0.0046 1.26698,-0.30112 1.99458,-0.65904 0.72761,-0.357921 1.60652,-0.651854 1.95315,-0.653185 0.34662,-0.0013 1.00147,-0.230547 1.45521,-0.509371 0.45373,-0.278823 1.30123,-0.593926 1.88331,-0.70023 0.58208,-0.106302 1.47329,-0.413956 1.98046,-0.683673 0.50716,-0.269716 1.22154,-0.491482 1.5875,-0.492813 0.36595,-0.0013 1.26068,-0.295264 1.98829,-0.653184 0.7276,-0.357921 1.62057,-0.654934 1.98437,-0.66003 0.36381,-0.0051 1.02107,-0.22856 1.46059,-0.496594 0.43951,-0.268031 1.27295,-0.574051 1.85208,-0.680043 0.57913,-0.105989 1.31747,-0.363029 1.64077,-0.571195 0.32329,-0.208169 1.21626,-0.508855 1.98438,-0.668192 0.7681,-0.15934 1.66517,-0.459682 1.99348,-0.66743 0.32831,-0.207746 1.213,-0.494557 1.96598,-0.637358 0.75298,-0.142801 1.55593,-0.424275 1.78433,-0.625499 0.2284,-0.201226 0.9366,-0.451411 1.57379,-0.555969 0.63718,-0.104555 1.53015,-0.402 1.98437,-0.660987 0.45422,-0.258985 1.28849,-0.552014 1.85394,-0.651174 0.56544,-0.09916 1.45664,-0.409988 1.98045,-0.690732 0.52381,-0.280744 1.31133,-0.511231 1.75005,-0.512188 0.43872,-0.0011 1.15303,-0.235977 1.58736,-0.522264 0.43432,-0.286287 1.31631,-0.599496 1.95997,-0.696018 0.64366,-0.09652 1.58483,-0.456814 2.0915,-0.800651 1.15685,-0.785058 1.2673,-0.779264 2.61949,0.13738 0.61086,0.414099 1.56336,0.825754 2.11666,0.914786 0.55331,0.08903 1.47768,0.402903 2.05415,0.697487 0.57647,0.294584 1.29261,0.535607 1.59142,0.535607 0.29881,0 0.95886,0.222736 1.46679,0.494969 0.50793,0.272232 1.42195,0.579178 2.03116,0.682104 0.60921,0.102925 1.5565,0.41597 2.10508,0.695655 0.54859,0.279689 1.24191,0.508522 1.54072,0.508522 0.29881,0 0.95824,0.219167 1.46541,0.487039 0.50717,0.267873 1.49873,0.629558 2.20346,0.803744 0.70473,0.174188 1.53817,0.479361 1.85208,0.678161 0.31392,0.1988 1.10591,0.447816 1.76,0.553371 0.65408,0.105553 1.60482,0.41465 2.11274,0.686882 0.50793,0.272233 1.15557,0.49497 1.43921,0.49497 0.28363,0 0.99977,0.222414 1.59141,0.494254 1.05777,0.486008 2.96835,1.152478 6.10281,2.128854 1.89094,0.589026 2.88548,0.935207 5.09847,1.774687 0.91238,0.34611 1.86665,0.629288 2.12058,0.629288 0.25394,0 0.89027,0.229701 1.41408,0.510445 0.52381,0.280744 1.4082,0.595955 1.96531,0.700471 0.55711,0.104516 1.37693,0.397867 1.82183,0.651894 0.44489,0.254029 1.3465,0.537234 2.00358,0.629348 0.65708,0.09211 1.55005,0.401715 1.98438,0.688002 0.43433,0.286287 1.09193,0.521306 1.46135,0.522263 0.36941,0.0011 1.13664,0.238805 1.70495,0.528548 0.56831,0.28974 1.45669,0.60057 1.97417,0.690732 0.51749,0.09016 1.30179,0.369501 1.7429,0.620752 0.44111,0.251251 1.31524,0.538887 1.94251,0.639191 0.62727,0.100306 1.57605,0.401246 2.1084,0.668758 0.53235,0.267513 1.44416,0.572667 2.02624,0.678125 0.58208,0.105457 1.19955,0.308411 1.37215,0.451006 0.41781,0.345191 1.63727,0.700828 2.49959,0.728975 0.50931,0.01662 0.73967,-0.137414 0.85629,-0.572572 z"
           id="path20984" />
        <path
           style="fill:#634e60;stroke-width:0.264583"
           d="m 253.13274,113.69863 c -0.089,-0.33221 -0.16266,-11.14106 -0.16368,-24.019654 -0.002,-21.833616 0.0293,-23.461333 0.4594,-24.092137 0.25371,-0.372081 1.17566,-1.546788 2.04878,-2.610461 2.20036,-2.680555 2.32739,-2.873883 2.16553,-3.295687 -0.14872,-0.387551 -2.88619,-1.751717 -3.51518,-1.751717 -0.19781,0 -1.10616,-0.281929 -2.01855,-0.626512 -1.8359,-0.693362 -3.68737,-1.331698 -5.49534,-1.894636 -2.64586,-0.823825 -4.68634,-1.543214 -5.70593,-2.01168 -0.59165,-0.271841 -1.28395,-0.494255 -1.53845,-0.494255 -0.2545,0 -1.02058,-0.225372 -1.7024,-0.500827 -1.17965,-0.476573 -3.26015,-1.188466 -5.86989,-2.008519 -0.65484,-0.205771 -2.20265,-0.74555 -3.43958,-1.199509 -1.23693,-0.453959 -2.84427,-0.990145 -3.57187,-1.191525 -0.72761,-0.20138 -2.33495,-0.732708 -3.57188,-1.180732 -1.23693,-0.448025 -4.45161,-1.534877 -7.14375,-2.415228 -2.69214,-0.880354 -5.25198,-1.77029 -5.68854,-1.977642 -0.43656,-0.207348 -1.38906,-0.547163 -2.11667,-0.755144 -2.02953,-0.580128 -7.7784,-2.524393 -9.26041,-3.131868 -1.89846,-0.778174 -4.07173,-0.719934 -6.1436,0.164634 -0.90511,0.386435 -1.89329,0.702609 -2.19595,0.702609 -0.30265,0 -0.93131,0.197141 -1.39703,0.438089 -0.46572,0.240951 -1.38254,0.593964 -2.03738,0.784477 -2.13001,0.619673 -4.60673,1.482304 -5.70593,1.987346 -0.59165,0.271841 -1.24649,0.496689 -1.45521,0.499669 -0.20872,0.003 -1.74871,0.486214 -3.4222,1.073864 -1.67349,0.587647 -3.57849,1.233995 -4.23333,1.436325 -0.65484,0.20233 -2.20266,0.736777 -3.43958,1.187664 -1.23693,0.450887 -2.84427,0.971275 -3.57188,1.156417 -0.7276,0.185145 -1.60002,0.486265 -1.93871,0.669158 -0.33868,0.182891 -1.17212,0.492588 -1.85208,0.688216 -0.67996,0.195628 -2.24832,0.730599 -3.48525,1.188828 -1.23693,0.45823 -2.96189,1.012349 -3.83324,1.231379 -0.87136,0.219028 -1.70638,0.49956 -1.85561,0.623406 -0.14922,0.123844 -0.86504,0.372002 -1.59071,0.551461 -0.72567,0.179459 -1.73435,0.545457 -2.24152,0.813329 -0.50717,0.267872 -1.15419,0.48704 -1.43782,0.48704 -0.28363,0 -0.99977,0.230211 -1.59142,0.511579 -0.59164,0.281369 -1.73057,0.691574 -2.53093,0.911567 -1.99866,0.549367 -3.87653,1.172295 -5.29167,1.755349 -0.65484,0.269803 -1.49565,0.554635 -1.86846,0.632955 -1.25358,0.263353 -3.68779,1.47026 -3.68779,1.828448 0,0.195196 0.9496,1.449245 2.11021,2.786777 1.16061,1.33753 2.23217,2.65978 2.38125,2.93833 0.17918,0.334817 0.27104,8.492858 0.27104,24.071769 0,19.685688 -0.0592,23.565308 -0.35962,23.565308 -1.04987,0 -6.66048,-6.33745 -10.30647,-11.64166 -1.89183,-2.75226 -3.35682,-4.976007 -3.35682,-5.095418 0,-0.07819 -0.45498,-0.898478 -1.01107,-1.822858 -1.61367,-2.682404 -5.8681,-11.52637 -5.8681,-12.198422 0,-0.145206 -0.27906,-0.933744 -0.62014,-1.752304 -0.34107,-0.818562 -0.95178,-2.559857 -1.35713,-3.869544 -0.40535,-1.309688 -0.89879,-2.857805 -1.09654,-3.440261 -0.19774,-0.582457 -0.48754,-1.773082 -0.644,-2.645834 -0.15646,-0.872752 -0.4523,-2.182135 -0.65743,-2.909739 -0.20513,-0.727604 -0.6995,-3.346979 -1.0986,-5.820834 -0.69635,-4.316436 -0.72494,-4.87689 -0.70878,-13.890625 0.0139,-7.764334 0.0963,-9.805536 0.47508,-11.773959 0.25204,-1.309688 0.56367,-3.259387 0.69252,-4.332666 0.12885,-1.073277 0.41081,-2.561559 0.62659,-3.307292 0.21577,-0.745731 0.5697,-2.129782 0.7865,-3.075668 1.19836,-5.228264 3.19907,-10.908575 5.77784,-16.4041671 1.9819,-4.2236233 3.74823,-7.585332 4.31399,-8.2104948 0.2141,-0.23657189 0.38951,-0.5398188 0.3898,-0.67388053 5.3e-4,-0.22225266 0.61805,-1.19686658 3.17224,-5.00625027 1.86582,-2.7827527 7.12378,-9.0763733 10.04819,-12.0273903 3.14133,-3.169904 7.92951,-7.294139 10.72383,-9.236824 2.0882,-1.451771 5.48403,-3.703402 7.17006,-4.754168 2.14171,-1.334757 8.43824,-4.363625 11.61536,-5.587427 6.11751,-2.356423 5.41676,-2.127137 10.18645,-3.333029 0.94589,-0.239142 2.3436,-0.607431 3.10602,-0.818421 0.76242,-0.210989 2.66742,-0.552374 4.23333,-0.758632 1.56591,-0.206259 3.68055,-0.495876 4.6992,-0.643593 1.01864,-0.147718 4.85461,-0.270936 8.52437,-0.273818 5.73607,-0.0045 7.33244,0.08853 11.37708,0.663068 2.58764,0.36757 5.06198,0.782678 5.49855,0.922464 0.43656,0.139785 1.44859,0.372076 2.24895,0.516202 1.48003,0.266517 4.09306,1.01844 6.4823,1.865338 0.7276,0.257909 1.85869,0.648979 2.51354,0.869043 2.02796,0.68151 3.53839,1.245871 4.36562,1.631178 0.43656,0.203343 1.62719,0.739894 2.64584,1.19234 1.01864,0.452442 2.03067,0.933476 2.24895,1.068959 0.21828,0.135482 1.11523,0.600818 1.99321,1.034079 0.87799,0.433263 2.00908,1.067636 2.51354,1.409718 0.50447,0.342083 1.10996,0.69577 1.34554,0.785972 1.31906,0.505047 9.58609,6.519804 12.26332,8.922295 2.71451,2.435947 8.44165,8.329298 10.21158,10.507936 3.52454,4.3384176 6.53203,8.6667101 8.61238,12.3947106 0.64964,1.1641667 1.28938,2.2952605 1.42164,2.5135418 0.13225,0.2182812 0.39548,0.7158884 0.58494,1.1057917 0.18946,0.3899032 0.73143,1.4507184 1.20437,2.3573635 0.47295,0.9066477 0.8599,1.7663637 0.8599,1.9104822 0,0.1441186 0.28451,0.8692412 0.63224,1.6113862 1.36077,2.90421 1.73196,3.858822 2.89088,7.434769 1.81855,5.611297 2.29705,7.2722 2.55358,8.863542 0.12902,0.800364 0.42189,2.164831 0.65082,3.032151 0.22893,0.867318 0.41671,1.879349 0.4173,2.248959 5.3e-4,0.369607 0.26051,2.160296 0.57761,3.979307 0.5092,2.920997 0.57708,4.280755 0.58122,11.641667 0.004,6.595081 -0.0848,8.803709 -0.42384,10.583334 -0.23569,1.236927 -0.50903,2.963333 -0.60742,3.836458 -0.21704,1.926109 -1.64164,8.752716 -1.9525,9.356292 -0.12273,0.23831 -0.30688,0.909542 -0.40921,1.491626 -0.36089,2.05278 -3.27626,10.171853 -4.41619,12.29872 -0.27197,0.507436 -0.49449,1.067422 -0.49449,1.244412 0,0.584674 -3.6666,7.292314 -6.23544,11.407027 -0.97521,1.562077 -1.52313,2.336877 -4.39953,6.221317 -2.24471,3.03136 -6.93353,8.19192 -8.18345,9.00676 -0.67547,0.44036 -0.6989,0.43622 -0.85629,-0.15129 z M 129.80016,55.534887 c 1.55991,-0.464071 2.93144,-0.919552 5.55625,-1.845202 1.90317,-0.67116 3.77302,-1.291635 5.29167,-1.755936 0.7276,-0.222454 1.80699,-0.631405 2.39863,-0.908783 0.59165,-0.277379 1.2465,-0.506759 1.45521,-0.509739 0.20872,-0.003 1.74871,-0.486214 3.4222,-1.073864 1.67349,-0.587648 3.57849,-1.233996 4.23333,-1.436325 0.65484,-0.20233 2.20266,-0.735698 3.43958,-1.185262 1.23693,-0.449564 2.96334,-1.038027 3.83646,-1.307693 0.87313,-0.269668 2.00422,-0.637664 2.51354,-0.817769 0.50933,-0.180104 1.75948,-0.62049 2.77813,-0.978635 1.01864,-0.358143 2.44739,-0.865333 3.175,-1.127088 0.7276,-0.261755 2.57307,-0.856525 4.10104,-1.32171 1.52797,-0.465186 3.26742,-1.073703 3.86544,-1.352265 0.59802,-0.278561 1.30457,-0.506476 1.57011,-0.506476 0.26554,0 0.96687,-0.223268 1.55852,-0.496154 0.59165,-0.272886 2.32588,-0.878139 3.85385,-1.345007 1.52797,-0.466871 3.3139,-1.059598 3.96875,-1.317173 1.80296,-0.70917 3.67626,-1.345372 5.29166,-1.797124 1.21842,-0.340736 1.71121,-0.354714 3.02844,-0.08591 0.86528,0.176572 2.02139,0.549677 2.56915,0.829122 0.54775,0.279442 1.1769,0.508079 1.39809,0.508079 0.2212,0 1.14868,0.283179 2.06106,0.629288 2.21299,0.839481 3.20753,1.185662 5.09847,1.774688 3.13446,0.976376 5.04504,1.642845 6.10281,2.128853 0.59165,0.271841 1.30602,0.494988 1.5875,0.495885 0.28148,7.94e-4 0.86896,0.190349 1.30553,0.421008 0.43656,0.230655 1.56765,0.635219 2.51354,0.89903 1.73268,0.483251 3.25396,0.980077 5.68854,1.857772 3.48572,1.256649 5.22551,1.858118 7.54062,2.606897 1.38245,0.447128 4.41855,1.47964 6.74688,2.294472 2.32833,0.814832 4.85665,1.63567 5.61848,1.824083 0.76183,0.188412 1.53574,0.465095 1.71979,0.614847 0.18406,0.149754 0.98949,0.453622 1.78985,0.675264 0.80037,0.221641 2.46724,0.775658 3.70417,1.231146 1.23693,0.455491 2.84427,0.995286 3.57188,1.199547 0.7276,0.204261 2.39013,0.734385 3.69452,1.178052 1.30438,0.443669 2.51088,0.806669 2.68112,0.806669 0.47815,0 0.62827,-0.947211 0.6322,-3.988776 0.003,-2.566559 -0.0459,-2.844684 -0.59487,-3.360396 -0.32917,-0.309238 -1.2519,-0.744562 -2.05052,-0.967391 -0.79862,-0.22283 -2.58313,-0.803807 -3.96558,-1.291058 -4.66365,-1.643727 -6.74155,-2.349776 -7.9375,-2.697078 -0.65484,-0.190164 -2.91703,-0.955847 -5.02708,-1.70152 -2.11006,-0.74567 -5.14615,-1.779715 -6.74688,-2.297875 -1.60073,-0.51816 -3.53549,-1.169371 -4.29948,-1.447133 -5.2078,-1.893409 -6.38815,-2.291035 -8.63445,-2.908718 -1.00179,-0.275468 -1.95429,-0.609592 -2.11667,-0.7425 -0.16238,-0.132909 -0.83101,-0.379392 -1.48586,-0.547741 -1.15219,-0.296209 -2.31794,-0.702532 -5.46812,-1.905918 -0.82466,-0.315024 -1.92599,-0.665239 -2.4474,-0.778253 -0.52141,-0.113017 -1.96005,-0.574845 -3.19698,-1.026282 -3.9032,-1.424546 -10.6687,-3.66631 -11.89336,-3.940898 -1.38879,-0.311385 -2.97646,0.0122 -7.02434,1.431634 -1.45521,0.510284 -3.18162,1.096402 -3.83646,1.302481 -2.52077,0.793292 -7.85927,2.598547 -8.99584,3.042012 -1.88187,0.734275 -3.71678,1.353556 -5.29166,1.785946 -0.80037,0.219742 -1.59891,0.516334 -1.77453,0.659093 -0.17563,0.142761 -1.12813,0.476866 -2.11667,0.742458 -2.05889,0.553161 -3.92125,1.159687 -5.6338,1.834793 -1.50656,0.593899 -3.39449,1.249079 -5.42396,1.882309 -2.22427,0.694007 -4.01346,1.287801 -5.55625,1.844 -4.01994,1.449242 -7.31603,2.579818 -8.86354,3.04024 -0.65485,0.194832 -2.91703,0.971654 -5.02709,1.726272 -2.11005,0.754615 -4.66085,1.597088 -5.66844,1.87216 -3.23459,0.883033 -3.48068,1.293997 -3.28063,5.478402 0.12146,2.540299 0.31191,3.09091 0.97219,2.810621 0.23994,-0.101854 1.15063,-0.397717 2.02376,-0.657471 z m -0.51988,-11.194424 c 1.01354,-0.343162 2.97389,-1.014735 4.35634,-1.492387 1.38244,-0.477653 2.87073,-0.964552 3.30729,-1.082001 0.43656,-0.117448 1.98437,-0.641307 3.43958,-1.164132 1.45521,-0.522825 3.02667,-1.050925 3.49214,-1.173559 0.46548,-0.122635 1.47751,-0.459582 2.24896,-0.748771 1.65482,-0.620329 3.58522,-1.27929 5.23911,-1.788425 0.65484,-0.201586 2.20266,-0.738132 3.43958,-1.192321 1.23693,-0.454192 2.96334,-1.046996 3.83646,-1.317345 2.4738,-0.765976 4.11839,-1.314294 5.55625,-1.852501 0.72761,-0.272349 1.73964,-0.616291 2.24896,-0.764318 0.50932,-0.148024 1.93807,-0.640104 3.175,-1.09351 1.23693,-0.453403 2.84427,-0.989909 3.57188,-1.192233 0.7276,-0.202325 2.33494,-0.736513 3.57187,-1.187088 3.52621,-1.284489 5.87287,-2.104668 6.87917,-2.404332 1.34277,-0.399862 4.6839,-1.516531 6.21771,-2.078072 3.91923,-1.43487 3.68211,-1.420654 6.61458,-0.396582 1.45521,0.508186 3.18161,1.090706 3.83646,1.294488 2.04923,0.637704 3.78764,1.222682 5.15937,1.736135 0.72761,0.272349 1.73964,0.616291 2.24896,0.764318 0.50932,0.148023 1.93807,0.636508 3.175,1.085519 1.23693,0.449008 2.96333,1.037018 3.83646,1.306684 0.87312,0.269669 2.00422,0.637665 2.51354,0.817769 0.50932,0.180105 1.75948,0.620491 2.77813,0.978636 1.01864,0.358143 2.44739,0.864169 3.175,1.124503 2.68645,0.961202 4.79707,1.642311 6.08541,1.963806 0.72761,0.181568 1.60002,0.479761 1.93871,0.662655 0.33869,0.18289 1.17212,0.492588 1.85208,0.688215 0.67996,0.195628 2.24833,0.730459 3.48525,1.188517 1.23693,0.458054 2.84427,0.996693 3.57188,1.196969 0.7276,0.200279 2.51354,0.78957 3.96875,1.309537 1.45521,0.519967 3.77693,1.312156 5.15937,1.760424 1.38245,0.448268 3.10886,1.03279 3.83646,1.298937 0.72761,0.26615 2.67784,0.931008 4.33385,1.477463 2.90494,0.95858 3.02369,0.976103 3.37344,0.497798 0.29305,-0.40077 0.3625,-2.58203 0.3625,-11.384389 0,-10.516596 -0.0179,-10.904835 -0.52396,-11.362818 -0.48043,-0.434774 -3.1356,-1.473306 -6.09062,-2.38225 -0.65484,-0.201425 -1.69231,-0.550474 -2.30549,-0.775663 -1.28598,-0.472279 -1.8125,-0.353116 -2.03045,0.459531 -0.0851,0.317357 -0.15638,2.920473 -0.15836,5.784702 -0.004,5.979589 0.0114,5.945643 -2.30471,5.035119 -1.68446,-0.662213 -3.56352,-1.314755 -5.50411,-1.911416 -4.18353,-1.286283 -6.77997,-2.292845 -7.07356,-2.742206 -0.10691,-0.163637 -0.19621,-2.93802 -0.19844,-6.165297 l -0.004,-5.867776 -0.65915,-0.518493 c -0.36254,-0.285171 -1.10257,-0.601676 -1.64451,-0.703345 -0.54194,-0.101669 -1.34386,-0.37025 -1.78206,-0.59685 -0.43819,-0.226599 -1.39481,-0.565406 -2.12581,-0.752906 -0.731,-0.187502 -2.34112,-0.7143856 -3.57805,-1.1708527 -4.45661,-1.6446369 -4.23333,-1.8809019 -4.23333,4.4796187 0,6.0696 0.002,6.065104 -2.26097,5.460812 -0.86652,-0.231407 -2.58752,-0.782823 -3.82445,-1.22537 -1.23693,-0.442548 -2.78474,-0.958615 -3.43958,-1.146818 -0.65485,-0.188204 -1.57167,-0.53933 -2.03738,-0.78028 -0.46572,-0.240948 -1.07761,-0.438089 -1.35976,-0.438089 -0.28214,0 -0.79407,-0.227423 -1.13761,-0.505386 -0.61348,-0.496364 -0.62699,-0.607642 -0.75692,-6.233494 -0.15206,-6.583974 -0.0541,-6.3443012 -2.89992,-7.095919 -0.80614,-0.2129128 -2.79965,-0.8667274 -4.43004,-1.45291974 -1.63038,-0.58619233 -3.41632,-1.13985944 -3.96875,-1.23037341 -1.13204,-0.18548086 -3.35692,0.40618306 -8.41275,2.23721095 -0.7276,0.2635118 -1.82254,0.6108118 -2.4332,0.771779 -2.07222,0.546235 -2.19701,0.9313625 -2.19701,6.7806838 0,2.8085574 -0.10846,5.3917534 -0.24103,5.7404344 -0.23704,0.623472 -1.11216,1.020972 -4.78605,2.173933 -2.65707,0.833859 -3.90232,1.254713 -5.21657,1.763022 -0.75906,0.293582 -1.97356,0.690335 -2.69889,0.881672 -2.23029,0.58834 -2.24769,0.548997 -2.40329,-5.434161 -0.15031,-5.779813 -0.22975,-5.9937154 -1.92687,-5.1883792 -0.51218,0.2430436 -1.06029,0.4418965 -1.21803,0.4418965 -0.33376,0 -4.58332,1.3799057 -6.51239,2.1146827 -0.72761,0.277143 -1.62057,0.56439 -1.98438,0.638326 -0.3638,0.07394 -0.89958,0.308387 -1.19062,0.521004 -0.49593,0.362294 -0.53748,0.77421 -0.66146,6.556862 l -0.13229,6.170285 -1.19063,0.575953 c -0.65484,0.316775 -1.66687,0.659656 -2.24895,0.761957 -0.58209,0.102301 -1.41553,0.369065 -1.85209,0.592807 -0.43656,0.223742 -1.32953,0.56079 -1.98437,0.748993 -0.65485,0.188204 -2.20266,0.716431 -3.43959,1.173838 -2.82315,1.043979 -3.77128,1.207235 -4.17639,0.719116 -0.21035,-0.253463 -0.33362,-2.159773 -0.38216,-5.909922 l -0.0716,-5.535776 -0.92605,0.03513 c -0.50932,0.01931 -1.93807,0.412337 -3.175,0.873369 -1.23692,0.461028 -2.78474,0.992219 -3.43958,1.180422 -1.80375,0.518404 -2.82554,1.131409 -3.00547,1.803085 -0.27361,1.021424 -0.19227,21.016861 0.0885,21.755353 0.14192,0.373277 0.29492,0.678683 0.34001,0.678683 0.0451,0 0.91125,-0.280768 1.92478,-0.623928 z"
           id="path20982" />
        <path
           style="fill:#252a6b;stroke-width:0.264583"
           d="m 253.93384,112.52134 c -0.097,-0.097 -0.17639,-10.52281 -0.17639,-23.168439 0,-16.984682 0.0805,-23.142436 0.30805,-23.567635 0.32724,-0.611465 2.73569,-3.574584 3.26735,-4.019833 0.53926,-0.451612 1.1871,-1.551631 1.1871,-2.015665 0,-0.59032 -2.24703,-1.978596 -3.57187,-2.206805 -0.58209,-0.100266 -1.30304,-0.339637 -1.60212,-0.531939 -0.29908,-0.192299 -1.19205,-0.530646 -1.98438,-0.751883 -1.49863,-0.418454 -3.51608,-1.057693 -4.88017,-1.546309 -0.43656,-0.156374 -1.32953,-0.45869 -1.98438,-0.671809 -0.65484,-0.213119 -1.7264,-0.598699 -2.38125,-0.856845 -1.9785,-0.779945 -3.75338,-1.363658 -5.38467,-1.770881 -0.85151,-0.212566 -1.80401,-0.546541 -2.11666,-0.742166 -0.31265,-0.195623 -1.04471,-0.437383 -1.62679,-0.537242 -0.58208,-0.09986 -1.31517,-0.346851 -1.62909,-0.548868 -0.31391,-0.20202 -1.14735,-0.510421 -1.85208,-0.685334 -0.70473,-0.174914 -1.51946,-0.471051 -1.8105,-0.65808 -0.29104,-0.187031 -1.06495,-0.420769 -1.71979,-0.519422 -0.65484,-0.09866 -1.54781,-0.387839 -1.98437,-0.642636 -0.43657,-0.254796 -1.25639,-0.545711 -1.82183,-0.646477 -0.56545,-0.100764 -1.45665,-0.412909 -1.98046,-0.693653 -0.52381,-0.280744 -1.19686,-0.510445 -1.49567,-0.510445 -0.2988,0 -1.00826,-0.237061 -1.57658,-0.526804 -0.56831,-0.28974 -1.45668,-0.603308 -1.97417,-0.696817 -0.51748,-0.09351 -1.29473,-0.349425 -1.72722,-0.568698 -0.43248,-0.219277 -1.47751,-0.559922 -2.32228,-0.756992 -0.84477,-0.197072 -1.8006,-0.524171 -2.12408,-0.726887 -0.32347,-0.202716 -1.01153,-0.442534 -1.52901,-0.532927 -0.51749,-0.09039 -1.40586,-0.401415 -1.97417,-0.691155 -0.56832,-0.289742 -1.27778,-0.526804 -1.57658,-0.526804 -0.29881,0 -0.95825,-0.220678 -1.46541,-0.490394 -0.50717,-0.269717 -1.39838,-0.570368 -1.98046,-0.668113 -0.58208,-0.09774 -1.59412,-0.403614 -2.24896,-0.679707 -2.68705,-1.132906 -4.83698,-1.593852 -5.14084,-1.102196 -0.0797,0.129024 -0.59278,0.315238 -1.14009,0.413809 -0.54731,0.09857 -1.41731,0.395155 -1.93334,0.659077 -0.51602,0.263924 -1.46852,0.568039 -2.11666,0.675812 -0.64815,0.107773 -1.52012,0.370895 -1.93772,0.584713 -0.4176,0.213818 -1.31057,0.54596 -1.98437,0.73809 -1.55053,0.442124 -3.53121,1.129972 -5.06156,1.757775 -0.65485,0.26864 -1.76371,0.610579 -2.46415,0.759868 -0.70043,0.149285 -1.53387,0.434467 -1.85208,0.633735 -0.31821,0.199268 -1.0412,0.443624 -1.60664,0.543015 -0.56545,0.09939 -1.45665,0.410411 -1.98046,0.691155 -0.52381,0.280744 -1.19227,0.511532 -1.48546,0.512863 -0.2932,0.0013 -1.1284,0.295265 -1.856,0.653185 -0.72761,0.35792 -1.59556,0.654489 -1.92877,0.65904 -0.33322,0.0046 -1.0476,0.230301 -1.5875,0.501669 -0.53991,0.271367 -1.45379,0.579228 -2.03084,0.684141 -0.57706,0.10491 -1.39498,0.369559 -1.81761,0.58811 -0.42263,0.218551 -1.31971,0.554564 -1.99352,0.746694 -1.54722,0.441182 -3.59877,1.151033 -4.79697,1.659792 -0.50933,0.21626 -1.52136,0.548453 -2.24896,0.738206 -0.72761,0.189757 -2.33495,0.716667 -3.57188,1.170917 -1.23692,0.454247 -2.89042,1.006192 -3.67443,1.226542 -0.78401,0.22035 -1.67698,0.559797 -1.98437,0.754327 -0.3074,0.19453 -1.09406,0.440052 -1.74815,0.545608 -0.65409,0.105553 -1.60482,0.41465 -2.11275,0.686882 -0.50793,0.272233 -1.16798,0.494969 -1.46679,0.494969 -0.29881,0 -1.00827,0.237062 -1.57658,0.526804 -0.56831,0.28974 -1.45669,0.601613 -1.97417,0.693047 -1.3542,0.239276 -3.71901,1.6328 -3.71901,2.191526 0,0.254169 0.39987,0.930039 0.88859,1.501936 0.48873,0.571897 1.55879,1.87325 2.37791,2.891896 l 1.48931,1.852083 0.003,22.952606 c 0.003,18.496308 -0.0625,22.952608 -0.33594,22.952608 -0.84454,0 -6.50446,-6.81588 -9.88698,-11.906254 -0.82193,-1.236927 -1.77429,-2.672077 -2.11636,-3.189221 -0.34206,-0.517144 -0.62194,-1.068113 -0.62194,-1.224375 0,-0.156261 -0.16955,-0.424826 -0.37678,-0.59681 -0.20723,-0.171988 -0.86527,-1.287894 -1.4623,-2.479795 -0.59703,-1.1919 -1.18191,-2.345684 -1.29972,-2.563966 -0.11782,-0.218281 -0.54811,-1.11125 -0.9562,-1.984375 -0.40809,-0.873125 -0.86288,-1.825625 -1.01064,-2.116667 -0.14775,-0.291041 -0.35686,-0.70776 -0.46467,-0.926041 -0.10782,-0.218282 -0.51801,-1.289844 -0.91153,-2.38125 -0.39352,-1.091407 -0.8972,-2.401094 -1.11929,-2.910417 -0.22208,-0.509323 -0.5575,-1.521354 -0.74538,-2.248959 -0.18788,-0.727604 -0.52215,-1.858698 -0.74284,-2.513541 -0.70872,-2.103023 -1.43747,-4.861275 -1.60781,-6.085417 -0.0911,-0.654844 -0.33359,-1.726407 -0.5388,-2.38125 -0.20522,-0.654844 -0.50597,-2.500313 -0.66833,-4.101042 -0.16237,-1.60073 -0.46726,-3.743855 -0.67753,-4.762501 -0.55733,-2.699816 -0.5284,-15.562035 0.0419,-18.653125 0.22823,-1.236928 0.56555,-3.558646 0.7496,-5.159376 0.18405,-1.600729 0.54034,-3.743854 0.79176,-4.7625 0.51174,-2.073338 0.80266,-3.237307 1.38872,-5.55625 0.22067,-0.873125 0.62767,-2.145353 0.90446,-2.827174 0.27678,-0.68182 0.50325,-1.457491 0.50325,-1.72371 0,-0.266221 0.23812,-0.928325 0.52916,-1.471345 0.29105,-0.543023 0.53289,-1.196102 0.53744,-1.451293 0.005,-0.255188 0.30112,-1.059291 0.65904,-1.786895 0.35792,-0.727604 0.65186,-1.457465 0.65319,-1.621912 10e-4,-0.164446 0.47102,-1.236009 1.04375,-2.38125 0.57274,-1.1452411 1.2228,-2.4989739 1.44458,-3.0082968 1.05313,-2.4185537 3.65073,-6.82534018 6.47231,-10.9802089 4.39045,-6.4650573 10.60046,-13.2877113 16.57407,-18.2091713 1.01864,-0.839229 2.10866,-1.739601 2.42225,-2.000826 0.31359,-0.261229 1.20656,-0.908855 1.98437,-1.439172 0.77782,-0.530318 1.89046,-1.320761 2.47255,-1.756543 0.58208,-0.435782 1.35577,-0.922231 1.7193,-1.080997 0.36354,-0.158766 0.85534,-0.464558 1.09289,-0.679538 0.23755,-0.214979 0.83308,-0.601922 1.3234,-0.859869 0.49032,-0.257948 1.36774,-0.745281 1.94982,-1.082964 1.53228,-0.888912 4.21986,-2.240401 6.35,-3.193182 1.01865,-0.455626 2.07772,-0.949788 2.35349,-1.09814 0.27577,-0.148352 1.1092,-0.48252 1.85208,-0.742598 2.64896,-0.927389 3.21946,-1.131462 4.52568,-1.61887 0.72761,-0.271501 1.94792,-0.611412 2.71182,-0.755359 0.76389,-0.143946 1.71639,-0.429514 2.11666,-0.634595 0.40028,-0.20508 1.50168,-0.46121 2.44756,-0.569175 0.94589,-0.107966 2.25558,-0.374124 2.91042,-0.591463 4.80878,-1.596005 25.69777,-1.590077 30.69167,0.0087 0.65484,0.209647 1.90487,0.469073 2.77785,0.576503 0.87297,0.107429 1.90227,0.358244 2.28733,0.557365 0.38505,0.199121 1.21862,0.440781 1.85236,0.537022 0.63373,0.09624 1.83327,0.456834 2.66563,0.801318 0.83236,0.344484 1.72709,0.626334 1.98829,0.626334 0.2612,0 0.9192,0.238126 1.46222,0.529167 0.54303,0.291042 1.11662,0.529167 1.27466,0.529167 0.34868,0 5.79971,2.319692 6.99062,2.974864 0.29104,0.160115 1.40485,0.739743 2.47514,1.28806 1.07028,0.54832 2.14206,1.174404 2.38173,1.391301 0.23967,0.216898 0.7332,0.507691 1.09673,0.646203 1.23619,0.471008 5.04069,3.085431 9.20477,6.325434 0.97623,0.759589 2.05924,1.593027 2.40669,1.852083 1.05672,0.787879 8.29671,8.03977 9.69691,9.712852 0.72216,0.862909 1.55115,1.8332106 1.84219,2.1562246 1.06224,1.1789384 3.47891,4.5263225 5.52438,7.6519382 1.487,2.2722232 1.8714,2.88977131 2.2234,3.5718751 0.18773,0.3638021 0.6247,1.1377084 0.97104,1.7197918 0.92002,1.5462832 3.58611,6.8390693 3.58514,7.1173153 -5.3e-4,0.13098 0.28244,0.845355 0.62865,1.587501 1.26426,2.71005 1.68488,3.749802 1.8838,4.656733 0.11171,0.509275 0.42535,1.340908 0.69699,1.848075 0.27164,0.507169 0.49389,1.159711 0.49389,1.450094 0,0.290385 0.2244,1.125585 0.49866,1.856001 0.66847,1.780287 1.32103,4.339038 1.72197,6.75199 0.18135,1.091406 0.52232,2.758282 0.75771,3.704167 0.2354,0.945885 0.56108,3.446198 0.72375,5.55625 0.16267,2.110052 0.41766,4.320702 0.56664,4.912556 0.37205,1.478047 0.13328,10.530859 -0.39033,14.798903 -0.23208,1.891771 -0.42576,4.00272 -0.43039,4.691 -0.005,0.688279 -0.18457,1.70031 -0.39985,2.248958 -0.21529,0.548648 -0.56104,2.069105 -0.76835,3.378793 -0.20731,1.309687 -0.55252,2.917031 -0.76714,3.571875 -0.21461,0.654844 -0.53289,1.726406 -0.70727,2.38125 -0.9191,3.451387 -1.31134,4.704072 -1.69834,5.423959 -0.23469,0.436562 -0.42745,1.035148 -0.42834,1.33019 -8e-4,0.295045 -0.16329,0.771295 -0.36086,1.058333 -0.19758,0.287041 -0.51275,0.998144 -0.70038,1.580227 -0.18763,0.582083 -0.56176,1.47329 -0.8314,1.980457 -0.26963,0.507169 -0.49024,1.067612 -0.49024,1.24543 0,0.344123 -1.69892,3.650086 -3.60627,7.017539 -0.63593,1.122738 -1.15623,2.149957 -1.15623,2.282709 0,0.132749 -0.17269,0.384686 -0.38376,0.559856 -0.21107,0.17517 -0.75049,0.968303 -1.19872,1.762522 -1.75919,3.117103 -6.7548,9.558043 -9.97938,12.866593 -1.74292,1.7883 -1.95588,1.93834 -2.28467,1.60955 z M 129.27099,56.463347 c 0.29104,-0.176176 1.10577,-0.458759 1.8105,-0.627965 0.70473,-0.169206 1.53817,-0.470302 1.85208,-0.669102 0.31392,-0.1988 1.10654,-0.446506 1.76138,-0.550458 0.65484,-0.103952 1.5323,-0.363947 1.9499,-0.577765 0.4176,-0.213818 1.31057,-0.54596 1.98438,-0.73809 1.55052,-0.442124 3.5312,-1.129972 5.06155,-1.757775 0.65485,-0.26864 1.76371,-0.610579 2.46415,-0.759868 0.70043,-0.149286 1.53387,-0.434467 1.85208,-0.633735 0.31821,-0.199268 1.0412,-0.443624 1.60664,-0.543015 0.56545,-0.09939 1.45665,-0.410411 1.98046,-0.691155 0.52381,-0.280744 1.19227,-0.511532 1.48546,-0.512863 0.2932,-0.0013 1.1284,-0.295265 1.85601,-0.653185 0.7276,-0.357921 1.59555,-0.654489 1.92877,-0.65904 0.33321,-0.0046 1.04759,-0.230301 1.5875,-0.501669 0.5399,-0.271367 1.45378,-0.579228 2.03083,-0.684141 0.57706,-0.10491 1.39498,-0.369559 1.81761,-0.58811 0.42263,-0.218552 1.31971,-0.554564 1.99352,-0.746694 1.54722,-0.441182 3.59877,-1.151033 4.79697,-1.659792 0.50933,-0.21626 1.52136,-0.548453 2.24896,-0.738206 0.72761,-0.189757 2.33495,-0.716667 3.57188,-1.170917 1.23692,-0.454247 2.89042,-1.006192 3.67443,-1.226542 0.78401,-0.22035 1.67698,-0.557877 1.98437,-0.750057 0.3074,-0.19218 1.00375,-0.427402 1.54745,-0.522713 0.5437,-0.09531 1.4962,-0.403717 2.11667,-0.685345 0.62047,-0.281628 1.37083,-0.514665 1.66749,-0.517861 0.29665,-0.0032 1.00435,-0.242872 1.57266,-0.532614 0.56831,-0.28974 1.45669,-0.603494 1.97417,-0.69723 0.51749,-0.09373 1.41713,-0.41597 1.99922,-0.716079 1.41875,-0.731481 3.70341,-0.725284 4.92713,0.01336 0.49153,0.296693 1.35633,0.621887 1.92178,0.722654 0.56544,0.100764 1.45664,0.412909 1.98045,0.693653 0.52381,0.280744 1.19686,0.510445 1.49567,0.510445 0.29881,0 1.00827,0.237061 1.57658,0.526803 0.56831,0.28974 1.45669,0.594641 1.97417,0.677553 0.51749,0.08291 1.47666,0.372161 2.13151,0.642769 0.65484,0.27061 1.7264,0.666387 2.38125,0.879506 1.58634,0.516277 2.71036,0.915805 4.70159,1.671164 0.91239,0.34611 1.92618,0.629288 2.25288,0.629288 0.32669,0 1.00894,0.220678 1.51611,0.490395 0.50717,0.269716 1.39838,0.57618 1.98046,0.681032 0.58208,0.104849 1.30722,0.350716 1.61142,0.54637 0.30419,0.195651 1.0781,0.490148 1.71979,0.654436 0.64169,0.164285 1.52389,0.462542 1.96046,0.662789 0.92713,0.425271 3.66579,1.328434 5.55625,1.832354 0.7276,0.19395 1.6801,0.546621 2.11666,0.783709 0.43656,0.23709 1.03647,0.431805 1.33312,0.432702 0.29665,7.94e-4 1.00435,0.238691 1.57266,0.528434 0.56831,0.28974 1.45669,0.603308 1.97418,0.696817 0.51748,0.09351 1.29473,0.349425 1.72721,0.568698 0.43249,0.219276 1.47751,0.559922 2.32228,0.756992 0.84477,0.197072 1.80061,0.524171 2.12408,0.726887 0.32348,0.202716 1.01154,0.442534 1.52902,0.532926 0.51748,0.0904 1.40586,0.401416 1.97417,0.691156 0.56831,0.289742 1.27777,0.526804 1.57658,0.526804 0.29881,0 0.98365,0.236021 1.52188,0.524491 0.53822,0.28847 1.48896,0.602687 2.11275,0.698257 0.62378,0.09557 1.49134,0.354346 1.92791,0.575056 0.43656,0.22071 1.32953,0.553744 1.98437,0.740071 0.65484,0.186328 1.75374,0.552921 2.44198,0.814647 1.1971,0.455239 1.27166,0.455567 1.71979,0.0076 0.40339,-0.403233 0.46844,-0.980313 0.46844,-4.155475 0,-4.287729 -0.0783,-4.447064 -2.51354,-5.112454 -1.77848,-0.485947 -3.70793,-1.123092 -5.29167,-1.747417 -1.78307,-0.7029 -3.70805,-1.354918 -4.89479,-1.657926 -0.58208,-0.148625 -1.55145,-0.487403 -2.15414,-0.752843 -0.6027,-0.265438 -1.55278,-0.568344 -2.1113,-0.673121 -0.55851,-0.104778 -1.37509,-0.409806 -1.8146,-0.677837 -0.43952,-0.268033 -1.09678,-0.4915 -1.46059,-0.496593 -0.3638,-0.0051 -1.25677,-0.30211 -1.98437,-0.66003 -0.72761,-0.35792 -1.62385,-0.651854 -1.99165,-0.653185 -0.3678,-0.0013 -0.92186,-0.179713 -1.23123,-0.396406 -0.30937,-0.216692 -1.26193,-0.557155 -2.1168,-0.756582 -0.85487,-0.19943 -1.93202,-0.557916 -2.39366,-0.796639 -0.46164,-0.238723 -1.05361,-0.435205 -1.3155,-0.436626 -0.26189,-0.0013 -1.11306,-0.299077 -1.8915,-0.661459 -0.77843,-0.362391 -1.64638,-0.658884 -1.92876,-0.658884 -0.28239,0 -0.95518,-0.223456 -1.49509,-0.496567 -0.5399,-0.273113 -1.6101,-0.629766 -2.37821,-0.792567 -0.76811,-0.162798 -1.66108,-0.461725 -1.98437,-0.664279 -0.3233,-0.202554 -1.21326,-0.512707 -1.97769,-0.689226 -0.76444,-0.176523 -1.44868,-0.416084 -1.52054,-0.532361 -0.0719,-0.116276 -0.75611,-0.357867 -1.52054,-0.536866 -0.76443,-0.178998 -1.68753,-0.47865 -2.05134,-0.665892 -0.3638,-0.187241 -1.91161,-0.717535 -3.43958,-1.178431 -1.52797,-0.460896 -3.31391,-1.048737 -3.96875,-1.306311 -1.67043,-0.657043 -3.62458,-1.327915 -5.06156,-1.737659 -0.6738,-0.19213 -1.56677,-0.522439 -1.98437,-0.734015 -0.4176,-0.211577 -1.23141,-0.470337 -1.80847,-0.575022 -0.57705,-0.104685 -1.37481,-0.358722 -1.7728,-0.564528 -0.98414,-0.508921 -1.80306,-0.470369 -3.16839,0.149164 -0.63435,0.287845 -1.45279,0.52597 -1.81874,0.529166 -0.36596,0.0032 -1.08034,0.226489 -1.5875,0.496205 -0.50717,0.269717 -1.38476,0.5758 -1.95021,0.680181 -0.56544,0.104383 -1.45664,0.419486 -1.98045,0.70023 -0.52381,0.280744 -1.18444,0.510445 -1.46808,0.510445 -0.28363,0 -0.99977,0.228788 -1.59142,0.508418 -0.59164,0.27963 -1.73056,0.686316 -2.53093,0.903748 -1.76771,0.480229 -3.69681,1.116425 -5.29166,1.745131 -1.66132,0.654904 -3.61847,1.327205 -5.06156,1.738696 -0.67381,0.19213 -1.56677,0.522438 -1.98438,0.734015 -0.4176,0.211577 -1.22998,0.470069 -1.8053,0.574429 -0.57531,0.104357 -1.4933,0.417928 -2.03998,0.69682 -0.54667,0.278892 -1.26659,0.510799 -1.5998,0.51535 -0.33322,0.0046 -1.20117,0.30112 -1.92877,0.65904 -0.72761,0.357921 -1.56281,0.651854 -1.85601,0.653185 -0.29319,0.0013 -0.96165,0.232119 -1.48546,0.512863 -0.52381,0.280744 -1.41501,0.585645 -1.98046,0.677553 -0.56544,0.09191 -1.56386,0.388519 -2.2187,0.659127 -0.65484,0.270611 -1.72641,0.666388 -2.38125,0.879507 -1.58634,0.516276 -2.71036,0.915805 -4.70159,1.671164 -0.91239,0.34611 -1.89147,0.629288 -2.17574,0.629288 -0.28427,0 -1.02605,0.22189 -1.6484,0.493091 -1.43645,0.625948 -3.37657,1.298495 -5.21799,1.808826 -0.79232,0.219586 -1.68529,0.553704 -1.98437,0.742485 -0.29908,0.18878 -0.9605,0.426127 -1.46983,0.527436 -0.50932,0.101309 -1.40229,0.40318 -1.98437,0.670822 -0.58208,0.267644 -1.51146,0.560271 -2.06528,0.650282 -1.86954,0.303853 -2.03631,0.700352 -2.03171,4.830496 0.002,2.000911 0.0915,3.768997 0.19844,3.929078 0.42547,0.637064 1.48739,0.621853 2.57563,-0.03689 z m -0.45248,-11.198601 c 0.53991,-0.271368 1.40505,-0.570088 1.92253,-0.663822 0.51748,-0.09374 1.40586,-0.40749 1.97417,-0.69723 0.56831,-0.289742 1.27777,-0.526804 1.57658,-0.526804 0.29881,0 0.95824,-0.220678 1.46541,-0.490394 0.50717,-0.269716 1.39838,-0.57817 1.98046,-0.685451 0.58208,-0.107281 1.53458,-0.408903 2.11667,-0.670272 0.58208,-0.261366 1.47505,-0.559914 1.98437,-0.663437 0.50932,-0.103521 1.16417,-0.335576 1.45521,-0.515678 0.29104,-0.1801 1.10577,-0.470567 1.8105,-0.64548 0.70473,-0.174914 1.53817,-0.478759 1.85208,-0.675209 0.31392,-0.196451 1.047,-0.439941 1.62909,-0.541086 0.58208,-0.101148 1.41552,-0.351849 1.85208,-0.557112 0.43656,-0.205261 1.38906,-0.543174 2.11667,-0.750914 0.7276,-0.207741 2.33494,-0.752483 3.57187,-1.210541 1.23693,-0.458054 2.84705,-0.986237 3.57805,-1.173739 0.731,-0.1875 1.6835,-0.520602 2.11667,-0.740227 0.43317,-0.219628 1.21097,-0.47583 1.72845,-0.569339 0.51749,-0.09351 1.40586,-0.407077 1.97417,-0.696817 0.56832,-0.289743 1.27778,-0.526804 1.57658,-0.526804 0.29881,0 0.97186,-0.229701 1.49567,-0.510445 0.52381,-0.280744 1.41501,-0.591764 1.98046,-0.691155 0.56544,-0.09939 1.29259,-0.346475 1.61589,-0.549074 0.32329,-0.202599 1.21626,-0.50137 1.98437,-0.663937 0.76811,-0.162566 1.73824,-0.470117 2.15584,-0.683446 0.4176,-0.213328 1.31057,-0.54507 1.98438,-0.7372 1.46348,-0.417304 3.42911,-1.093878 5.06155,-1.742192 0.65485,-0.260069 1.54782,-0.545843 1.98438,-0.635058 0.792,-0.161848 1.84498,-0.530397 5.23076,-1.830795 1.86789,-0.717412 3.71291,-0.874977 5.08973,-0.43466 0.43561,0.139308 1.80404,0.623729 3.04097,1.076492 1.23692,0.452763 2.84705,0.976614 3.57805,1.164116 0.731,0.1875 1.6835,0.520602 2.11666,0.740228 0.43317,0.219628 1.21098,0.475829 1.72846,0.569338 0.51748,0.09351 1.40586,0.407077 1.97417,0.696817 0.56831,0.289743 1.27777,0.526804 1.57658,0.526804 0.29881,0 0.97186,0.229701 1.49567,0.510445 0.52381,0.280744 1.41501,0.594498 1.98045,0.69723 0.56545,0.102732 1.4448,0.392716 1.95412,0.644409 0.50933,0.251692 1.38543,0.541065 1.9469,0.643053 0.56147,0.101987 1.51397,0.399508 2.11667,0.661155 1.40967,0.611978 3.36368,1.287465 5.18223,1.791459 0.79233,0.219586 1.6853,0.554487 1.98438,0.744225 0.29908,0.189741 1.22631,0.482958 2.06052,0.651595 0.83421,0.168638 1.57798,0.405702 1.65283,0.526812 0.0748,0.121108 0.76154,0.368752 1.52597,0.550323 0.76443,0.181567 1.80484,0.550719 2.312,0.820335 0.50717,0.269616 1.16661,0.49021 1.46541,0.49021 0.29881,0 1.00827,0.237061 1.57658,0.526803 0.56831,0.28974 1.45669,0.594641 1.97418,0.677553 0.51748,0.08291 1.47666,0.372161 2.1315,0.642769 0.65484,0.27061 1.72641,0.666387 2.38125,0.879506 0.65484,0.21312 1.60734,0.535634 2.11667,0.716699 0.84702,0.301117 1.9669,0.68763 5.68854,1.963338 0.7276,0.249409 1.84892,0.577596 2.49181,0.729302 0.6429,0.151707 1.53586,0.499605 1.98438,0.773108 0.44851,0.273502 1.11489,0.497723 1.48085,0.498266 0.36596,5.29e-4 1.10967,0.239114 1.65269,0.530156 0.54302,0.291042 1.21129,0.529167 1.48504,0.529167 1.19409,0 1.21981,-0.23825 1.29694,-12.012717 0.0851,-12.98842 0.12456,-12.745776 -2.16552,-13.310942 -0.71435,-0.176292 -1.68711,-0.504788 -2.16169,-0.729993 -0.47458,-0.225205 -1.25934,-0.485106 -1.7439,-0.577559 -0.48456,-0.09245 -1.32784,-0.391623 -1.87395,-0.664824 -1.20447,-0.602557 -3.15569,-0.730104 -3.74078,-0.244525 -0.36301,0.301268 -0.42566,1.071562 -0.42566,5.233059 0,2.958716 -0.11141,5.087948 -0.28298,5.408541 -0.33395,0.623983 -1.00483,0.550143 -3.68577,-0.405678 -3.26422,-1.163767 -4.36981,-1.521055 -5.55625,-1.795568 -0.65485,-0.151514 -1.3461,-0.400886 -1.53612,-0.554162 -0.19002,-0.153276 -0.9044,-0.42041 -1.5875,-0.59363 l -1.24201,-0.314946 -0.13229,-6.215053 c -0.14603,-6.860582 -0.16995,-6.956192 -1.81252,-7.243659 -0.53108,-0.09295 -1.25241,-0.349356 -1.60294,-0.569802 -0.35053,-0.220448 -1.2435,-0.554564 -1.98438,-0.742481 -1.48361,-0.376307 -3.12827,-0.9219252 -5.65175,-1.8749676 -1.8082,-0.6829028 -2.7284,-0.7751392 -3.51789,-0.3526208 -0.47748,0.2555425 -0.51177,0.5997866 -0.51177,5.1377374 0,2.675112 -0.0723,5.052174 -0.1606,5.282356 -0.21486,0.559936 -1.22878,0.528688 -2.42963,-0.07488 -0.5399,-0.271368 -1.45236,-0.578962 -2.02767,-0.683546 -0.57531,-0.104585 -1.49331,-0.418341 -2.03998,-0.697233 -0.54668,-0.278892 -1.17493,-0.507076 -1.39613,-0.507076 -0.2212,0 -1.14868,-0.28497 -2.06106,-0.633265 -0.91239,-0.348295 -2.01608,-0.737878 -2.45264,-0.86574 L 207.05849,14.922492 206.9262,9.0179888 206.79391,3.113486 206.09647,2.5140354 c -0.38359,-0.3296973 -1.19162,-0.6784737 -1.79562,-0.7750572 -0.604,-0.096584 -1.53854,-0.4116282 -2.07677,-0.7000982 -0.53822,-0.28846989 -1.26395,-0.52449147 -1.61273,-0.52449147 -0.34878,0 -1.00539,-0.22363642 -1.45913,-0.49697219 -0.45374,-0.27333311 -1.29711,-0.581197 -1.87417,-0.68414109 -0.57705,-0.10294144 -1.37481,-0.35555505 -1.7728,-0.56136115 -0.91546,-0.4734031 -2.32405,-0.467704 -2.9571,0.011959 -0.26808,0.2031286 -0.98246,0.44876777 -1.5875,0.54586192 -0.60504,0.0970941 -1.46408,0.38580486 -1.90897,0.64157758 -0.4449,0.25577536 -1.26056,0.54977508 -1.81259,0.6533383 -0.55203,0.10356056 -1.37865,0.35617945 -1.83693,0.5613744 -0.45829,0.205195 -1.34555,0.501486 -1.97169,0.6584263 -2.15178,0.5393346 -2.16832,0.5901584 -2.17275,6.6735777 -0.005,6.3678277 -0.0537,6.5342617 -2.05843,6.9794367 -0.76462,0.169796 -1.54426,0.436554 -1.73252,0.592796 -0.18826,0.156242 -0.98901,0.421193 -1.77945,0.588783 -0.79044,0.167587 -1.8789,0.528158 -2.41881,0.801272 -0.5399,0.273111 -1.19934,0.496567 -1.46541,0.496567 -0.26607,0 -0.93728,0.231219 -1.49159,0.513821 -1.64238,0.837335 -2.46058,0.929513 -2.78983,0.314304 -0.17076,-0.319061 -0.28298,-2.411455 -0.28298,-5.276245 0,-5.2462588 -0.0464,-5.3981323 -1.64649,-5.3899302 -0.47688,0.00238 -1.40283,0.2498593 -2.05768,0.5498148 -0.65484,0.2999528 -1.49287,0.5479838 -1.86228,0.55118 -0.36942,0.0032 -1.13664,0.2428716 -1.70496,0.5326142 -0.56831,0.2897402 -1.45668,0.6055992 -1.97417,0.7019082 -0.51748,0.09631 -1.3576,0.387408 -1.86692,0.646888 -0.50932,0.259482 -1.37575,0.552791 -1.9254,0.651801 -0.61211,0.110259 -1.12473,0.398764 -1.32292,0.744534 -0.21701,0.378643 -0.36712,2.552685 -0.45585,6.602561 l -0.13229,6.038036 -1.45521,0.52728 c -0.80036,0.290002 -2.05052,0.683109 -2.77812,0.873567 -0.72761,0.19046 -1.73964,0.531217 -2.24896,0.757235 -2.35462,1.044898 -6.38816,2.181222 -6.96153,1.961197 -0.39777,-0.152635 -0.4468,-0.726019 -0.4468,-5.224235 0,-2.977033 -0.11252,-5.263023 -0.27389,-5.564553 -0.37617,-0.702863 -2.43026,-0.694785 -3.82252,0.01503 -0.56831,0.28974 -1.45669,0.603493 -1.97417,0.69723 -0.51748,0.09373 -1.36314,0.382516 -1.87923,0.641733 -0.51609,0.259218 -1.3956,0.557086 -1.95447,0.66193 -2.10492,0.394885 -2.00197,-0.25835 -2.00197,12.703239 0,7.439718 0.0971,11.708228 0.27389,12.038542 0.34274,0.640421 0.8059,0.64457 2.05175,0.01839 z"
           id="path20980" />
      </g>
    </g>
  </g>
</svg>
